<svg width="575" height="575" viewBox="0 0 575 575" fill="none" xmlns="http://www.w3.org/2000/svg" xmlns:xlink="http://www.w3.org/1999/xlink">
  <path fill-rule="evenodd" clip-rule="evenodd" d="M312.5 50C256.995 50 212 94.9954 212 150.5V212H150.5C94.9951 212 50 256.995 50 312.5C50 368.005 94.9951 413 150.5 413H212V474.5C212 530.005 256.995 575 312.5 575C368.005 575 413 530.005 413 474.5V413H474.5C530.005 413 575 368.005 575 312.5C575 256.995 530.005 212 474.5 212H413V150.5C413 94.9954 368.005 50 312.5 50Z" fill="#00976A"/>
  <rect x="225" y="189" width="316" height="247" fill="url(#pattern0)"/>
  <mask id="path-3-inside-1" fill="white">
    <path fill-rule="evenodd" clip-rule="evenodd" d="M262.5 0C206.995 0 162 44.9954 162 100.5V162H100.5C44.9954 162 2.42618e-06 206.995 0 262.5C-2.42618e-06 318.005 44.9954 363 100.5 363H162V424.5C162 480.005 206.995 525 262.5 525C318.005 525 363 480.005 363 424.5V363H424.5C480.005 363 525 318.005 525 262.5C525 206.995 480.005 162 424.5 162H363V100.5C363 44.9954 318.005 0 262.5 0Z"/>
  </mask>
  <path d="M162 162V167H167V162H162ZM0 262.5H5H0ZM162 363H167V358H162V363ZM363 363V358H358V363H363ZM363 162H358V167H363V162ZM167 100.5C167 47.7568 209.757 5 262.5 5V-5C204.234 -5 157 42.2339 157 100.5H167ZM167 162V100.5H157V162H167ZM100.5 167H162V157H100.5V167ZM5 262.5C5 209.757 47.7568 167 100.5 167V157C42.234 157 -5 204.234 -5 262.5H5ZM100.5 358C47.7568 358 5 315.243 5 262.5H-5C-5 320.766 42.2339 368 100.5 368V358ZM162 358H100.5V368H162V358ZM167 424.5V363H157V424.5H167ZM262.5 520C209.757 520 167 477.243 167 424.5H157C157 482.766 204.234 530 262.5 530V520ZM358 424.5C358 477.243 315.243 520 262.5 520V530C320.766 530 368 482.766 368 424.5H358ZM358 363V424.5H368V363H358ZM424.5 358H363V368H424.5V358ZM520 262.5C520 315.243 477.243 358 424.5 358V368C482.766 368 530 320.766 530 262.5H520ZM424.5 167C477.243 167 520 209.757 520 262.5H530C530 204.234 482.766 157 424.5 157V167ZM363 167H424.5V157H363V167ZM358 100.5V162H368V100.5H358ZM262.5 5C315.243 5 358 47.7568 358 100.5H368C368 42.234 320.766 -5 262.5 -5V5Z" fill="#00CFB4" mask="url(#path-3-inside-1)"/>
</svg>
