<svg width="553" height="43" viewBox="0 0 553 43" fill="none" xmlns="http://www.w3.org/2000/svg">
  <rect y="3" width="553" height="40" rx="15" fill="white"/>
  <rect width="550" height="40" rx="15" fill="#BE1C25"/>
  <path d="M22.84 13.16C22.84 13.432 22.76 13.672 22.6 13.88C22.456 14.088 22.28 14.24 22.072 14.336C21.656 14.064 21.176 13.808 20.632 13.568C20.104 13.328 19.432 13.208 18.616 13.208C17.912 13.208 17.264 13.328 16.672 13.568C16.096 13.808 15.592 14.16 15.16 14.624C14.744 15.088 14.416 15.664 14.176 16.352C13.936 17.04 13.816 17.832 13.816 18.728C13.816 20.536 14.264 21.904 15.16 22.832C16.056 23.76 17.24 24.224 18.712 24.224C19.496 24.224 20.176 24.112 20.752 23.888C21.328 23.664 21.824 23.408 22.24 23.12C22.416 23.232 22.576 23.392 22.72 23.6C22.88 23.808 22.96 24.048 22.96 24.32C22.96 24.544 22.896 24.752 22.768 24.944C22.656 25.136 22.464 25.312 22.192 25.472C21.84 25.696 21.36 25.896 20.752 26.072C20.144 26.248 19.376 26.336 18.448 26.336C17.424 26.336 16.472 26.184 15.592 25.88C14.712 25.56 13.944 25.088 13.288 24.464C12.632 23.824 12.112 23.032 11.728 22.088C11.36 21.128 11.176 20.008 11.176 18.728C11.176 17.48 11.368 16.376 11.752 15.416C12.136 14.456 12.648 13.656 13.288 13.016C13.944 12.376 14.704 11.896 15.568 11.576C16.432 11.24 17.352 11.072 18.328 11.072C19.016 11.072 19.632 11.136 20.176 11.264C20.736 11.376 21.208 11.528 21.592 11.72C21.992 11.912 22.296 12.136 22.504 12.392C22.728 12.648 22.84 12.904 22.84 13.16ZM27.1842 26.144C26.7202 26.144 26.3762 26.056 26.1522 25.88C25.9282 25.704 25.8162 25.408 25.8162 24.992V10.424C25.9282 10.392 26.0882 10.352 26.2962 10.304C26.5042 10.256 26.7282 10.232 26.9682 10.232C27.4322 10.232 27.7762 10.32 28.0002 10.496C28.2242 10.672 28.3362 10.968 28.3362 11.384V25.952C28.2082 26 28.0402 26.04 27.8322 26.072C27.6402 26.12 27.4242 26.144 27.1842 26.144ZM34.4283 25.952C34.3163 26 34.1563 26.04 33.9483 26.072C33.7563 26.12 33.5323 26.144 33.2763 26.144C32.8123 26.144 32.4683 26.056 32.2443 25.88C32.0203 25.704 31.9083 25.408 31.9083 24.992V14.84C32.0363 14.808 32.1963 14.768 32.3883 14.72C32.5963 14.672 32.8283 14.648 33.0843 14.648C33.5483 14.648 33.8843 14.736 34.0923 14.912C34.3163 15.088 34.4283 15.392 34.4283 15.824V25.952ZM31.6443 11.312C31.6443 10.896 31.7883 10.552 32.0763 10.28C32.3643 9.992 32.7323 9.848 33.1803 9.848C33.6283 9.848 33.9883 9.992 34.2603 10.28C34.5323 10.552 34.6683 10.896 34.6683 11.312C34.6683 11.728 34.5323 12.08 34.2603 12.368C33.9883 12.64 33.6283 12.776 33.1803 12.776C32.7323 12.776 32.3643 12.64 32.0763 12.368C31.7883 12.08 31.6443 11.728 31.6443 11.312ZM47.9151 30.368C47.8031 30.416 47.6431 30.456 47.4351 30.488C47.2271 30.536 47.0031 30.56 46.7631 30.56C46.2991 30.56 45.9551 30.472 45.7311 30.296C45.5071 30.12 45.3951 29.816 45.3951 29.384V25.76C45.0751 25.92 44.7071 26.056 44.2911 26.168C43.8751 26.28 43.3951 26.336 42.8511 26.336C42.0351 26.336 41.2831 26.224 40.5951 26C39.9231 25.76 39.3391 25.4 38.8431 24.92C38.3471 24.424 37.9551 23.808 37.6671 23.072C37.3951 22.32 37.2591 21.44 37.2591 20.432C37.2591 19.424 37.4031 18.544 37.6911 17.792C37.9951 17.04 38.4111 16.416 38.9391 15.92C39.4671 15.424 40.0911 15.056 40.8111 14.816C41.5471 14.56 42.3471 14.432 43.2111 14.432C44.0271 14.432 44.7631 14.536 45.4191 14.744C46.0911 14.936 46.6351 15.16 47.0511 15.416C47.3231 15.592 47.5311 15.792 47.6751 16.016C47.8351 16.24 47.9151 16.52 47.9151 16.856V30.368ZM43.2111 24.296C43.6591 24.296 44.0671 24.232 44.4351 24.104C44.8191 23.976 45.1471 23.816 45.4191 23.624V17.024C45.1791 16.88 44.8751 16.752 44.5071 16.64C44.1551 16.512 43.7471 16.448 43.2831 16.448C42.7871 16.448 42.3311 16.528 41.9151 16.688C41.4991 16.832 41.1311 17.064 40.8111 17.384C40.5071 17.704 40.2671 18.12 40.0911 18.632C39.9151 19.128 39.8271 19.728 39.8271 20.432C39.8271 21.792 40.1311 22.776 40.7391 23.384C41.3471 23.992 42.1711 24.296 43.2111 24.296ZM51.2185 14.792C51.3305 14.76 51.4905 14.728 51.6985 14.696C51.9065 14.648 52.1305 14.624 52.3705 14.624C52.8345 14.624 53.1705 14.712 53.3785 14.888C53.6025 15.064 53.7145 15.368 53.7145 15.8V21.728C53.7145 22.656 53.9545 23.32 54.4345 23.72C54.9305 24.104 55.6105 24.296 56.4745 24.296C57.0345 24.296 57.5065 24.24 57.8905 24.128C58.2745 24.016 58.5785 23.896 58.8025 23.768V14.792C58.9305 14.76 59.0905 14.728 59.2825 14.696C59.4905 14.648 59.7145 14.624 59.9545 14.624C60.4185 14.624 60.7625 14.712 60.9865 14.888C61.2105 15.064 61.3225 15.368 61.3225 15.8V23.888C61.3225 24.24 61.2665 24.528 61.1545 24.752C61.0425 24.976 60.8185 25.192 60.4825 25.4C60.0665 25.64 59.5145 25.856 58.8265 26.048C58.1545 26.24 57.3625 26.336 56.4505 26.336C54.8025 26.336 53.5145 25.976 52.5865 25.256C51.6745 24.52 51.2185 23.36 51.2185 21.776V14.792ZM66.5688 21.656C66.7928 22.568 67.2248 23.248 67.8648 23.696C68.5208 24.128 69.3528 24.344 70.3608 24.344C71.0328 24.344 71.6488 24.24 72.2088 24.032C72.7688 23.824 73.2168 23.6 73.5528 23.36C74.0008 23.616 74.2248 23.976 74.2248 24.44C74.2248 24.712 74.1208 24.968 73.9128 25.208C73.7048 25.432 73.4168 25.632 73.0488 25.808C72.6968 25.968 72.2728 26.096 71.7768 26.192C71.2968 26.288 70.7768 26.336 70.2168 26.336C69.2888 26.336 68.4408 26.208 67.6728 25.952C66.9208 25.696 66.2728 25.312 65.7288 24.8C65.1848 24.288 64.7608 23.656 64.4568 22.904C64.1688 22.152 64.0248 21.28 64.0248 20.288C64.0248 19.328 64.1688 18.488 64.4568 17.768C64.7448 17.032 65.1368 16.424 65.6328 15.944C66.1288 15.448 66.7128 15.072 67.3848 14.816C68.0568 14.56 68.7768 14.432 69.5448 14.432C70.3128 14.432 71.0088 14.56 71.6328 14.816C72.2728 15.056 72.8168 15.4 73.2648 15.848C73.7288 16.28 74.0808 16.8 74.3208 17.408C74.5768 18.016 74.7048 18.68 74.7048 19.4C74.7048 19.8 74.6088 20.096 74.4168 20.288C74.2248 20.464 73.9448 20.584 73.5768 20.648L66.5688 21.656ZM69.5448 16.376C68.6648 16.376 67.9288 16.672 67.3368 17.264C66.7608 17.856 66.4568 18.704 66.4248 19.808L72.3288 18.968C72.2648 18.248 72.0008 17.64 71.5368 17.144C71.0728 16.632 70.4088 16.376 69.5448 16.376ZM84.0297 21.656C84.2537 22.568 84.6857 23.248 85.3257 23.696C85.9817 24.128 86.8137 24.344 87.8217 24.344C88.4937 24.344 89.1097 24.24 89.6697 24.032C90.2297 23.824 90.6777 23.6 91.0137 23.36C91.4617 23.616 91.6857 23.976 91.6857 24.44C91.6857 24.712 91.5817 24.968 91.3737 25.208C91.1657 25.432 90.8777 25.632 90.5097 25.808C90.1577 25.968 89.7337 26.096 89.2377 26.192C88.7577 26.288 88.2377 26.336 87.6777 26.336C86.7497 26.336 85.9017 26.208 85.1337 25.952C84.3817 25.696 83.7337 25.312 83.1897 24.8C82.6457 24.288 82.2217 23.656 81.9177 22.904C81.6297 22.152 81.4857 21.28 81.4857 20.288C81.4857 19.328 81.6297 18.488 81.9177 17.768C82.2057 17.032 82.5977 16.424 83.0937 15.944C83.5897 15.448 84.1737 15.072 84.8457 14.816C85.5177 14.56 86.2377 14.432 87.0057 14.432C87.7737 14.432 88.4697 14.56 89.0937 14.816C89.7337 15.056 90.2777 15.4 90.7257 15.848C91.1897 16.28 91.5417 16.8 91.7817 17.408C92.0377 18.016 92.1657 18.68 92.1657 19.4C92.1657 19.8 92.0697 20.096 91.8777 20.288C91.6857 20.464 91.4057 20.584 91.0377 20.648L84.0297 21.656ZM87.0057 16.376C86.1257 16.376 85.3897 16.672 84.7977 17.264C84.2217 17.856 83.9177 18.704 83.8857 19.808L89.7897 18.968C89.7257 18.248 89.4617 17.64 88.9977 17.144C88.5337 16.632 87.8697 16.376 87.0057 16.376ZM105.067 16.472C104.555 16.472 104.083 16.56 103.651 16.736C103.219 16.896 102.843 17.144 102.523 17.48C102.219 17.816 101.971 18.232 101.779 18.728C101.603 19.208 101.515 19.768 101.515 20.408C101.515 21.672 101.843 22.64 102.499 23.312C103.155 23.968 104.011 24.296 105.067 24.296C105.675 24.296 106.195 24.216 106.627 24.056C107.059 23.896 107.435 23.704 107.755 23.48C107.963 23.608 108.131 23.76 108.259 23.936C108.387 24.112 108.451 24.328 108.451 24.584C108.451 25.08 108.123 25.496 107.467 25.832C106.827 26.168 105.979 26.336 104.923 26.336C104.043 26.336 103.235 26.216 102.499 25.976C101.779 25.736 101.155 25.368 100.627 24.872C100.099 24.376 99.6826 23.76 99.3786 23.024C99.0906 22.272 98.9466 21.4 98.9466 20.408C98.9466 19.416 99.0986 18.544 99.4026 17.792C99.7226 17.04 100.147 16.416 100.675 15.92C101.219 15.424 101.851 15.056 102.571 14.816C103.291 14.56 104.051 14.432 104.851 14.432C105.379 14.432 105.851 14.48 106.267 14.576C106.699 14.672 107.067 14.808 107.371 14.984C107.675 15.144 107.907 15.336 108.067 15.56C108.243 15.768 108.331 15.992 108.331 16.232C108.331 16.456 108.267 16.664 108.139 16.856C108.027 17.032 107.883 17.168 107.707 17.264C107.371 17.056 106.995 16.872 106.579 16.712C106.179 16.552 105.675 16.472 105.067 16.472ZM121.573 20.384C121.573 21.296 121.437 22.12 121.165 22.856C120.893 23.592 120.509 24.216 120.013 24.728C119.533 25.24 118.941 25.64 118.237 25.928C117.533 26.2 116.749 26.336 115.885 26.336C115.021 26.336 114.237 26.2 113.533 25.928C112.829 25.64 112.229 25.24 111.733 24.728C111.253 24.216 110.877 23.592 110.605 22.856C110.333 22.12 110.197 21.296 110.197 20.384C110.197 19.472 110.333 18.648 110.605 17.912C110.877 17.176 111.261 16.552 111.757 16.04C112.253 15.528 112.853 15.136 113.557 14.864C114.261 14.576 115.037 14.432 115.885 14.432C116.733 14.432 117.509 14.576 118.213 14.864C118.917 15.136 119.517 15.536 120.013 16.064C120.509 16.576 120.893 17.2 121.165 17.936C121.437 18.656 121.573 19.472 121.573 20.384ZM115.885 16.448C114.925 16.448 114.165 16.792 113.605 17.48C113.045 18.168 112.765 19.136 112.765 20.384C112.765 21.632 113.037 22.6 113.581 23.288C114.125 23.96 114.893 24.296 115.885 24.296C116.877 24.296 117.645 23.96 118.189 23.288C118.733 22.6 119.005 21.632 119.005 20.384C119.005 19.152 118.725 18.192 118.165 17.504C117.621 16.8 116.861 16.448 115.885 16.448ZM131.857 18.728C131.857 17.944 131.633 17.368 131.185 17C130.753 16.632 130.161 16.448 129.409 16.448C128.849 16.448 128.345 16.52 127.897 16.664C127.465 16.808 127.089 16.968 126.769 17.144V25.952C126.657 26 126.497 26.04 126.289 26.072C126.097 26.12 125.881 26.144 125.641 26.144C125.177 26.144 124.833 26.056 124.609 25.88C124.385 25.704 124.273 25.408 124.273 24.992V17.072C124.273 16.704 124.345 16.408 124.489 16.184C124.633 15.96 124.873 15.736 125.209 15.512C125.657 15.24 126.241 14.992 126.961 14.768C127.681 14.544 128.497 14.432 129.409 14.432C130.961 14.432 132.177 14.784 133.057 15.488C133.937 16.176 134.377 17.224 134.377 18.632V25.952C134.265 26 134.105 26.04 133.897 26.072C133.689 26.12 133.465 26.144 133.225 26.144C132.761 26.144 132.417 26.056 132.193 25.88C131.969 25.704 131.857 25.408 131.857 24.992V18.728ZM145.311 18.992C145.311 18.112 145.071 17.472 144.591 17.072C144.127 16.656 143.511 16.448 142.743 16.448C142.231 16.448 141.759 16.536 141.327 16.712C140.911 16.872 140.543 17.072 140.223 17.312V25.952C140.111 26 139.951 26.04 139.743 26.072C139.551 26.12 139.335 26.144 139.095 26.144C138.631 26.144 138.287 26.056 138.063 25.88C137.839 25.704 137.727 25.408 137.727 24.992V10.424C137.839 10.392 137.999 10.352 138.207 10.304C138.415 10.256 138.639 10.232 138.879 10.232C139.343 10.232 139.679 10.32 139.887 10.496C140.111 10.672 140.223 10.968 140.223 11.384V15.176C140.591 14.984 141.015 14.816 141.495 14.672C141.991 14.512 142.543 14.432 143.151 14.432C144.543 14.432 145.663 14.8 146.511 15.536C147.375 16.272 147.807 17.392 147.807 18.896V25.952C147.695 26 147.535 26.04 147.327 26.072C147.119 26.12 146.903 26.144 146.679 26.144C146.199 26.144 145.847 26.056 145.623 25.88C145.415 25.704 145.311 25.408 145.311 24.992V18.992ZM153.053 21.656C153.277 22.568 153.709 23.248 154.349 23.696C155.005 24.128 155.837 24.344 156.845 24.344C157.517 24.344 158.133 24.24 158.693 24.032C159.253 23.824 159.701 23.6 160.037 23.36C160.485 23.616 160.709 23.976 160.709 24.44C160.709 24.712 160.605 24.968 160.397 25.208C160.189 25.432 159.901 25.632 159.533 25.808C159.181 25.968 158.757 26.096 158.261 26.192C157.781 26.288 157.261 26.336 156.701 26.336C155.773 26.336 154.925 26.208 154.157 25.952C153.405 25.696 152.757 25.312 152.213 24.8C151.669 24.288 151.245 23.656 150.941 22.904C150.653 22.152 150.509 21.28 150.509 20.288C150.509 19.328 150.653 18.488 150.941 17.768C151.229 17.032 151.621 16.424 152.117 15.944C152.613 15.448 153.197 15.072 153.869 14.816C154.541 14.56 155.261 14.432 156.029 14.432C156.797 14.432 157.493 14.56 158.117 14.816C158.757 15.056 159.301 15.4 159.749 15.848C160.213 16.28 160.565 16.8 160.805 17.408C161.061 18.016 161.189 18.68 161.189 19.4C161.189 19.8 161.093 20.096 160.901 20.288C160.709 20.464 160.429 20.584 160.061 20.648L153.053 21.656ZM156.029 16.376C155.149 16.376 154.413 16.672 153.821 17.264C153.245 17.856 152.941 18.704 152.909 19.808L158.813 18.968C158.749 18.248 158.485 17.64 158.021 17.144C157.557 16.632 156.893 16.376 156.029 16.376ZM169.285 16.472C168.773 16.472 168.301 16.56 167.869 16.736C167.437 16.896 167.061 17.144 166.741 17.48C166.437 17.816 166.189 18.232 165.997 18.728C165.821 19.208 165.733 19.768 165.733 20.408C165.733 21.672 166.061 22.64 166.717 23.312C167.373 23.968 168.229 24.296 169.285 24.296C169.893 24.296 170.413 24.216 170.845 24.056C171.277 23.896 171.653 23.704 171.973 23.48C172.181 23.608 172.349 23.76 172.477 23.936C172.605 24.112 172.669 24.328 172.669 24.584C172.669 24.984 172.445 25.336 171.997 25.64C171.565 25.944 170.981 26.152 170.245 26.264C170.597 26.76 170.773 27.352 170.773 28.04C170.773 28.824 170.525 29.448 170.029 29.912C169.549 30.392 168.901 30.632 168.085 30.632C167.621 30.632 167.253 30.528 166.981 30.32C166.709 30.128 166.573 29.848 166.573 29.48C166.573 29.384 166.581 29.28 166.597 29.168C166.613 29.056 166.645 28.952 166.693 28.856H167.029C167.589 28.856 167.989 28.736 168.229 28.496C168.485 28.256 168.613 27.928 168.613 27.512C168.613 27.336 168.581 27.136 168.517 26.912C168.453 26.704 168.357 26.496 168.229 26.288C167.477 26.208 166.789 26.032 166.165 25.76C165.541 25.472 165.005 25.088 164.557 24.608C164.109 24.112 163.765 23.52 163.525 22.832C163.285 22.128 163.165 21.32 163.165 20.408C163.165 19.416 163.317 18.544 163.621 17.792C163.941 17.04 164.365 16.416 164.893 15.92C165.437 15.424 166.069 15.056 166.789 14.816C167.509 14.56 168.269 14.432 169.069 14.432C169.597 14.432 170.069 14.48 170.485 14.576C170.917 14.672 171.285 14.808 171.589 14.984C171.893 15.144 172.125 15.336 172.285 15.56C172.461 15.768 172.549 15.992 172.549 16.232C172.549 16.456 172.485 16.664 172.357 16.856C172.245 17.032 172.101 17.168 171.925 17.264C171.589 17.056 171.213 16.872 170.797 16.712C170.397 16.552 169.893 16.472 169.285 16.472ZM179.614 24.392C180.174 24.392 180.662 24.336 181.078 24.224C181.494 24.112 181.79 23.992 181.966 23.864V20.816L179.35 21.08C178.614 21.16 178.062 21.328 177.694 21.584C177.326 21.824 177.142 22.2 177.142 22.712C177.142 23.24 177.342 23.656 177.742 23.96C178.142 24.248 178.766 24.392 179.614 24.392ZM179.566 14.432C181.054 14.432 182.238 14.76 183.118 15.416C183.998 16.056 184.438 17.072 184.438 18.464V24.056C184.438 24.424 184.35 24.712 184.174 24.92C184.014 25.112 183.79 25.296 183.502 25.472C183.086 25.712 182.55 25.92 181.894 26.096C181.238 26.272 180.478 26.36 179.614 26.36C178.062 26.36 176.846 26.056 175.966 25.448C175.102 24.84 174.67 23.944 174.67 22.76C174.67 21.704 175.006 20.896 175.678 20.336C176.366 19.776 177.35 19.432 178.63 19.304L181.966 18.968V18.44C181.966 17.736 181.734 17.224 181.27 16.904C180.822 16.584 180.19 16.424 179.374 16.424C178.734 16.424 178.118 16.512 177.526 16.688C176.934 16.864 176.406 17.064 175.942 17.288C175.782 17.16 175.646 17.008 175.534 16.832C175.422 16.64 175.366 16.432 175.366 16.208C175.366 15.936 175.43 15.712 175.558 15.536C175.702 15.36 175.918 15.208 176.206 15.08C176.654 14.856 177.166 14.696 177.742 14.6C178.318 14.488 178.926 14.432 179.566 14.432ZM203.229 20.384C203.229 21.296 203.093 22.12 202.821 22.856C202.549 23.592 202.165 24.216 201.669 24.728C201.189 25.24 200.597 25.64 199.893 25.928C199.189 26.2 198.405 26.336 197.541 26.336C196.677 26.336 195.893 26.2 195.189 25.928C194.485 25.64 193.885 25.24 193.389 24.728C192.909 24.216 192.533 23.592 192.261 22.856C191.989 22.12 191.853 21.296 191.853 20.384C191.853 19.472 191.989 18.648 192.261 17.912C192.533 17.176 192.917 16.552 193.413 16.04C193.909 15.528 194.509 15.136 195.213 14.864C195.917 14.576 196.693 14.432 197.541 14.432C198.389 14.432 199.165 14.576 199.869 14.864C200.573 15.136 201.173 15.536 201.669 16.064C202.165 16.576 202.549 17.2 202.821 17.936C203.093 18.656 203.229 19.472 203.229 20.384ZM197.541 16.448C196.581 16.448 195.821 16.792 195.261 17.48C194.701 18.168 194.421 19.136 194.421 20.384C194.421 21.632 194.693 22.6 195.237 23.288C195.781 23.96 196.549 24.296 197.541 24.296C198.533 24.296 199.301 23.96 199.845 23.288C200.389 22.6 200.661 21.632 200.661 20.384C200.661 19.152 200.381 18.192 199.821 17.504C199.277 16.8 198.517 16.448 197.541 16.448ZM214.305 22.904C214.305 23.976 213.905 24.816 213.105 25.424C212.305 26.032 211.145 26.336 209.625 26.336C209.001 26.336 208.425 26.288 207.897 26.192C207.369 26.096 206.913 25.96 206.529 25.784C206.161 25.608 205.873 25.4 205.665 25.16C205.457 24.92 205.353 24.656 205.353 24.368C205.353 24.128 205.409 23.904 205.521 23.696C205.649 23.488 205.817 23.32 206.025 23.192C206.473 23.48 206.985 23.744 207.561 23.984C208.137 24.224 208.809 24.344 209.577 24.344C210.297 24.344 210.849 24.224 211.233 23.984C211.617 23.728 211.809 23.368 211.809 22.904C211.809 22.504 211.673 22.184 211.401 21.944C211.145 21.704 210.761 21.52 210.249 21.392L208.617 20.96C207.529 20.672 206.729 20.28 206.217 19.784C205.705 19.288 205.449 18.608 205.449 17.744C205.449 17.28 205.545 16.848 205.737 16.448C205.929 16.032 206.209 15.68 206.577 15.392C206.961 15.088 207.433 14.856 207.993 14.696C208.553 14.52 209.193 14.432 209.913 14.432C210.489 14.432 211.009 14.48 211.473 14.576C211.953 14.656 212.361 14.776 212.697 14.936C213.049 15.08 213.321 15.264 213.513 15.488C213.705 15.712 213.801 15.952 213.801 16.208C213.801 16.464 213.745 16.688 213.633 16.88C213.521 17.056 213.377 17.2 213.201 17.312C212.913 17.136 212.481 16.944 211.905 16.736C211.345 16.528 210.737 16.424 210.081 16.424C209.409 16.424 208.881 16.544 208.497 16.784C208.113 17.008 207.921 17.328 207.921 17.744C207.921 18.064 208.025 18.328 208.233 18.536C208.457 18.744 208.833 18.912 209.361 19.04L210.753 19.4C211.969 19.72 212.865 20.152 213.441 20.696C214.017 21.24 214.305 21.976 214.305 22.904ZM226.838 26.336C226.326 26.336 225.846 26.28 225.398 26.168C224.95 26.072 224.566 25.944 224.246 25.784V30.296C224.134 30.344 223.974 30.384 223.766 30.416C223.574 30.464 223.358 30.488 223.118 30.488C222.654 30.488 222.31 30.4 222.086 30.224C221.862 30.048 221.75 29.744 221.75 29.312V16.904C221.75 16.552 221.814 16.272 221.942 16.064C222.07 15.84 222.31 15.624 222.662 15.416C223.11 15.16 223.654 14.936 224.294 14.744C224.95 14.536 225.686 14.432 226.502 14.432C227.334 14.432 228.11 14.552 228.83 14.792C229.55 15.016 230.174 15.368 230.702 15.848C231.23 16.328 231.646 16.944 231.95 17.696C232.254 18.432 232.406 19.312 232.406 20.336C232.406 21.344 232.262 22.224 231.974 22.976C231.702 23.712 231.318 24.336 230.822 24.848C230.342 25.344 229.758 25.72 229.07 25.976C228.398 26.216 227.654 26.336 226.838 26.336ZM226.454 24.296C227.494 24.296 228.318 23.984 228.926 23.36C229.534 22.72 229.838 21.712 229.838 20.336C229.838 19.632 229.75 19.032 229.574 18.536C229.398 18.04 229.158 17.64 228.854 17.336C228.566 17.016 228.214 16.792 227.798 16.664C227.398 16.52 226.966 16.448 226.502 16.448C225.99 16.448 225.55 16.512 225.182 16.64C224.83 16.752 224.518 16.888 224.246 17.048V23.648C224.518 23.84 224.838 24 225.206 24.128C225.574 24.24 225.99 24.296 226.454 24.296ZM237.605 25.952C237.493 26 237.333 26.04 237.125 26.072C236.933 26.12 236.717 26.144 236.477 26.144C236.013 26.144 235.669 26.056 235.445 25.88C235.221 25.704 235.109 25.408 235.109 24.992V17.12C235.109 16.72 235.189 16.4 235.349 16.16C235.509 15.904 235.765 15.664 236.117 15.44C236.581 15.152 237.173 14.912 237.893 14.72C238.613 14.528 239.405 14.432 240.269 14.432C241.677 14.432 242.381 14.832 242.381 15.632C242.381 15.824 242.349 16.008 242.285 16.184C242.221 16.344 242.149 16.488 242.069 16.616C241.909 16.584 241.709 16.552 241.469 16.52C241.229 16.488 240.973 16.472 240.701 16.472C240.061 16.472 239.477 16.544 238.949 16.688C238.421 16.816 237.973 16.984 237.605 17.192V25.952ZM254.955 20.384C254.955 21.296 254.819 22.12 254.547 22.856C254.275 23.592 253.891 24.216 253.395 24.728C252.915 25.24 252.323 25.64 251.619 25.928C250.915 26.2 250.131 26.336 249.267 26.336C248.403 26.336 247.619 26.2 246.915 25.928C246.211 25.64 245.611 25.24 245.115 24.728C244.635 24.216 244.259 23.592 243.987 22.856C243.715 22.12 243.579 21.296 243.579 20.384C243.579 19.472 243.715 18.648 243.987 17.912C244.259 17.176 244.643 16.552 245.139 16.04C245.635 15.528 246.235 15.136 246.939 14.864C247.643 14.576 248.419 14.432 249.267 14.432C250.115 14.432 250.891 14.576 251.595 14.864C252.299 15.136 252.899 15.536 253.395 16.064C253.891 16.576 254.275 17.2 254.547 17.936C254.819 18.656 254.955 19.472 254.955 20.384ZM249.267 16.448C248.307 16.448 247.547 16.792 246.987 17.48C246.427 18.168 246.147 19.136 246.147 20.384C246.147 21.632 246.419 22.6 246.963 23.288C247.507 23.96 248.275 24.296 249.267 24.296C250.259 24.296 251.027 23.96 251.571 23.288C252.115 22.6 252.387 21.632 252.387 20.384C252.387 19.152 252.107 18.192 251.547 17.504C251.003 16.8 250.243 16.448 249.267 16.448ZM262.696 14.432C263.176 14.432 263.624 14.488 264.04 14.6C264.472 14.696 264.848 14.824 265.168 14.984V10.424C265.28 10.392 265.44 10.352 265.648 10.304C265.856 10.256 266.08 10.232 266.32 10.232C266.784 10.232 267.128 10.32 267.352 10.496C267.576 10.672 267.688 10.968 267.688 11.384V23.96C267.688 24.296 267.616 24.576 267.472 24.8C267.328 25.008 267.104 25.208 266.8 25.4C266.432 25.64 265.928 25.856 265.288 26.048C264.664 26.24 263.944 26.336 263.128 26.336C262.216 26.336 261.384 26.224 260.632 26C259.88 25.76 259.24 25.4 258.712 24.92C258.184 24.424 257.776 23.808 257.488 23.072C257.2 22.32 257.056 21.44 257.056 20.432C257.056 19.392 257.2 18.496 257.488 17.744C257.792 16.976 258.2 16.352 258.712 15.872C259.224 15.376 259.816 15.016 260.488 14.792C261.176 14.552 261.912 14.432 262.696 14.432ZM265.192 17.096C264.92 16.92 264.6 16.768 264.232 16.64C263.864 16.512 263.456 16.448 263.008 16.448C262.528 16.448 262.08 16.52 261.664 16.664C261.264 16.808 260.912 17.048 260.608 17.384C260.304 17.704 260.064 18.12 259.888 18.632C259.712 19.128 259.624 19.736 259.624 20.456C259.624 21.8 259.936 22.776 260.56 23.384C261.2 23.992 262.048 24.296 263.104 24.296C263.584 24.296 263.984 24.248 264.304 24.152C264.64 24.04 264.936 23.912 265.192 23.768V17.096ZM271.039 14.792C271.151 14.76 271.311 14.728 271.519 14.696C271.727 14.648 271.951 14.624 272.191 14.624C272.655 14.624 272.991 14.712 273.199 14.888C273.423 15.064 273.535 15.368 273.535 15.8V21.728C273.535 22.656 273.775 23.32 274.255 23.72C274.751 24.104 275.431 24.296 276.295 24.296C276.855 24.296 277.327 24.24 277.711 24.128C278.095 24.016 278.399 23.896 278.623 23.768V14.792C278.751 14.76 278.911 14.728 279.103 14.696C279.311 14.648 279.535 14.624 279.775 14.624C280.239 14.624 280.583 14.712 280.807 14.888C281.031 15.064 281.143 15.368 281.143 15.8V23.888C281.143 24.24 281.087 24.528 280.975 24.752C280.863 24.976 280.639 25.192 280.303 25.4C279.887 25.64 279.335 25.856 278.647 26.048C277.975 26.24 277.183 26.336 276.271 26.336C274.623 26.336 273.335 25.976 272.407 25.256C271.495 24.52 271.039 23.36 271.039 21.776V14.792ZM286.965 22.712C286.965 23.288 287.133 23.696 287.469 23.936C287.805 24.176 288.277 24.296 288.885 24.296C289.157 24.296 289.445 24.256 289.749 24.176C290.053 24.096 290.317 24 290.541 23.888C290.653 24.016 290.749 24.16 290.829 24.32C290.925 24.48 290.973 24.672 290.973 24.896C290.973 25.312 290.757 25.656 290.325 25.928C289.909 26.2 289.269 26.336 288.405 26.336C287.205 26.336 286.245 26.072 285.525 25.544C284.821 25 284.469 24.112 284.469 22.88V11.672C284.581 11.64 284.741 11.6 284.949 11.552C285.157 11.504 285.381 11.48 285.621 11.48C286.085 11.48 286.421 11.568 286.629 11.744C286.853 11.92 286.965 12.216 286.965 12.632V15.008H290.685C290.749 15.104 290.805 15.24 290.853 15.416C290.917 15.592 290.949 15.776 290.949 15.968C290.949 16.656 290.653 17 290.061 17H286.965V22.712ZM304.034 20.384C304.034 21.296 303.898 22.12 303.626 22.856C303.354 23.592 302.97 24.216 302.474 24.728C301.994 25.24 301.402 25.64 300.698 25.928C299.994 26.2 299.21 26.336 298.346 26.336C297.482 26.336 296.698 26.2 295.994 25.928C295.29 25.64 294.69 25.24 294.194 24.728C293.714 24.216 293.338 23.592 293.066 22.856C292.794 22.12 292.658 21.296 292.658 20.384C292.658 19.472 292.794 18.648 293.066 17.912C293.338 17.176 293.722 16.552 294.218 16.04C294.714 15.528 295.314 15.136 296.018 14.864C296.722 14.576 297.498 14.432 298.346 14.432C299.194 14.432 299.97 14.576 300.674 14.864C301.378 15.136 301.978 15.536 302.474 16.064C302.97 16.576 303.354 17.2 303.626 17.936C303.898 18.656 304.034 19.472 304.034 20.384ZM298.346 16.448C297.386 16.448 296.626 16.792 296.066 17.48C295.506 18.168 295.226 19.136 295.226 20.384C295.226 21.632 295.498 22.6 296.042 23.288C296.586 23.96 297.354 24.296 298.346 24.296C299.338 24.296 300.106 23.96 300.65 23.288C301.194 22.6 301.466 21.632 301.466 20.384C301.466 19.152 301.186 18.192 300.626 17.504C300.082 16.8 299.322 16.448 298.346 16.448ZM315.11 22.904C315.11 23.976 314.71 24.816 313.91 25.424C313.11 26.032 311.95 26.336 310.43 26.336C309.806 26.336 309.23 26.288 308.702 26.192C308.174 26.096 307.718 25.96 307.334 25.784C306.966 25.608 306.678 25.4 306.47 25.16C306.262 24.92 306.158 24.656 306.158 24.368C306.158 24.128 306.214 23.904 306.326 23.696C306.454 23.488 306.622 23.32 306.83 23.192C307.278 23.48 307.79 23.744 308.366 23.984C308.942 24.224 309.614 24.344 310.382 24.344C311.102 24.344 311.654 24.224 312.038 23.984C312.422 23.728 312.614 23.368 312.614 22.904C312.614 22.504 312.478 22.184 312.206 21.944C311.95 21.704 311.566 21.52 311.054 21.392L309.422 20.96C308.334 20.672 307.534 20.28 307.022 19.784C306.51 19.288 306.254 18.608 306.254 17.744C306.254 17.28 306.35 16.848 306.542 16.448C306.734 16.032 307.014 15.68 307.382 15.392C307.766 15.088 308.238 14.856 308.798 14.696C309.358 14.52 309.998 14.432 310.718 14.432C311.294 14.432 311.814 14.48 312.278 14.576C312.758 14.656 313.166 14.776 313.502 14.936C313.854 15.08 314.126 15.264 314.318 15.488C314.51 15.712 314.606 15.952 314.606 16.208C314.606 16.464 314.55 16.688 314.438 16.88C314.326 17.056 314.182 17.2 314.006 17.312C313.718 17.136 313.286 16.944 312.71 16.736C312.15 16.528 311.542 16.424 310.886 16.424C310.214 16.424 309.686 16.544 309.302 16.784C308.918 17.008 308.726 17.328 308.726 17.744C308.726 18.064 308.83 18.328 309.038 18.536C309.262 18.744 309.638 18.912 310.166 19.04L311.558 19.4C312.774 19.72 313.67 20.152 314.246 20.696C314.822 21.24 315.11 21.976 315.11 22.904ZM327.594 14.432C328.074 14.432 328.522 14.488 328.938 14.6C329.37 14.696 329.746 14.824 330.066 14.984V10.424C330.178 10.392 330.338 10.352 330.546 10.304C330.754 10.256 330.978 10.232 331.218 10.232C331.682 10.232 332.026 10.32 332.25 10.496C332.474 10.672 332.586 10.968 332.586 11.384V23.96C332.586 24.296 332.514 24.576 332.37 24.8C332.226 25.008 332.002 25.208 331.698 25.4C331.33 25.64 330.826 25.856 330.186 26.048C329.562 26.24 328.842 26.336 328.026 26.336C327.114 26.336 326.282 26.224 325.53 26C324.778 25.76 324.138 25.4 323.61 24.92C323.082 24.424 322.674 23.808 322.386 23.072C322.098 22.32 321.954 21.44 321.954 20.432C321.954 19.392 322.098 18.496 322.386 17.744C322.69 16.976 323.098 16.352 323.61 15.872C324.122 15.376 324.714 15.016 325.386 14.792C326.074 14.552 326.81 14.432 327.594 14.432ZM330.09 17.096C329.818 16.92 329.498 16.768 329.13 16.64C328.762 16.512 328.354 16.448 327.906 16.448C327.426 16.448 326.978 16.52 326.562 16.664C326.162 16.808 325.81 17.048 325.506 17.384C325.202 17.704 324.962 18.12 324.786 18.632C324.61 19.128 324.522 19.736 324.522 20.456C324.522 21.8 324.834 22.776 325.458 23.384C326.098 23.992 326.946 24.296 328.002 24.296C328.482 24.296 328.882 24.248 329.202 24.152C329.538 24.04 329.834 23.912 330.09 23.768V17.096ZM340.161 24.392C340.721 24.392 341.209 24.336 341.625 24.224C342.041 24.112 342.337 23.992 342.513 23.864V20.816L339.897 21.08C339.161 21.16 338.609 21.328 338.241 21.584C337.873 21.824 337.689 22.2 337.689 22.712C337.689 23.24 337.889 23.656 338.289 23.96C338.689 24.248 339.313 24.392 340.161 24.392ZM340.113 14.432C341.601 14.432 342.785 14.76 343.665 15.416C344.545 16.056 344.985 17.072 344.985 18.464V24.056C344.985 24.424 344.897 24.712 344.721 24.92C344.561 25.112 344.337 25.296 344.049 25.472C343.633 25.712 343.097 25.92 342.441 26.096C341.785 26.272 341.025 26.36 340.161 26.36C338.609 26.36 337.393 26.056 336.513 25.448C335.649 24.84 335.217 23.944 335.217 22.76C335.217 21.704 335.553 20.896 336.225 20.336C336.913 19.776 337.897 19.432 339.177 19.304L342.513 18.968V18.44C342.513 17.736 342.281 17.224 341.817 16.904C341.369 16.584 340.737 16.424 339.921 16.424C339.281 16.424 338.665 16.512 338.073 16.688C337.481 16.864 336.953 17.064 336.489 17.288C336.329 17.16 336.193 17.008 336.081 16.832C335.969 16.64 335.913 16.432 335.913 16.208C335.913 15.936 335.977 15.712 336.105 15.536C336.249 15.36 336.465 15.208 336.753 15.08C337.201 14.856 337.713 14.696 338.289 14.6C338.865 14.488 339.473 14.432 340.113 14.432ZM354.536 26.144C354.072 26.144 353.728 26.056 353.504 25.88C353.28 25.704 353.168 25.408 353.168 24.992V10.424C353.28 10.392 353.44 10.352 353.648 10.304C353.856 10.256 354.08 10.232 354.32 10.232C354.784 10.232 355.128 10.32 355.352 10.496C355.576 10.672 355.688 10.968 355.688 11.384V25.952C355.56 26 355.392 26.04 355.184 26.072C354.992 26.12 354.776 26.144 354.536 26.144ZM361.78 25.952C361.668 26 361.508 26.04 361.3 26.072C361.108 26.12 360.884 26.144 360.628 26.144C360.164 26.144 359.82 26.056 359.596 25.88C359.372 25.704 359.26 25.408 359.26 24.992V14.84C359.388 14.808 359.548 14.768 359.74 14.72C359.948 14.672 360.18 14.648 360.436 14.648C360.9 14.648 361.236 14.736 361.444 14.912C361.668 15.088 361.78 15.392 361.78 15.824V25.952ZM358.996 11.312C358.996 10.896 359.14 10.552 359.428 10.28C359.716 9.992 360.084 9.848 360.532 9.848C360.98 9.848 361.34 9.992 361.612 10.28C361.884 10.552 362.02 10.896 362.02 11.312C362.02 11.728 361.884 12.08 361.612 12.368C361.34 12.64 360.98 12.776 360.532 12.776C360.084 12.776 359.716 12.64 359.428 12.368C359.14 12.08 358.996 11.728 358.996 11.312ZM372.795 18.728C372.795 17.944 372.571 17.368 372.123 17C371.691 16.632 371.099 16.448 370.347 16.448C369.787 16.448 369.283 16.52 368.835 16.664C368.403 16.808 368.027 16.968 367.707 17.144V25.952C367.595 26 367.435 26.04 367.227 26.072C367.035 26.12 366.819 26.144 366.579 26.144C366.115 26.144 365.771 26.056 365.547 25.88C365.323 25.704 365.211 25.408 365.211 24.992V17.072C365.211 16.704 365.283 16.408 365.427 16.184C365.571 15.96 365.811 15.736 366.147 15.512C366.595 15.24 367.179 14.992 367.899 14.768C368.619 14.544 369.435 14.432 370.347 14.432C371.899 14.432 373.115 14.784 373.995 15.488C374.875 16.176 375.315 17.224 375.315 18.632V25.952C375.203 26 375.043 26.04 374.835 26.072C374.627 26.12 374.403 26.144 374.163 26.144C373.699 26.144 373.355 26.056 373.131 25.88C372.907 25.704 372.795 25.408 372.795 24.992V18.728ZM386.249 18.992C386.249 18.112 386.009 17.472 385.529 17.072C385.065 16.656 384.449 16.448 383.681 16.448C383.169 16.448 382.697 16.536 382.265 16.712C381.849 16.872 381.481 17.072 381.161 17.312V25.952C381.049 26 380.889 26.04 380.681 26.072C380.489 26.12 380.273 26.144 380.033 26.144C379.569 26.144 379.225 26.056 379.001 25.88C378.777 25.704 378.665 25.408 378.665 24.992V10.424C378.777 10.392 378.937 10.352 379.145 10.304C379.353 10.256 379.577 10.232 379.817 10.232C380.281 10.232 380.617 10.32 380.825 10.496C381.049 10.672 381.161 10.968 381.161 11.384V15.176C381.529 14.984 381.953 14.816 382.433 14.672C382.929 14.512 383.481 14.432 384.089 14.432C385.481 14.432 386.601 14.8 387.449 15.536C388.313 16.272 388.745 17.392 388.745 18.896V25.952C388.633 26 388.473 26.04 388.265 26.072C388.057 26.12 387.841 26.144 387.617 26.144C387.137 26.144 386.785 26.056 386.561 25.88C386.353 25.704 386.249 25.408 386.249 24.992V18.992ZM396.271 24.392C396.831 24.392 397.319 24.336 397.735 24.224C398.151 24.112 398.447 23.992 398.623 23.864V20.816L396.007 21.08C395.271 21.16 394.719 21.328 394.351 21.584C393.983 21.824 393.799 22.2 393.799 22.712C393.799 23.24 393.999 23.656 394.399 23.96C394.799 24.248 395.423 24.392 396.271 24.392ZM396.223 14.432C397.711 14.432 398.895 14.76 399.775 15.416C400.655 16.056 401.095 17.072 401.095 18.464V24.056C401.095 24.424 401.007 24.712 400.831 24.92C400.671 25.112 400.447 25.296 400.159 25.472C399.743 25.712 399.207 25.92 398.551 26.096C397.895 26.272 397.135 26.36 396.271 26.36C394.719 26.36 393.503 26.056 392.623 25.448C391.759 24.84 391.327 23.944 391.327 22.76C391.327 21.704 391.663 20.896 392.335 20.336C393.023 19.776 394.007 19.432 395.287 19.304L398.623 18.968V18.44C398.623 17.736 398.391 17.224 397.927 16.904C397.479 16.584 396.847 16.424 396.031 16.424C395.391 16.424 394.775 16.512 394.183 16.688C393.591 16.864 393.063 17.064 392.599 17.288C392.439 17.16 392.303 17.008 392.191 16.832C392.079 16.64 392.023 16.432 392.023 16.208C392.023 15.936 392.087 15.712 392.215 15.536C392.359 15.36 392.575 15.208 392.863 15.08C393.311 14.856 393.823 14.696 394.399 14.6C394.975 14.488 395.583 14.432 396.223 14.432ZM421.445 25.664C421.269 25.808 421.045 25.928 420.773 26.024C420.501 26.12 420.181 26.168 419.813 26.168C419.365 26.168 418.973 26.088 418.637 25.928C418.317 25.752 418.021 25.432 417.749 24.968L413.789 18.08C413.613 17.776 413.429 17.456 413.237 17.12C413.061 16.784 412.885 16.448 412.709 16.112C412.549 15.776 412.389 15.456 412.229 15.152C412.085 14.832 411.957 14.552 411.845 14.312L411.725 14.336C411.805 15.168 411.861 16.064 411.893 17.024C411.925 17.968 411.941 18.864 411.941 19.712V25.976C411.829 26.008 411.661 26.04 411.437 26.072C411.229 26.12 411.013 26.144 410.789 26.144C410.309 26.144 409.957 26.056 409.733 25.88C409.525 25.704 409.421 25.408 409.421 24.992V11.84C409.581 11.664 409.805 11.528 410.093 11.432C410.397 11.32 410.717 11.264 411.053 11.264C411.501 11.264 411.893 11.344 412.229 11.504C412.565 11.664 412.869 11.976 413.141 12.44L417.125 19.352C417.301 19.656 417.477 19.976 417.653 20.312C417.829 20.648 417.997 20.984 418.157 21.32C418.333 21.656 418.493 21.984 418.637 22.304C418.797 22.608 418.933 22.88 419.045 23.12L419.141 23.096C419.013 21.88 418.941 20.68 418.925 19.496C418.909 18.296 418.901 17.128 418.901 15.992V11.432C419.029 11.4 419.197 11.368 419.405 11.336C419.613 11.288 419.837 11.264 420.077 11.264C420.557 11.264 420.901 11.352 421.109 11.528C421.333 11.704 421.445 12 421.445 12.416V25.664ZM427.974 25.952C427.862 26 427.694 26.04 427.47 26.072C427.262 26.12 427.038 26.144 426.798 26.144C426.302 26.144 425.942 26.056 425.718 25.88C425.51 25.688 425.406 25.376 425.406 24.944V11.432C425.534 11.4 425.702 11.368 425.91 11.336C426.134 11.288 426.366 11.264 426.606 11.264C427.07 11.264 427.414 11.352 427.638 11.528C427.862 11.704 427.974 12.016 427.974 12.464V25.952ZM443.992 25.664C443.816 25.808 443.592 25.928 443.32 26.024C443.048 26.12 442.728 26.168 442.36 26.168C441.912 26.168 441.52 26.088 441.184 25.928C440.864 25.752 440.568 25.432 440.296 24.968L436.336 18.08C436.16 17.776 435.976 17.456 435.784 17.12C435.608 16.784 435.432 16.448 435.256 16.112C435.096 15.776 434.936 15.456 434.776 15.152C434.632 14.832 434.504 14.552 434.392 14.312L434.272 14.336C434.352 15.168 434.408 16.064 434.44 17.024C434.472 17.968 434.488 18.864 434.488 19.712V25.976C434.376 26.008 434.208 26.04 433.984 26.072C433.776 26.12 433.56 26.144 433.336 26.144C432.856 26.144 432.504 26.056 432.28 25.88C432.072 25.704 431.968 25.408 431.968 24.992V11.84C432.128 11.664 432.352 11.528 432.64 11.432C432.944 11.32 433.264 11.264 433.6 11.264C434.048 11.264 434.44 11.344 434.776 11.504C435.112 11.664 435.416 11.976 435.688 12.44L439.672 19.352C439.848 19.656 440.024 19.976 440.2 20.312C440.376 20.648 440.544 20.984 440.704 21.32C440.88 21.656 441.04 21.984 441.184 22.304C441.344 22.608 441.48 22.88 441.592 23.12L441.688 23.096C441.56 21.88 441.488 20.68 441.472 19.496C441.456 18.296 441.448 17.128 441.448 15.992V11.432C441.576 11.4 441.744 11.368 441.952 11.336C442.16 11.288 442.384 11.264 442.624 11.264C443.104 11.264 443.448 11.352 443.656 11.528C443.88 11.704 443.992 12 443.992 12.416V25.664ZM457.217 11.432C457.329 11.4 457.497 11.368 457.721 11.336C457.945 11.288 458.177 11.264 458.417 11.264C458.881 11.264 459.225 11.352 459.449 11.528C459.689 11.704 459.809 12.016 459.809 12.464V25.952C459.681 26 459.505 26.04 459.281 26.072C459.073 26.12 458.849 26.144 458.609 26.144C458.113 26.144 457.753 26.056 457.529 25.88C457.321 25.688 457.217 25.376 457.217 24.944V19.688H450.521V25.952C450.393 26 450.225 26.04 450.017 26.072C449.809 26.12 449.577 26.144 449.321 26.144C448.825 26.144 448.465 26.056 448.241 25.88C448.033 25.688 447.929 25.376 447.929 24.944V11.432C448.057 11.4 448.225 11.368 448.433 11.336C448.657 11.288 448.889 11.264 449.129 11.264C449.593 11.264 449.937 11.352 450.161 11.528C450.401 11.704 450.521 12.016 450.521 12.464V17.6H457.217V11.432ZM477.213 18.704C477.213 19.952 477.029 21.056 476.661 22.016C476.309 22.96 475.813 23.752 475.173 24.392C474.533 25.032 473.781 25.52 472.917 25.856C472.053 26.176 471.109 26.336 470.085 26.336C469.061 26.336 468.109 26.176 467.229 25.856C466.365 25.52 465.613 25.032 464.973 24.392C464.349 23.752 463.853 22.96 463.485 22.016C463.133 21.056 462.957 19.952 462.957 18.704C462.957 17.456 463.141 16.36 463.509 15.416C463.877 14.472 464.381 13.68 465.021 13.04C465.661 12.384 466.413 11.896 467.277 11.576C468.157 11.24 469.093 11.072 470.085 11.072C471.093 11.072 472.029 11.24 472.893 11.576C473.757 11.896 474.509 12.384 475.149 13.04C475.789 13.68 476.293 14.472 476.661 15.416C477.029 16.36 477.213 17.456 477.213 18.704ZM474.597 18.704C474.597 16.912 474.189 15.552 473.373 14.624C472.557 13.68 471.461 13.208 470.085 13.208C468.741 13.208 467.653 13.68 466.821 14.624C466.005 15.568 465.597 16.928 465.597 18.704C465.597 20.496 466.005 21.864 466.821 22.808C467.637 23.752 468.725 24.224 470.085 24.224C471.461 24.224 472.557 23.752 473.373 22.808C474.189 21.864 474.597 20.496 474.597 18.704ZM494.555 11.432C494.635 11.528 494.699 11.664 494.747 11.84C494.811 12.016 494.843 12.208 494.843 12.416C494.843 13.168 494.523 13.544 493.883 13.544H487.763V17.912H493.715C493.795 18.024 493.859 18.168 493.907 18.344C493.971 18.504 494.003 18.696 494.003 18.92C494.003 19.656 493.691 20.024 493.067 20.024H487.787V25.976C487.675 26.008 487.507 26.04 487.283 26.072C487.075 26.12 486.851 26.144 486.611 26.144C485.667 26.144 485.195 25.752 485.195 24.968V12.8C485.195 12.384 485.323 12.056 485.579 11.816C485.835 11.56 486.171 11.432 486.587 11.432H494.555ZM500.943 24.392C501.503 24.392 501.991 24.336 502.407 24.224C502.823 24.112 503.119 23.992 503.295 23.864V20.816L500.679 21.08C499.943 21.16 499.391 21.328 499.023 21.584C498.655 21.824 498.471 22.2 498.471 22.712C498.471 23.24 498.671 23.656 499.071 23.96C499.471 24.248 500.095 24.392 500.943 24.392ZM500.895 14.432C502.383 14.432 503.567 14.76 504.447 15.416C505.327 16.056 505.767 17.072 505.767 18.464V24.056C505.767 24.424 505.679 24.712 505.503 24.92C505.343 25.112 505.119 25.296 504.831 25.472C504.415 25.712 503.879 25.92 503.223 26.096C502.567 26.272 501.807 26.36 500.943 26.36C499.391 26.36 498.175 26.056 497.295 25.448C496.431 24.84 495.999 23.944 495.999 22.76C495.999 21.704 496.335 20.896 497.007 20.336C497.695 19.776 498.679 19.432 499.959 19.304L503.295 18.968V18.44C503.295 17.736 503.063 17.224 502.599 16.904C502.151 16.584 501.519 16.424 500.703 16.424C500.063 16.424 499.447 16.512 498.855 16.688C498.263 16.864 497.735 17.064 497.271 17.288C497.111 17.16 496.975 17.008 496.863 16.832C496.751 16.64 496.695 16.432 496.695 16.208C496.695 15.936 496.759 15.712 496.887 15.536C497.031 15.36 497.247 15.208 497.535 15.08C497.983 14.856 498.495 14.696 499.071 14.6C499.647 14.488 500.255 14.432 500.895 14.432ZM517.352 22.904C517.352 23.976 516.952 24.816 516.152 25.424C515.352 26.032 514.192 26.336 512.672 26.336C512.048 26.336 511.472 26.288 510.944 26.192C510.416 26.096 509.96 25.96 509.576 25.784C509.208 25.608 508.92 25.4 508.712 25.16C508.504 24.92 508.4 24.656 508.4 24.368C508.4 24.128 508.456 23.904 508.568 23.696C508.696 23.488 508.864 23.32 509.072 23.192C509.52 23.48 510.032 23.744 510.608 23.984C511.184 24.224 511.856 24.344 512.624 24.344C513.344 24.344 513.896 24.224 514.28 23.984C514.664 23.728 514.856 23.368 514.856 22.904C514.856 22.504 514.72 22.184 514.448 21.944C514.192 21.704 513.808 21.52 513.296 21.392L511.664 20.96C510.576 20.672 509.776 20.28 509.264 19.784C508.752 19.288 508.496 18.608 508.496 17.744C508.496 17.28 508.592 16.848 508.784 16.448C508.976 16.032 509.256 15.68 509.624 15.392C510.008 15.088 510.48 14.856 511.04 14.696C511.6 14.52 512.24 14.432 512.96 14.432C513.536 14.432 514.056 14.48 514.52 14.576C515 14.656 515.408 14.776 515.744 14.936C516.096 15.08 516.368 15.264 516.56 15.488C516.752 15.712 516.848 15.952 516.848 16.208C516.848 16.464 516.792 16.688 516.68 16.88C516.568 17.056 516.424 17.2 516.248 17.312C515.96 17.136 515.528 16.944 514.952 16.736C514.392 16.528 513.784 16.424 513.128 16.424C512.456 16.424 511.928 16.544 511.544 16.784C511.16 17.008 510.968 17.328 510.968 17.744C510.968 18.064 511.072 18.328 511.28 18.536C511.504 18.744 511.88 18.912 512.408 19.04L513.8 19.4C515.016 19.72 515.912 20.152 516.488 20.696C517.064 21.24 517.352 21.976 517.352 22.904ZM522.053 21.656C522.277 22.568 522.709 23.248 523.349 23.696C524.005 24.128 524.837 24.344 525.845 24.344C526.517 24.344 527.133 24.24 527.693 24.032C528.253 23.824 528.701 23.6 529.037 23.36C529.485 23.616 529.709 23.976 529.709 24.44C529.709 24.712 529.605 24.968 529.397 25.208C529.189 25.432 528.901 25.632 528.533 25.808C528.181 25.968 527.757 26.096 527.261 26.192C526.781 26.288 526.261 26.336 525.701 26.336C524.773 26.336 523.925 26.208 523.157 25.952C522.405 25.696 521.757 25.312 521.213 24.8C520.669 24.288 520.245 23.656 519.941 22.904C519.653 22.152 519.509 21.28 519.509 20.288C519.509 19.328 519.653 18.488 519.941 17.768C520.229 17.032 520.621 16.424 521.117 15.944C521.613 15.448 522.197 15.072 522.869 14.816C523.541 14.56 524.261 14.432 525.029 14.432C525.797 14.432 526.493 14.56 527.117 14.816C527.757 15.056 528.301 15.4 528.749 15.848C529.213 16.28 529.565 16.8 529.805 17.408C530.061 18.016 530.189 18.68 530.189 19.4C530.189 19.8 530.093 20.096 529.901 20.288C529.709 20.464 529.429 20.584 529.061 20.648L522.053 21.656ZM525.029 16.376C524.149 16.376 523.413 16.672 522.821 17.264C522.245 17.856 521.941 18.704 521.909 19.808L527.813 18.968C527.749 18.248 527.485 17.64 527.021 17.144C526.557 16.632 525.893 16.376 525.029 16.376ZM541.235 22.904C541.235 23.976 540.835 24.816 540.035 25.424C539.235 26.032 538.075 26.336 536.555 26.336C535.931 26.336 535.355 26.288 534.827 26.192C534.299 26.096 533.843 25.96 533.459 25.784C533.091 25.608 532.803 25.4 532.595 25.16C532.387 24.92 532.283 24.656 532.283 24.368C532.283 24.128 532.339 23.904 532.451 23.696C532.579 23.488 532.747 23.32 532.955 23.192C533.403 23.48 533.915 23.744 534.491 23.984C535.067 24.224 535.739 24.344 536.507 24.344C537.227 24.344 537.779 24.224 538.163 23.984C538.547 23.728 538.739 23.368 538.739 22.904C538.739 22.504 538.603 22.184 538.331 21.944C538.075 21.704 537.691 21.52 537.179 21.392L535.547 20.96C534.459 20.672 533.659 20.28 533.147 19.784C532.635 19.288 532.379 18.608 532.379 17.744C532.379 17.28 532.475 16.848 532.667 16.448C532.859 16.032 533.139 15.68 533.507 15.392C533.891 15.088 534.363 14.856 534.923 14.696C535.483 14.52 536.123 14.432 536.843 14.432C537.419 14.432 537.939 14.48 538.403 14.576C538.883 14.656 539.291 14.776 539.627 14.936C539.979 15.08 540.251 15.264 540.443 15.488C540.635 15.712 540.731 15.952 540.731 16.208C540.731 16.464 540.675 16.688 540.563 16.88C540.451 17.056 540.307 17.2 540.131 17.312C539.843 17.136 539.411 16.944 538.835 16.736C538.275 16.528 537.667 16.424 537.011 16.424C536.339 16.424 535.811 16.544 535.427 16.784C535.043 17.008 534.851 17.328 534.851 17.744C534.851 18.064 534.955 18.328 535.163 18.536C535.387 18.744 535.763 18.912 536.291 19.04L537.683 19.4C538.899 19.72 539.795 20.152 540.371 20.696C540.947 21.24 541.235 21.976 541.235 22.904Z" fill="white"/>
  <path d="M476.874 10.26C476.874 9.90667 476.938 9.57333 477.064 9.26C477.191 8.94667 477.368 8.67667 477.594 8.45C477.828 8.21667 478.104 8.03333 478.424 7.9C478.744 7.76667 479.101 7.7 479.494 7.7C479.881 7.7 480.234 7.76667 480.554 7.9C480.874 8.03333 481.151 8.21667 481.384 8.45C481.618 8.67667 481.798 8.94667 481.924 9.26C482.058 9.57333 482.124 9.90667 482.124 10.26C482.124 10.6133 482.058 10.9467 481.924 11.26C481.798 11.5667 481.618 11.8367 481.384 12.07C481.151 12.2967 480.874 12.4767 480.554 12.61C480.234 12.7433 479.881 12.81 479.494 12.81C479.101 12.81 478.744 12.7433 478.424 12.61C478.104 12.4767 477.828 12.2967 477.594 12.07C477.368 11.8367 477.191 11.5667 477.064 11.26C476.938 10.9467 476.874 10.6133 476.874 10.26ZM477.604 10.26C477.604 10.5333 477.648 10.7867 477.734 11.02C477.828 11.2533 477.954 11.4567 478.114 11.63C478.281 11.7967 478.481 11.93 478.714 12.03C478.948 12.1233 479.208 12.17 479.494 12.17C479.781 12.17 480.041 12.1233 480.274 12.03C480.508 11.93 480.704 11.7967 480.864 11.63C481.031 11.4567 481.158 11.2533 481.244 11.02C481.331 10.7867 481.374 10.5333 481.374 10.26C481.374 9.98 481.331 9.72333 481.244 9.49C481.158 9.25667 481.031 9.05333 480.864 8.88C480.704 8.70667 480.508 8.57333 480.274 8.48C480.041 8.38 479.781 8.33 479.494 8.33C479.208 8.33 478.948 8.38 478.714 8.48C478.481 8.57333 478.281 8.70667 478.114 8.88C477.954 9.05333 477.828 9.25667 477.734 9.49C477.648 9.72333 477.604 9.98 477.604 10.26ZM479.254 10.57V11.35C479.221 11.3567 479.174 11.3633 479.114 11.37C479.061 11.3767 478.998 11.38 478.924 11.38C478.831 11.38 478.754 11.3633 478.694 11.33C478.641 11.2967 478.614 11.22 478.614 11.1V9.24C478.614 9.15333 478.678 9.09 478.804 9.05C478.984 9.00333 479.191 8.98 479.424 8.98C479.764 8.98 480.024 9.05333 480.204 9.2C480.391 9.34 480.484 9.53667 480.484 9.79C480.484 9.96333 480.438 10.1067 480.344 10.22C480.258 10.3267 480.148 10.4067 480.014 10.46L480.554 11.15C480.534 11.2233 480.491 11.2833 480.424 11.33C480.358 11.37 480.284 11.39 480.204 11.39C480.111 11.39 480.034 11.37 479.974 11.33C479.914 11.2833 479.858 11.22 479.804 11.14L479.424 10.57H479.254ZM479.484 10.1C479.718 10.1 479.834 9.99333 479.834 9.78C479.834 9.58 479.704 9.48 479.444 9.48C479.411 9.48 479.378 9.48333 479.344 9.49C479.311 9.49 479.281 9.49 479.254 9.49V10.1H479.484Z" fill="white"/>
</svg>
