<svg width="270" height="48" viewBox="0 0 270 48" fill="none" xmlns="http://www.w3.org/2000/svg">
  <path d="M25.9543 35.24C23.9343 35.24 22.1743 34.8 20.6743 33.92C19.1943 33.04 18.0543 31.78 17.2543 30.14C16.4543 28.48 16.0543 26.53 16.0543 24.29C16.0543 22.05 16.4543 20.12 17.2543 18.5C18.0543 16.86 19.1943 15.6 20.6743 14.72C22.1743 13.84 23.9343 13.4 25.9543 13.4C27.4343 13.4 28.7843 13.63 30.0043 14.09C31.2443 14.53 32.3143 15.2 33.2143 16.1L32.2843 17.99C31.2643 17.11 30.2543 16.48 29.2543 16.1C28.2743 15.72 27.1843 15.53 25.9843 15.53C23.6443 15.53 21.8243 16.29 20.5243 17.81C19.2443 19.33 18.6043 21.49 18.6043 24.29C18.6043 27.11 19.2443 29.29 20.5243 30.83C21.8043 32.35 23.6243 33.11 25.9843 33.11C27.1843 33.11 28.2743 32.92 29.2543 32.54C30.2543 32.16 31.2643 31.53 32.2843 30.65L33.2143 32.54C32.3143 33.44 31.2443 34.12 30.0043 34.58C28.7843 35.02 27.4343 35.24 25.9543 35.24ZM37.0421 12.92H39.4721V35H37.0421V12.92ZM44.1906 19.91H46.6206V35H44.1906V19.91ZM46.9206 13.52V16.28H43.9506V13.52H46.9206ZM64.869 19.91C64.709 21.17 64.629 22.58 64.629 24.14V41.48H62.199V32.33C61.759 33.25 61.099 33.96 60.219 34.46C59.339 34.96 58.309 35.21 57.129 35.21C55.789 35.21 54.609 34.89 53.589 34.25C52.589 33.61 51.809 32.71 51.249 31.55C50.709 30.37 50.439 29 50.439 27.44C50.439 25.88 50.719 24.51 51.279 23.33C51.839 22.13 52.619 21.2 53.619 20.54C54.639 19.88 55.809 19.55 57.129 19.55C58.349 19.55 59.409 19.83 60.309 20.39C61.209 20.93 61.879 21.71 62.319 22.73L62.619 19.91H64.869ZM57.609 33.2C59.089 33.2 60.229 32.7 61.029 31.7C61.829 30.68 62.229 29.24 62.229 27.38C62.229 25.52 61.829 24.09 61.029 23.09C60.229 22.09 59.089 21.59 57.609 21.59C56.129 21.59 54.969 22.11 54.129 23.15C53.309 24.17 52.899 25.6 52.899 27.44C52.899 29.28 53.309 30.7 54.129 31.7C54.949 32.7 56.109 33.2 57.609 33.2ZM81.9573 19.91V35H79.5873V32.39C79.1073 33.31 78.4373 34.01 77.5773 34.49C76.7173 34.97 75.7473 35.21 74.6673 35.21C72.8873 35.21 71.5373 34.71 70.6173 33.71C69.6973 32.71 69.2373 31.23 69.2373 29.27V19.91H71.6673V29.21C71.6673 30.57 71.9473 31.57 72.5073 32.21C73.0673 32.85 73.9173 33.17 75.0573 33.17C76.3973 33.17 77.4773 32.74 78.2973 31.88C79.1173 31 79.5273 29.85 79.5273 28.43V19.91H81.9573ZM99.2718 27.38H88.2018C88.2218 29.3 88.6618 30.75 89.5218 31.73C90.4018 32.71 91.6718 33.2 93.3318 33.2C95.0918 33.2 96.7118 32.61 98.1918 31.43L99.0018 33.2C98.3418 33.82 97.4918 34.31 96.4518 34.67C95.4318 35.03 94.3818 35.21 93.3018 35.21C90.9418 35.21 89.0918 34.52 87.7518 33.14C86.4118 31.74 85.7418 29.83 85.7418 27.41C85.7418 25.87 86.0418 24.51 86.6418 23.33C87.2418 22.13 88.0818 21.2 89.1618 20.54C90.2418 19.88 91.4718 19.55 92.8518 19.55C94.8518 19.55 96.4218 20.21 97.5618 21.53C98.7018 22.83 99.2718 24.63 99.2718 26.93V27.38ZM92.8818 21.44C91.6218 21.44 90.5918 21.82 89.7918 22.58C89.0118 23.34 88.5118 24.41 88.2918 25.79H97.0818C96.9618 24.37 96.5418 23.29 95.8218 22.55C95.1218 21.81 94.1418 21.44 92.8818 21.44ZM123.412 27.38H112.342C112.362 29.3 112.802 30.75 113.662 31.73C114.542 32.71 115.812 33.2 117.472 33.2C119.232 33.2 120.852 32.61 122.332 31.43L123.142 33.2C122.482 33.82 121.632 34.31 120.592 34.67C119.572 35.03 118.522 35.21 117.442 35.21C115.082 35.21 113.232 34.52 111.892 33.14C110.552 31.74 109.882 29.83 109.882 27.41C109.882 25.87 110.182 24.51 110.782 23.33C111.382 22.13 112.222 21.2 113.302 20.54C114.382 19.88 115.612 19.55 116.992 19.55C118.992 19.55 120.562 20.21 121.702 21.53C122.842 22.83 123.412 24.63 123.412 26.93V27.38ZM117.022 21.44C115.762 21.44 114.732 21.82 113.932 22.58C113.152 23.34 112.652 24.41 112.432 25.79H121.222C121.102 24.37 120.682 23.29 119.962 22.55C119.262 21.81 118.282 21.44 117.022 21.44ZM141.253 35.21C139.793 35.21 138.513 34.89 137.413 34.25C136.333 33.61 135.493 32.71 134.893 31.55C134.313 30.37 134.023 29 134.023 27.44C134.023 25.88 134.323 24.51 134.923 23.33C135.523 22.13 136.373 21.2 137.473 20.54C138.593 19.88 139.893 19.55 141.373 19.55C142.393 19.55 143.373 19.73 144.313 20.09C145.273 20.43 146.063 20.91 146.683 21.53L145.873 23.33C145.113 22.73 144.373 22.29 143.653 22.01C142.953 21.73 142.233 21.59 141.493 21.59C139.953 21.59 138.743 22.11 137.863 23.15C136.983 24.17 136.543 25.6 136.543 27.44C136.543 29.26 136.973 30.68 137.833 31.7C138.713 32.7 139.933 33.2 141.493 33.2C142.233 33.2 142.953 33.06 143.653 32.78C144.373 32.5 145.113 32.06 145.873 31.46L146.683 33.26C146.043 33.86 145.233 34.34 144.253 34.7C143.293 35.04 142.293 35.21 141.253 35.21ZM156.017 35.21C154.597 35.21 153.347 34.89 152.267 34.25C151.187 33.61 150.347 32.7 149.747 31.52C149.167 30.34 148.877 28.96 148.877 27.38C148.877 25.8 149.167 24.42 149.747 23.24C150.347 22.06 151.187 21.15 152.267 20.51C153.347 19.87 154.597 19.55 156.017 19.55C157.437 19.55 158.687 19.87 159.767 20.51C160.847 21.15 161.677 22.06 162.257 23.24C162.857 24.42 163.157 25.8 163.157 27.38C163.157 28.96 162.857 30.34 162.257 31.52C161.677 32.7 160.847 33.61 159.767 34.25C158.687 34.89 157.437 35.21 156.017 35.21ZM156.017 33.2C157.517 33.2 158.667 32.71 159.467 31.73C160.267 30.73 160.667 29.28 160.667 27.38C160.667 25.54 160.257 24.12 159.437 23.12C158.617 22.1 157.477 21.59 156.017 21.59C154.537 21.59 153.387 22.1 152.567 23.12C151.747 24.12 151.337 25.54 151.337 27.38C151.337 29.28 151.737 30.73 152.537 31.73C153.357 32.71 154.517 33.2 156.017 33.2ZM174.474 19.55C178.094 19.55 179.904 21.54 179.904 25.52V35H177.474V25.64C177.474 24.24 177.194 23.22 176.634 22.58C176.074 21.92 175.194 21.59 173.994 21.59C172.594 21.59 171.474 22.02 170.634 22.88C169.794 23.74 169.374 24.9 169.374 26.36V35H166.944V24.14C166.944 22.58 166.864 21.17 166.704 19.91H169.014L169.254 22.61C169.714 21.63 170.404 20.88 171.324 20.36C172.244 19.82 173.294 19.55 174.474 19.55ZM192.023 19.55C195.643 19.55 197.453 21.54 197.453 25.52V35H195.023V25.64C195.023 24.24 194.743 23.22 194.183 22.58C193.623 21.92 192.743 21.59 191.543 21.59C190.143 21.59 189.023 22.02 188.183 22.88C187.343 23.74 186.923 24.9 186.923 26.36V35H184.493V12.92H186.923V22.37C187.403 21.45 188.083 20.75 188.963 20.27C189.863 19.79 190.883 19.55 192.023 19.55ZM214.672 27.38H203.602C203.622 29.3 204.062 30.75 204.922 31.73C205.802 32.71 207.072 33.2 208.732 33.2C210.492 33.2 212.112 32.61 213.592 31.43L214.402 33.2C213.742 33.82 212.892 34.31 211.852 34.67C210.832 35.03 209.782 35.21 208.702 35.21C206.342 35.21 204.492 34.52 203.152 33.14C201.812 31.74 201.142 29.83 201.142 27.41C201.142 25.87 201.442 24.51 202.042 23.33C202.642 22.13 203.482 21.2 204.562 20.54C205.642 19.88 206.872 19.55 208.252 19.55C210.252 19.55 211.822 20.21 212.962 21.53C214.102 22.83 214.672 24.63 214.672 26.93V27.38ZM208.282 21.44C207.022 21.44 205.992 21.82 205.192 22.58C204.412 23.34 203.912 24.41 203.692 25.79H212.482C212.362 24.37 211.942 23.29 211.222 22.55C210.522 21.81 209.542 21.44 208.282 21.44ZM230.121 33.26C229.521 33.82 228.771 34.28 227.871 34.64C226.991 34.98 226.071 35.17 225.111 35.21L224.991 36.29C225.311 36.25 225.551 36.23 225.711 36.23C226.351 36.23 226.891 36.41 227.331 36.77C227.791 37.13 228.021 37.65 228.021 38.33C228.021 39.07 227.711 39.67 227.091 40.13C226.471 40.61 225.611 40.85 224.511 40.85C224.091 40.85 223.631 40.8 223.131 40.7C222.631 40.6 222.201 40.46 221.841 40.28L222.231 38.96C222.951 39.24 223.711 39.38 224.511 39.38C225.051 39.38 225.461 39.29 225.741 39.11C226.041 38.93 226.191 38.67 226.191 38.33C226.191 38.07 226.101 37.87 225.921 37.73C225.741 37.59 225.481 37.52 225.141 37.52C224.681 37.52 224.221 37.61 223.761 37.79L223.161 37.31L223.401 35.12C221.561 34.86 220.111 34.05 219.051 32.69C217.991 31.31 217.461 29.56 217.461 27.44C217.461 25.88 217.761 24.51 218.361 23.33C218.961 22.13 219.811 21.2 220.911 20.54C222.031 19.88 223.331 19.55 224.811 19.55C225.831 19.55 226.811 19.73 227.751 20.09C228.711 20.43 229.501 20.91 230.121 21.53L229.311 23.33C228.551 22.73 227.811 22.29 227.091 22.01C226.391 21.73 225.671 21.59 224.931 21.59C223.391 21.59 222.181 22.11 221.301 23.15C220.421 24.17 219.981 25.6 219.981 27.44C219.981 29.26 220.411 30.68 221.271 31.7C222.151 32.7 223.371 33.2 224.931 33.2C225.671 33.2 226.391 33.06 227.091 32.78C227.811 32.5 228.551 32.06 229.311 31.46L230.121 33.26ZM246.504 19.91V35H244.104V32.27C243.664 33.21 242.994 33.94 242.094 34.46C241.214 34.96 240.184 35.21 239.004 35.21C237.664 35.21 236.484 34.89 235.464 34.25C234.464 33.61 233.684 32.71 233.124 31.55C232.584 30.37 232.314 29 232.314 27.44C232.314 25.88 232.594 24.51 233.154 23.33C233.714 22.13 234.494 21.2 235.494 20.54C236.514 19.88 237.684 19.55 239.004 19.55C240.184 19.55 241.214 19.81 242.094 20.33C242.974 20.85 243.644 21.58 244.104 22.52V19.91H246.504ZM239.484 33.2C240.964 33.2 242.104 32.7 242.904 31.7C243.704 30.68 244.104 29.24 244.104 27.38C244.104 25.52 243.704 24.09 242.904 23.09C242.104 22.09 240.964 21.59 239.484 21.59C238.004 21.59 236.844 22.11 236.004 23.15C235.184 24.17 234.774 25.6 234.774 27.44C234.774 29.28 235.184 30.7 236.004 31.7C236.824 32.7 237.984 33.2 239.484 33.2ZM250.812 13.64H253.842L253.062 29.39H251.562L250.812 13.64ZM253.872 31.91V35H250.782V31.91H253.872Z" fill="white"/>
  <rect x="1" y="1" width="268" height="46" rx="23" stroke="white" stroke-width="2"/>
</svg>
