<svg width="519" height="115" viewBox="0 0 519 115" fill="none" xmlns="http://www.w3.org/2000/svg">
  <path fill-rule="evenodd" clip-rule="evenodd" d="M0 115H465.5C495.047 115 519 91.0472 519 61.5V53.5C519 23.9528 495.047 0 465.5 0H0V115Z" fill="#131E32"/>
  <path d="M104.346 35.9805V46H100.971V20.4062H110.41C113.211 20.4062 115.402 21.1211 116.984 22.5508C118.578 23.9805 119.375 25.873 119.375 28.2285C119.375 30.7129 118.596 32.6289 117.037 33.9766C115.49 35.3125 113.27 35.9805 110.375 35.9805H104.346ZM104.346 33.2207H110.41C112.215 33.2207 113.598 32.7988 114.559 31.9551C115.52 31.0996 116 29.8691 116 28.2637C116 26.7402 115.52 25.5215 114.559 24.6074C113.598 23.6934 112.279 23.2188 110.604 23.1836H104.346V33.2207ZM134.703 46C134.516 45.625 134.363 44.957 134.246 43.9961C132.734 45.5664 130.93 46.3516 128.832 46.3516C126.957 46.3516 125.416 45.8242 124.209 44.7695C123.014 43.7031 122.416 42.3555 122.416 40.7266C122.416 38.7461 123.166 37.2109 124.666 36.1211C126.178 35.0195 128.299 34.4688 131.029 34.4688H134.193V32.9746C134.193 31.8379 133.854 30.9355 133.174 30.2676C132.494 29.5879 131.492 29.248 130.168 29.248C129.008 29.248 128.035 29.541 127.25 30.127C126.465 30.7129 126.072 31.4219 126.072 32.2539H122.803C122.803 31.3047 123.137 30.3906 123.805 29.5117C124.484 28.6211 125.398 27.918 126.547 27.4023C127.707 26.8867 128.979 26.6289 130.361 26.6289C132.553 26.6289 134.27 27.1797 135.512 28.2812C136.754 29.3711 137.398 30.877 137.445 32.7988V41.5527C137.445 43.2988 137.668 44.6875 138.113 45.7188V46H134.703ZM129.307 43.5215C130.326 43.5215 131.293 43.2578 132.207 42.7305C133.121 42.2031 133.783 41.5176 134.193 40.6738V36.7715H131.645C127.66 36.7715 125.668 37.9375 125.668 40.2695C125.668 41.2891 126.008 42.0859 126.688 42.6602C127.367 43.2344 128.24 43.5215 129.307 43.5215ZM151.736 29.8984C151.244 29.8164 150.711 29.7754 150.137 29.7754C148.004 29.7754 146.557 30.6836 145.795 32.5V46H142.543V26.9805H145.707L145.76 29.1777C146.826 27.4785 148.338 26.6289 150.295 26.6289C150.928 26.6289 151.408 26.7109 151.736 26.875V29.8984ZM165.781 46C165.594 45.625 165.441 44.957 165.324 43.9961C163.812 45.5664 162.008 46.3516 159.91 46.3516C158.035 46.3516 156.494 45.8242 155.287 44.7695C154.092 43.7031 153.494 42.3555 153.494 40.7266C153.494 38.7461 154.244 37.2109 155.744 36.1211C157.256 35.0195 159.377 34.4688 162.107 34.4688H165.271V32.9746C165.271 31.8379 164.932 30.9355 164.252 30.2676C163.572 29.5879 162.57 29.248 161.246 29.248C160.086 29.248 159.113 29.541 158.328 30.127C157.543 30.7129 157.15 31.4219 157.15 32.2539H153.881C153.881 31.3047 154.215 30.3906 154.883 29.5117C155.562 28.6211 156.477 27.918 157.625 27.4023C158.785 26.8867 160.057 26.6289 161.439 26.6289C163.631 26.6289 165.348 27.1797 166.59 28.2812C167.832 29.3711 168.477 30.877 168.523 32.7988V41.5527C168.523 43.2988 168.746 44.6875 169.191 45.7188V46H165.781ZM160.385 43.5215C161.404 43.5215 162.371 43.2578 163.285 42.7305C164.199 42.2031 164.861 41.5176 165.271 40.6738V36.7715H162.723C158.738 36.7715 156.746 37.9375 156.746 40.2695C156.746 41.2891 157.086 42.0859 157.766 42.6602C158.445 43.2344 159.318 43.5215 160.385 43.5215Z" fill="white"/>
  <path d="M100.285 94V68.4062H108.16C110.41 68.4062 112.42 68.916 114.189 69.9355C115.971 70.9434 117.359 72.3848 118.355 74.2598C119.352 76.123 119.85 78.2441 119.85 80.623V81.8008C119.85 84.1797 119.357 86.2949 118.373 88.1465C117.4 89.998 116.023 91.4336 114.242 92.4531C112.461 93.4727 110.451 93.9883 108.213 94H100.285ZM105.559 72.6777V89.7637H108.107C110.17 89.7637 111.746 89.0898 112.836 87.7422C113.926 86.3945 114.482 84.4668 114.506 81.959V80.6055C114.506 78.0039 113.967 76.0352 112.889 74.6992C111.811 73.3516 110.234 72.6777 108.16 72.6777H105.559ZM144.723 81.7832C144.723 84.3027 144.277 86.5117 143.387 88.4102C142.496 90.3086 141.219 91.7734 139.555 92.8047C137.902 93.8359 136.004 94.3516 133.859 94.3516C131.738 94.3516 129.846 93.8418 128.182 92.8223C126.518 91.8027 125.229 90.3496 124.314 88.4629C123.4 86.5645 122.938 84.3848 122.926 81.9238V80.6582C122.926 78.1387 123.377 75.9238 124.279 74.0137C125.193 72.0918 126.477 70.6211 128.129 69.6016C129.793 68.5703 131.691 68.0547 133.824 68.0547C135.957 68.0547 137.85 68.5703 139.502 69.6016C141.166 70.6211 142.449 72.0918 143.352 74.0137C144.266 75.9238 144.723 78.1328 144.723 80.6406V81.7832ZM139.379 80.623C139.379 77.9395 138.898 75.9004 137.938 74.5059C136.977 73.1113 135.605 72.4141 133.824 72.4141C132.055 72.4141 130.689 73.1055 129.729 74.4883C128.768 75.8594 128.281 77.875 128.27 80.5352V81.7832C128.27 84.3965 128.75 86.4238 129.711 87.8652C130.672 89.3066 132.055 90.0273 133.859 90.0273C135.629 90.0273 136.988 89.3359 137.938 87.9531C138.887 86.5586 139.367 84.5312 139.379 81.8711V80.623ZM158.029 84.6309H153.828V94H148.555V68.4062H158.064C161.088 68.4062 163.42 69.0801 165.061 70.4277C166.701 71.7754 167.521 73.6797 167.521 76.1406C167.521 77.8867 167.141 79.3457 166.379 80.5176C165.629 81.6777 164.486 82.6035 162.951 83.2949L168.488 93.7539V94H162.828L158.029 84.6309ZM153.828 80.3594H158.082C159.406 80.3594 160.432 80.0254 161.158 79.3574C161.885 78.6777 162.248 77.7461 162.248 76.5625C162.248 75.3555 161.902 74.4062 161.211 73.7148C160.531 73.0234 159.482 72.6777 158.064 72.6777H153.828V80.3594ZM186.945 82.9082H176.82V89.7637H188.703V94H171.547V68.4062H188.668V72.6777H176.82V78.7773H186.945V82.9082ZM205.068 87.2852C205.068 86.2891 204.717 85.5273 204.014 85C203.311 84.4609 202.045 83.8984 200.217 83.3125C198.389 82.7148 196.941 82.1289 195.875 81.5547C192.969 79.9844 191.516 77.8691 191.516 75.209C191.516 73.8262 191.902 72.5957 192.676 71.5176C193.461 70.4277 194.58 69.5781 196.033 68.9688C197.498 68.3594 199.139 68.0547 200.955 68.0547C202.783 68.0547 204.412 68.3887 205.842 69.0566C207.271 69.7129 208.379 70.6445 209.164 71.8516C209.961 73.0586 210.359 74.4297 210.359 75.9648H205.086C205.086 74.793 204.717 73.8848 203.979 73.2402C203.24 72.584 202.203 72.2559 200.867 72.2559C199.578 72.2559 198.576 72.5312 197.861 73.082C197.146 73.6211 196.789 74.3359 196.789 75.2266C196.789 76.0586 197.205 76.7559 198.037 77.3184C198.881 77.8809 200.117 78.4082 201.746 78.9004C204.746 79.8027 206.932 80.9219 208.303 82.2578C209.674 83.5938 210.359 85.2578 210.359 87.25C210.359 89.4648 209.521 91.2051 207.846 92.4707C206.17 93.7246 203.914 94.3516 201.078 94.3516C199.109 94.3516 197.316 93.9941 195.699 93.2793C194.082 92.5527 192.846 91.5625 191.99 90.3086C191.146 89.0547 190.725 87.6016 190.725 85.9492H196.016C196.016 88.7734 197.703 90.1855 201.078 90.1855C202.332 90.1855 203.311 89.9336 204.014 89.4297C204.717 88.9141 205.068 88.1992 205.068 87.2852ZM229.801 68.4062L236.375 86.9688L242.914 68.4062H249.84V94H244.549V87.0039L245.076 74.9277L238.168 94H234.547L227.656 74.9453L228.184 87.0039V94H222.91V68.4062H229.801ZM273.816 68.4062V85.2637C273.816 88.0645 272.938 90.2793 271.18 91.9082C269.434 93.5371 267.043 94.3516 264.008 94.3516C261.02 94.3516 258.646 93.5605 256.889 91.9785C255.131 90.3965 254.234 88.2227 254.199 85.457V68.4062H259.473V85.2988C259.473 86.9746 259.871 88.1992 260.668 88.9727C261.477 89.7344 262.59 90.1152 264.008 90.1152C266.973 90.1152 268.479 88.5566 268.525 85.4395V68.4062H273.816ZM291.412 87.2852C291.412 86.2891 291.061 85.5273 290.357 85C289.654 84.4609 288.389 83.8984 286.561 83.3125C284.732 82.7148 283.285 82.1289 282.219 81.5547C279.312 79.9844 277.859 77.8691 277.859 75.209C277.859 73.8262 278.246 72.5957 279.02 71.5176C279.805 70.4277 280.924 69.5781 282.377 68.9688C283.842 68.3594 285.482 68.0547 287.299 68.0547C289.127 68.0547 290.756 68.3887 292.186 69.0566C293.615 69.7129 294.723 70.6445 295.508 71.8516C296.305 73.0586 296.703 74.4297 296.703 75.9648H291.43C291.43 74.793 291.061 73.8848 290.322 73.2402C289.584 72.584 288.547 72.2559 287.211 72.2559C285.922 72.2559 284.92 72.5312 284.205 73.082C283.49 73.6211 283.133 74.3359 283.133 75.2266C283.133 76.0586 283.549 76.7559 284.381 77.3184C285.225 77.8809 286.461 78.4082 288.09 78.9004C291.09 79.8027 293.275 80.9219 294.646 82.2578C296.018 83.5938 296.703 85.2578 296.703 87.25C296.703 89.4648 295.865 91.2051 294.189 92.4707C292.514 93.7246 290.258 94.3516 287.422 94.3516C285.453 94.3516 283.66 93.9941 282.043 93.2793C280.426 92.5527 279.189 91.5625 278.334 90.3086C277.49 89.0547 277.068 87.6016 277.068 85.9492H282.359C282.359 88.7734 284.047 90.1855 287.422 90.1855C288.676 90.1855 289.654 89.9336 290.357 89.4297C291.061 88.9141 291.412 88.1992 291.412 87.2852ZM320.381 85.4746C320.182 88.2285 319.162 90.3965 317.322 91.9785C315.494 93.5605 313.08 94.3516 310.08 94.3516C306.799 94.3516 304.215 93.25 302.328 91.0469C300.453 88.832 299.516 85.7969 299.516 81.9414V80.377C299.516 77.916 299.949 75.748 300.816 73.873C301.684 71.998 302.92 70.5625 304.525 69.5664C306.143 68.5586 308.018 68.0547 310.15 68.0547C313.104 68.0547 315.482 68.8457 317.287 70.4277C319.092 72.0098 320.135 74.2305 320.416 77.0898H315.143C315.014 75.4375 314.551 74.2422 313.754 73.5039C312.969 72.7539 311.768 72.3789 310.15 72.3789C308.393 72.3789 307.074 73.0117 306.195 74.2773C305.328 75.5312 304.883 77.4824 304.859 80.1309V82.0645C304.859 84.8301 305.275 86.8516 306.107 88.1289C306.951 89.4062 308.275 90.0449 310.08 90.0449C311.709 90.0449 312.922 89.6758 313.719 88.9375C314.527 88.1875 314.99 87.0332 315.107 85.4746H320.381ZM343.215 68.4062V85.2637C343.215 88.0645 342.336 90.2793 340.578 91.9082C338.832 93.5371 336.441 94.3516 333.406 94.3516C330.418 94.3516 328.045 93.5605 326.287 91.9785C324.529 90.3965 323.633 88.2227 323.598 85.457V68.4062H328.871V85.2988C328.871 86.9746 329.27 88.1992 330.066 88.9727C330.875 89.7344 331.988 90.1152 333.406 90.1152C336.371 90.1152 337.877 88.5566 337.924 85.4395V68.4062H343.215ZM352.812 89.7637H364.01V94H347.539V68.4062H352.812V89.7637ZM381.852 88.7266H372.605L370.848 94H365.24L374.768 68.4062H379.654L389.234 94H383.627L381.852 88.7266ZM374.029 84.4551H380.428L377.211 74.875L374.029 84.4551ZM401.1 84.6309H396.898V94H391.625V68.4062H401.135C404.158 68.4062 406.49 69.0801 408.131 70.4277C409.771 71.7754 410.592 73.6797 410.592 76.1406C410.592 77.8867 410.211 79.3457 409.449 80.5176C408.699 81.6777 407.557 82.6035 406.021 83.2949L411.559 93.7539V94H405.898L401.1 84.6309ZM396.898 80.3594H401.152C402.477 80.3594 403.502 80.0254 404.229 79.3574C404.955 78.6777 405.318 77.7461 405.318 76.5625C405.318 75.3555 404.973 74.4062 404.281 73.7148C403.602 73.0234 402.553 72.6777 401.135 72.6777H396.898V80.3594ZM430.016 82.9082H419.891V89.7637H431.773V94H414.617V68.4062H431.738V72.6777H419.891V78.7773H430.016V82.9082ZM448.139 87.2852C448.139 86.2891 447.787 85.5273 447.084 85C446.381 84.4609 445.115 83.8984 443.287 83.3125C441.459 82.7148 440.012 82.1289 438.945 81.5547C436.039 79.9844 434.586 77.8691 434.586 75.209C434.586 73.8262 434.973 72.5957 435.746 71.5176C436.531 70.4277 437.65 69.5781 439.104 68.9688C440.568 68.3594 442.209 68.0547 444.025 68.0547C445.854 68.0547 447.482 68.3887 448.912 69.0566C450.342 69.7129 451.449 70.6445 452.234 71.8516C453.031 73.0586 453.43 74.4297 453.43 75.9648H448.156C448.156 74.793 447.787 73.8848 447.049 73.2402C446.311 72.584 445.273 72.2559 443.938 72.2559C442.648 72.2559 441.646 72.5312 440.932 73.082C440.217 73.6211 439.859 74.3359 439.859 75.2266C439.859 76.0586 440.275 76.7559 441.107 77.3184C441.951 77.8809 443.188 78.4082 444.816 78.9004C447.816 79.8027 450.002 80.9219 451.373 82.2578C452.744 83.5938 453.43 85.2578 453.43 87.25C453.43 89.4648 452.592 91.2051 450.916 92.4707C449.24 93.7246 446.984 94.3516 444.148 94.3516C442.18 94.3516 440.387 93.9941 438.77 93.2793C437.152 92.5527 435.916 91.5625 435.061 90.3086C434.217 89.0547 433.795 87.6016 433.795 85.9492H439.086C439.086 88.7734 440.773 90.1855 444.148 90.1855C445.402 90.1855 446.381 89.9336 447.084 89.4297C447.787 88.9141 448.139 88.1992 448.139 87.2852Z" fill="white"/>
</svg>
