<svg width="393" height="115" viewBox="0 0 393 115" fill="none" xmlns="http://www.w3.org/2000/svg">
  <path fill-rule="evenodd" clip-rule="evenodd" d="M393 -3.05176e-05L53.5 -6.01976e-05C23.9528 -6.27807e-05 7.9596e-06 23.9527 5.3765e-06 53.4999L4.67712e-06 61.4999C2.09402e-06 91.0472 23.9528 115 53.5 115L393 115L393 -3.05176e-05Z" fill="#E11F1C"/>
  <path d="M65.3457 34.9805V45H61.9707V19.4062H71.4102C74.2109 19.4062 76.4023 20.1211 77.9844 21.5508C79.5781 22.9805 80.375 24.873 80.375 27.2285C80.375 29.7129 79.5957 31.6289 78.0371 32.9766C76.4902 34.3125 74.2695 34.9805 71.375 34.9805H65.3457ZM65.3457 32.2207H71.4102C73.2148 32.2207 74.5977 31.7988 75.5586 30.9551C76.5195 30.0996 77 28.8691 77 27.2637C77 25.7402 76.5195 24.5215 75.5586 23.6074C74.5977 22.6934 73.2793 22.2188 71.6035 22.1836H65.3457V32.2207ZM95.7031 45C95.5156 44.625 95.3633 43.957 95.2461 42.9961C93.7344 44.5664 91.9297 45.3516 89.832 45.3516C87.957 45.3516 86.416 44.8242 85.209 43.7695C84.0137 42.7031 83.416 41.3555 83.416 39.7266C83.416 37.7461 84.166 36.2109 85.666 35.1211C87.1777 34.0195 89.2988 33.4688 92.0293 33.4688H95.1934V31.9746C95.1934 30.8379 94.8535 29.9355 94.1738 29.2676C93.4941 28.5879 92.4922 28.248 91.168 28.248C90.0078 28.248 89.0352 28.541 88.25 29.127C87.4648 29.7129 87.0723 30.4219 87.0723 31.2539H83.8027C83.8027 30.3047 84.1367 29.3906 84.8047 28.5117C85.4844 27.6211 86.3984 26.918 87.5469 26.4023C88.707 25.8867 89.9785 25.6289 91.3613 25.6289C93.5527 25.6289 95.2695 26.1797 96.5117 27.2812C97.7539 28.3711 98.3984 29.877 98.4453 31.7988V40.5527C98.4453 42.2988 98.668 43.6875 99.1133 44.7188V45H95.7031ZM90.3066 42.5215C91.3262 42.5215 92.293 42.2578 93.207 41.7305C94.1211 41.2031 94.7832 40.5176 95.1934 39.6738V35.7715H92.6445C88.6602 35.7715 86.668 36.9375 86.668 39.2695C86.668 40.2891 87.0078 41.0859 87.6875 41.6602C88.3672 42.2344 89.2402 42.5215 90.3066 42.5215ZM112.736 28.8984C112.244 28.8164 111.711 28.7754 111.137 28.7754C109.004 28.7754 107.557 29.6836 106.795 31.5V45H103.543V25.9805H106.707L106.76 28.1777C107.826 26.4785 109.338 25.6289 111.295 25.6289C111.928 25.6289 112.408 25.7109 112.736 25.875V28.8984ZM126.781 45C126.594 44.625 126.441 43.957 126.324 42.9961C124.812 44.5664 123.008 45.3516 120.91 45.3516C119.035 45.3516 117.494 44.8242 116.287 43.7695C115.092 42.7031 114.494 41.3555 114.494 39.7266C114.494 37.7461 115.244 36.2109 116.744 35.1211C118.256 34.0195 120.377 33.4688 123.107 33.4688H126.271V31.9746C126.271 30.8379 125.932 29.9355 125.252 29.2676C124.572 28.5879 123.57 28.248 122.246 28.248C121.086 28.248 120.113 28.541 119.328 29.127C118.543 29.7129 118.15 30.4219 118.15 31.2539H114.881C114.881 30.3047 115.215 29.3906 115.883 28.5117C116.562 27.6211 117.477 26.918 118.625 26.4023C119.785 25.8867 121.057 25.6289 122.439 25.6289C124.631 25.6289 126.348 26.1797 127.59 27.2812C128.832 28.3711 129.477 29.877 129.523 31.7988V40.5527C129.523 42.2988 129.746 43.6875 130.191 44.7188V45H126.781ZM121.385 42.5215C122.404 42.5215 123.371 42.2578 124.285 41.7305C125.199 41.2031 125.861 40.5176 126.271 39.6738V35.7715H123.723C119.738 35.7715 117.746 36.9375 117.746 39.2695C117.746 40.2891 118.086 41.0859 118.766 41.6602C119.445 42.2344 120.318 42.5215 121.385 42.5215Z" fill="white"/>
  <path d="M76.6836 81.9082H66.5586V88.7637H78.4414V93H61.2852V67.4062H78.4062V71.6777H66.5586V77.7773H76.6836V81.9082ZM85.877 73.9805L86.0352 76.1777C87.3945 74.4785 89.2168 73.6289 91.502 73.6289C93.5176 73.6289 95.0176 74.2207 96.002 75.4043C96.9863 76.5879 97.4902 78.3574 97.5137 80.7129V93H92.4336V80.8359C92.4336 79.7578 92.1992 78.9785 91.7305 78.498C91.2617 78.0059 90.4824 77.7598 89.3926 77.7598C87.9629 77.7598 86.8906 78.3691 86.1758 79.5879V93H81.0957V73.9805H85.877ZM108.623 79.6582L111.822 73.9805H117.254L111.84 83.2969L117.482 93H112.033L108.641 87.0234L105.266 93H99.7988L105.441 83.2969L100.045 73.9805H105.494L108.623 79.6582ZM130.719 93C130.484 92.543 130.314 91.9746 130.209 91.2949C128.979 92.666 127.379 93.3516 125.41 93.3516C123.547 93.3516 122 92.8125 120.77 91.7344C119.551 90.6562 118.941 89.2969 118.941 87.6562C118.941 85.6406 119.686 84.0938 121.174 83.0156C122.674 81.9375 124.836 81.3926 127.66 81.3809H129.998V80.291C129.998 79.4121 129.77 78.709 129.312 78.1816C128.867 77.6543 128.158 77.3906 127.186 77.3906C126.33 77.3906 125.656 77.5957 125.164 78.0059C124.684 78.416 124.443 78.9785 124.443 79.6934H119.363C119.363 78.5918 119.703 77.5723 120.383 76.6348C121.062 75.6973 122.023 74.9648 123.266 74.4375C124.508 73.8984 125.902 73.6289 127.449 73.6289C129.793 73.6289 131.65 74.2207 133.021 75.4043C134.404 76.5762 135.096 78.2285 135.096 80.3613V88.6055C135.107 90.4102 135.359 91.7754 135.852 92.7012V93H130.719ZM126.518 89.4668C127.268 89.4668 127.959 89.3027 128.592 88.9746C129.225 88.6348 129.693 88.1836 129.998 87.6211V84.3516H128.1C125.557 84.3516 124.203 85.2305 124.039 86.9883L124.021 87.2871C124.021 87.9199 124.244 88.4414 124.689 88.8516C125.135 89.2617 125.744 89.4668 126.518 89.4668ZM138.207 83.3145C138.207 80.3262 138.869 77.9648 140.193 76.2305C141.529 74.4961 143.357 73.6289 145.678 73.6289C147.717 73.6289 149.34 74.4082 150.547 75.9668L150.881 73.9805H155.346V100.312H150.248V91.3652C149.076 92.6895 147.541 93.3516 145.643 93.3516C143.381 93.3516 141.576 92.4727 140.229 90.7148C138.881 88.957 138.207 86.4902 138.207 83.3145ZM143.287 83.6836C143.287 85.5 143.604 86.8828 144.236 87.832C144.881 88.7812 145.783 89.2559 146.943 89.2559C148.502 89.2559 149.604 88.6348 150.248 87.3926V79.5352C149.615 78.3398 148.525 77.7422 146.979 77.7422C145.807 77.7422 144.898 78.2168 144.254 79.166C143.609 80.1152 143.287 81.6211 143.287 83.6836ZM170.744 91.0664C169.49 92.5898 167.756 93.3516 165.541 93.3516C163.502 93.3516 161.943 92.7656 160.865 91.5938C159.799 90.4219 159.254 88.7051 159.23 86.4434V73.9805H164.311V86.2676C164.311 88.248 165.213 89.2383 167.018 89.2383C168.74 89.2383 169.924 88.6406 170.568 87.4453V73.9805H175.666V93H170.885L170.744 91.0664ZM188.252 93.3516C185.463 93.3516 183.189 92.4961 181.432 90.7852C179.686 89.0742 178.812 86.7949 178.812 83.9473V83.4551C178.812 81.5449 179.182 79.8398 179.92 78.3398C180.658 76.8281 181.701 75.668 183.049 74.8594C184.408 74.0391 185.955 73.6289 187.689 73.6289C190.291 73.6289 192.336 74.4492 193.824 76.0898C195.324 77.7305 196.074 80.0566 196.074 83.0684V85.1426H183.963C184.127 86.3848 184.619 87.3809 185.439 88.1309C186.271 88.8809 187.32 89.2559 188.586 89.2559C190.543 89.2559 192.072 88.5469 193.174 87.1289L195.67 89.9238C194.908 91.002 193.877 91.8457 192.576 92.4551C191.275 93.0527 189.834 93.3516 188.252 93.3516ZM187.672 77.7422C186.664 77.7422 185.844 78.082 185.211 78.7617C184.59 79.4414 184.191 80.4141 184.016 81.6797H191.082V81.2754C191.059 80.1504 190.754 79.2832 190.168 78.6738C189.582 78.0527 188.75 77.7422 187.672 77.7422ZM206.885 89.2559C207.822 89.2559 208.584 88.998 209.17 88.4824C209.756 87.9668 210.061 87.2812 210.084 86.4258H214.848C214.836 87.7148 214.484 88.8984 213.793 89.9766C213.102 91.043 212.152 91.875 210.945 92.4727C209.75 93.0586 208.426 93.3516 206.973 93.3516C204.254 93.3516 202.109 92.4902 200.539 90.7676C198.969 89.0332 198.184 86.6426 198.184 83.5957V83.2617C198.184 80.332 198.963 77.9941 200.521 76.248C202.08 74.502 204.219 73.6289 206.938 73.6289C209.316 73.6289 211.221 74.3086 212.65 75.668C214.092 77.0156 214.824 78.8145 214.848 81.0645H210.084C210.061 80.0801 209.756 79.2832 209.17 78.6738C208.584 78.0527 207.811 77.7422 206.85 77.7422C205.666 77.7422 204.77 78.1758 204.16 79.043C203.562 79.8984 203.264 81.293 203.264 83.2266V83.7539C203.264 85.7109 203.562 87.1172 204.16 87.9727C204.758 88.8281 205.666 89.2559 206.885 89.2559ZM228.77 93C228.535 92.543 228.365 91.9746 228.26 91.2949C227.029 92.666 225.43 93.3516 223.461 93.3516C221.598 93.3516 220.051 92.8125 218.82 91.7344C217.602 90.6562 216.992 89.2969 216.992 87.6562C216.992 85.6406 217.736 84.0938 219.225 83.0156C220.725 81.9375 222.887 81.3926 225.711 81.3809H228.049V80.291C228.049 79.4121 227.82 78.709 227.363 78.1816C226.918 77.6543 226.209 77.3906 225.236 77.3906C224.381 77.3906 223.707 77.5957 223.215 78.0059C222.734 78.416 222.494 78.9785 222.494 79.6934H217.414C217.414 78.5918 217.754 77.5723 218.434 76.6348C219.113 75.6973 220.074 74.9648 221.316 74.4375C222.559 73.8984 223.953 73.6289 225.5 73.6289C227.844 73.6289 229.701 74.2207 231.072 75.4043C232.455 76.5762 233.146 78.2285 233.146 80.3613V88.6055C233.158 90.4102 233.41 91.7754 233.902 92.7012V93H228.77ZM224.568 89.4668C225.318 89.4668 226.01 89.3027 226.643 88.9746C227.275 88.6348 227.744 88.1836 228.049 87.6211V84.3516H226.15C223.607 84.3516 222.254 85.2305 222.09 86.9883L222.072 87.2871C222.072 87.9199 222.295 88.4414 222.74 88.8516C223.186 89.2617 223.795 89.4668 224.568 89.4668Z" fill="white"/>
</svg>
