<svg width="336" height="83" viewBox="0 0 336 83" fill="none" xmlns="http://www.w3.org/2000/svg">
  <path d="M27.8713 3.52V32H23.3113V14.32L15.7513 32H12.3513L4.75125 14.52V32H0.19125V3.52H4.27125L14.0713 25.8L23.7913 3.52H27.8713ZM53.0556 11.8V32H48.1356V28.76C47.5223 29.88 46.6423 30.76 45.4956 31.4C44.349 32.0133 43.0423 32.32 41.5756 32.32C39.8156 32.32 38.2556 31.8933 36.8956 31.04C35.5356 30.1867 34.4823 28.9733 33.7356 27.4C32.989 25.8267 32.6156 24 32.6156 21.92C32.6156 19.84 32.989 18 33.7356 16.4C34.509 14.7733 35.5756 13.52 36.9356 12.64C38.2956 11.7333 39.8423 11.28 41.5756 11.28C43.0423 11.28 44.349 11.6 45.4956 12.24C46.6423 12.8533 47.5223 13.72 48.1356 14.84V11.8H53.0556ZM42.9356 28.4C44.589 28.4 45.869 27.8267 46.7756 26.68C47.6823 25.5333 48.1356 23.92 48.1356 21.84C48.1356 19.7067 47.6823 18.0667 46.7756 16.92C45.869 15.7733 44.5756 15.2 42.8956 15.2C41.2423 15.2 39.949 15.8 39.0156 17C38.109 18.1733 37.6556 19.8133 37.6556 21.92C37.6556 24 38.109 25.6 39.0156 26.72C39.949 27.84 41.2556 28.4 42.9356 28.4ZM41.7356 9.2L45.7356 0.959999H50.8556L44.9756 9.2H41.7356ZM78.1413 32H72.1813L66.7413 25.16L61.3013 32H55.3812L63.8613 21.6L55.9013 11.8H61.8213L66.7413 18.08L71.6613 11.8H77.6213L69.6613 21.6L78.1413 32ZM80.4544 11.8H85.4144V32H80.4544V11.8ZM85.6944 2.64V7.56H80.1344V2.64H85.6944ZM114.724 11.28C117.017 11.28 118.724 11.9733 119.844 13.36C120.964 14.72 121.524 16.8 121.524 19.6V32H116.524V19.76C116.524 18.16 116.257 17.0133 115.724 16.32C115.217 15.6 114.364 15.24 113.164 15.24C111.777 15.24 110.684 15.7333 109.884 16.72C109.111 17.68 108.724 19.0133 108.724 20.72V32H103.724V19.76C103.724 18.1867 103.444 17.04 102.884 16.32C102.351 15.6 101.497 15.24 100.324 15.24C98.9374 15.24 97.8441 15.7333 97.0441 16.72C96.2441 17.68 95.8441 19.0133 95.8441 20.72V32H90.8841V17.52C90.8841 15.3867 90.7774 13.48 90.5641 11.8H95.2441L95.6041 15C96.1907 13.8 97.0307 12.88 98.1241 12.24C99.2441 11.6 100.524 11.28 101.964 11.28C105.057 11.28 107.071 12.56 108.004 15.12C108.644 13.92 109.551 12.9867 110.724 12.32C111.924 11.6267 113.257 11.28 114.724 11.28ZM146.181 11.8V32H141.261V28.76C140.647 29.88 139.767 30.76 138.621 31.4C137.474 32.0133 136.167 32.32 134.701 32.32C132.941 32.32 131.381 31.8933 130.021 31.04C128.661 30.1867 127.607 28.9733 126.861 27.4C126.114 25.8267 125.741 24 125.741 21.92C125.741 19.84 126.114 18 126.861 16.4C127.634 14.7733 128.701 13.52 130.061 12.64C131.421 11.7333 132.967 11.28 134.701 11.28C136.167 11.28 137.474 11.6 138.621 12.24C139.767 12.8533 140.647 13.72 141.261 14.84V11.8H146.181ZM136.061 28.4C137.714 28.4 138.994 27.8267 139.901 26.68C140.807 25.5333 141.261 23.92 141.261 21.84C141.261 19.7067 140.807 18.0667 139.901 16.92C138.994 15.7733 137.701 15.2 136.021 15.2C134.367 15.2 133.074 15.8 132.141 17C131.234 18.1733 130.781 19.8133 130.781 21.92C130.781 24 131.234 25.6 132.141 26.72C133.074 27.84 134.381 28.4 136.061 28.4ZM181.923 11.8V32H177.003V28.76C176.389 29.88 175.509 30.76 174.363 31.4C173.216 32.0133 171.909 32.32 170.443 32.32C168.683 32.32 167.123 31.8933 165.763 31.04C164.403 30.1867 163.349 28.9733 162.603 27.4C161.856 25.8267 161.483 24 161.483 21.92C161.483 19.84 161.856 18 162.603 16.4C163.376 14.7733 164.443 13.52 165.803 12.64C167.163 11.7333 168.709 11.28 170.443 11.28C171.909 11.28 173.216 11.6 174.363 12.24C175.509 12.8533 176.389 13.72 177.003 14.84V11.8H181.923ZM171.803 28.4C173.456 28.4 174.736 27.8267 175.643 26.68C176.549 25.5333 177.003 23.92 177.003 21.84C177.003 19.7067 176.549 18.0667 175.643 16.92C174.736 15.7733 173.443 15.2 171.763 15.2C170.109 15.2 168.816 15.8 167.883 17C166.976 18.1733 166.523 19.8133 166.523 21.92C166.523 24 166.976 25.6 167.883 26.72C168.816 27.84 170.123 28.4 171.803 28.4ZM198.888 11.28C200.648 11.28 202.195 11.72 203.528 12.6C204.888 13.4533 205.942 14.6667 206.688 16.24C207.435 17.8133 207.808 19.64 207.808 21.72C207.808 23.8 207.422 25.6533 206.648 27.28C205.902 28.88 204.848 30.12 203.488 31C202.155 31.88 200.622 32.32 198.888 32.32C197.395 32.32 196.062 32 194.888 31.36C193.742 30.72 192.875 29.8267 192.288 28.68V32H187.368V2.56H192.328V14.84C192.942 13.72 193.822 12.8533 194.968 12.24C196.115 11.6 197.422 11.28 198.888 11.28ZM197.568 28.4C199.222 28.4 200.502 27.8133 201.408 26.64C202.315 25.4667 202.768 23.8267 202.768 21.72C202.768 19.64 202.315 18.04 201.408 16.92C200.502 15.7733 199.208 15.2 197.528 15.2C195.848 15.2 194.555 15.7733 193.648 16.92C192.742 18.0667 192.288 19.6933 192.288 21.8C192.288 23.9333 192.742 25.5733 193.648 26.72C194.555 27.84 195.862 28.4 197.568 28.4ZM219.573 32.32C215.92 32.32 213.013 31.4667 210.853 29.76L212.253 26.24C214.413 27.84 216.88 28.64 219.653 28.64C220.853 28.64 221.773 28.44 222.413 28.04C223.08 27.64 223.413 27.08 223.413 26.36C223.413 25.7467 223.186 25.2667 222.733 24.92C222.28 24.5467 221.506 24.2267 220.413 23.96L217.053 23.2C213.373 22.4 211.533 20.52 211.533 17.56C211.533 16.3333 211.88 15.2533 212.573 14.32C213.266 13.36 214.24 12.6133 215.493 12.08C216.746 11.5467 218.2 11.28 219.853 11.28C221.293 11.28 222.68 11.5067 224.013 11.96C225.346 12.3867 226.52 13.0133 227.533 13.84L226.053 17.24C224.026 15.7467 221.946 15 219.813 15C218.666 15 217.773 15.2133 217.133 15.64C216.493 16.0667 216.173 16.6533 216.173 17.4C216.173 17.9867 216.36 18.4533 216.733 18.8C217.133 19.1467 217.8 19.44 218.733 19.68L222.173 20.44C224.173 20.8933 225.626 21.6 226.533 22.56C227.466 23.4933 227.933 24.72 227.933 26.24C227.933 28.1067 227.186 29.5867 225.693 30.68C224.2 31.7733 222.16 32.32 219.573 32.32ZM241.372 32.32C239.319 32.32 237.506 31.8933 235.932 31.04C234.386 30.1867 233.186 28.9733 232.332 27.4C231.506 25.8 231.092 23.9333 231.092 21.8C231.092 19.6667 231.506 17.8133 232.332 16.24C233.186 14.64 234.386 13.4133 235.932 12.56C237.506 11.7067 239.319 11.28 241.372 11.28C243.399 11.28 245.186 11.7067 246.732 12.56C248.279 13.4133 249.466 14.64 250.292 16.24C251.146 17.8133 251.572 19.6667 251.572 21.8C251.572 23.9333 251.146 25.8 250.292 27.4C249.466 28.9733 248.279 30.1867 246.732 31.04C245.186 31.8933 243.399 32.32 241.372 32.32ZM241.332 28.4C243.039 28.4 244.332 27.8533 245.212 26.76C246.119 25.64 246.572 23.9867 246.572 21.8C246.572 19.64 246.119 18 245.212 16.88C244.306 15.7333 243.026 15.16 241.372 15.16C239.692 15.16 238.399 15.7333 237.492 16.88C236.586 18 236.132 19.64 236.132 21.8C236.132 23.9867 236.572 25.64 237.452 26.76C238.359 27.8533 239.652 28.4 241.332 28.4ZM266.764 11.32C267.537 11.32 268.204 11.4267 268.764 11.64L268.724 16.2C267.871 15.8533 266.991 15.68 266.084 15.68C264.377 15.68 263.071 16.1733 262.164 17.16C261.284 18.1467 260.844 19.4533 260.844 21.08V32H255.884V17.52C255.884 15.3867 255.777 13.48 255.564 11.8H260.244L260.644 15.36C261.151 14.0533 261.951 13.0533 263.044 12.36C264.137 11.6667 265.377 11.32 266.764 11.32ZM287.918 29.76C287.144 30.5067 286.144 31.1067 284.918 31.56C283.718 31.9867 282.438 32.2267 281.078 32.28L280.918 33.64C281.078 33.6133 281.304 33.6 281.598 33.6C282.558 33.6 283.331 33.84 283.918 34.32C284.531 34.8267 284.838 35.52 284.838 36.4C284.838 37.44 284.384 38.28 283.478 38.92C282.571 39.56 281.304 39.88 279.678 39.88C279.091 39.88 278.451 39.8133 277.758 39.68C277.091 39.5733 276.504 39.4 275.998 39.16L276.478 37.04C277.624 37.4133 278.664 37.6 279.598 37.6C280.931 37.6 281.598 37.2 281.598 36.4C281.598 35.8133 281.144 35.52 280.238 35.52C279.864 35.52 279.331 35.6133 278.638 35.8L277.878 35.04L278.198 32.16C275.638 31.76 273.638 30.6533 272.198 28.84C270.758 27.0267 270.038 24.72 270.038 21.92C270.038 19.8133 270.464 17.96 271.318 16.36C272.198 14.76 273.424 13.52 274.998 12.64C276.598 11.7333 278.438 11.28 280.518 11.28C281.958 11.28 283.344 11.5067 284.678 11.96C286.038 12.4133 287.118 13.04 287.918 13.84L286.518 17.36C285.664 16.6667 284.758 16.1467 283.798 15.8C282.838 15.4267 281.891 15.24 280.958 15.24C279.144 15.24 277.731 15.8133 276.718 16.96C275.704 18.08 275.198 19.7067 275.198 21.84C275.198 23.9733 275.691 25.6 276.678 26.72C277.691 27.84 279.118 28.4 280.958 28.4C281.891 28.4 282.838 28.2133 283.798 27.84C284.758 27.4667 285.664 26.9333 286.518 26.24L287.918 29.76ZM310.595 11.8V32H305.675V28.76C305.061 29.88 304.181 30.76 303.035 31.4C301.888 32.0133 300.581 32.32 299.115 32.32C297.355 32.32 295.795 31.8933 294.435 31.04C293.075 30.1867 292.021 28.9733 291.275 27.4C290.528 25.8267 290.155 24 290.155 21.92C290.155 19.84 290.528 18 291.275 16.4C292.048 14.7733 293.115 13.52 294.475 12.64C295.835 11.7333 297.381 11.28 299.115 11.28C300.581 11.28 301.888 11.6 303.035 12.24C304.181 12.8533 305.061 13.72 305.675 14.84V11.8H310.595ZM300.475 28.4C302.128 28.4 303.408 27.8267 304.315 26.68C305.221 25.5333 305.675 23.92 305.675 21.84C305.675 19.7067 305.221 18.0667 304.315 16.92C303.408 15.7733 302.115 15.2 300.435 15.2C298.781 15.2 297.488 15.8 296.555 17C295.648 18.1733 295.195 19.8133 295.195 21.92C295.195 24 295.648 25.6 296.555 26.72C297.488 27.84 298.795 28.4 300.475 28.4ZM294.075 7.68C294.075 5.92 294.448 4.58667 295.195 3.68C295.941 2.74667 296.928 2.28 298.155 2.28C298.661 2.28 299.141 2.38667 299.595 2.6C300.075 2.78667 300.661 3.09333 301.355 3.52C301.888 3.84 302.328 4.08 302.675 4.24C303.021 4.4 303.341 4.48 303.635 4.48C304.168 4.48 304.581 4.29333 304.875 3.92C305.195 3.52 305.381 3.01333 305.435 2.4H307.715C307.715 4.16 307.341 5.50667 306.595 6.44C305.848 7.34667 304.861 7.8 303.635 7.8C303.128 7.8 302.648 7.70667 302.195 7.52C301.768 7.33333 301.181 7.02667 300.435 6.6C299.448 5.96 298.688 5.64 298.155 5.64C297.621 5.64 297.195 5.82667 296.875 6.2C296.581 6.57333 296.408 7.06667 296.355 7.68H294.075ZM325.2 32.32C323.147 32.32 321.334 31.8933 319.76 31.04C318.214 30.1867 317.014 28.9733 316.16 27.4C315.334 25.8 314.92 23.9333 314.92 21.8C314.92 19.6667 315.334 17.8133 316.16 16.24C317.014 14.64 318.214 13.4133 319.76 12.56C321.334 11.7067 323.147 11.28 325.2 11.28C327.227 11.28 329.014 11.7067 330.56 12.56C332.107 13.4133 333.294 14.64 334.12 16.24C334.974 17.8133 335.4 19.6667 335.4 21.8C335.4 23.9333 334.974 25.8 334.12 27.4C333.294 28.9733 332.107 30.1867 330.56 31.04C329.014 31.8933 327.227 32.32 325.2 32.32ZM325.16 28.4C326.867 28.4 328.16 27.8533 329.04 26.76C329.947 25.64 330.4 23.9867 330.4 21.8C330.4 19.64 329.947 18 329.04 16.88C328.134 15.7333 326.854 15.16 325.2 15.16C323.52 15.16 322.227 15.7333 321.32 16.88C320.414 18 319.96 19.64 319.96 21.8C319.96 23.9867 320.4 25.64 321.28 26.76C322.187 27.8533 323.48 28.4 325.16 28.4ZM62.5087 61.8V82H57.5888V78.76C56.9754 79.88 56.0954 80.76 54.9488 81.4C53.8021 82.0133 52.4954 82.32 51.0287 82.32C49.2688 82.32 47.7088 81.8933 46.3487 81.04C44.9888 80.1867 43.9354 78.9733 43.1888 77.4C42.4421 75.8267 42.0688 74 42.0688 71.92C42.0688 69.84 42.4421 68 43.1888 66.4C43.9621 64.7733 45.0288 63.52 46.3888 62.64C47.7488 61.7333 49.2954 61.28 51.0287 61.28C52.4954 61.28 53.8021 61.6 54.9488 62.24C56.0954 62.8533 56.9754 63.72 57.5888 64.84V61.8H62.5087ZM52.3888 78.4C54.0421 78.4 55.3221 77.8267 56.2288 76.68C57.1354 75.5333 57.5888 73.92 57.5888 71.84C57.5888 69.7067 57.1354 68.0667 56.2288 66.92C55.3221 65.7733 54.0288 65.2 52.3488 65.2C50.6954 65.2 49.4021 65.8 48.4688 67C47.5621 68.1733 47.1088 69.8133 47.1088 71.92C47.1088 74 47.5621 75.6 48.4688 76.72C49.4021 77.84 50.7088 78.4 52.3888 78.4ZM90.4909 61.28C95.3176 61.28 97.7309 64.0533 97.7309 69.6V82H92.7309V69.84C92.7309 68.24 92.4243 67.08 91.8109 66.36C91.1976 65.6133 90.2509 65.24 88.9709 65.24C87.4509 65.24 86.2243 65.7333 85.2909 66.72C84.3576 67.68 83.8909 68.96 83.8909 70.56V82H78.9309V67.52C78.9309 65.3867 78.8243 63.48 78.6109 61.8H83.2909L83.6509 65.12C84.3443 63.8933 85.2776 62.9467 86.4509 62.28C87.6509 61.6133 88.9976 61.28 90.4909 61.28ZM112.193 82.32C110.139 82.32 108.326 81.8933 106.753 81.04C105.206 80.1867 104.006 78.9733 103.153 77.4C102.326 75.8 101.913 73.9333 101.913 71.8C101.913 69.6667 102.326 67.8133 103.153 66.24C104.006 64.64 105.206 63.4133 106.753 62.56C108.326 61.7067 110.139 61.28 112.193 61.28C114.219 61.28 116.006 61.7067 117.553 62.56C119.099 63.4133 120.286 64.64 121.113 66.24C121.966 67.8133 122.393 69.6667 122.393 71.8C122.393 73.9333 121.966 75.8 121.113 77.4C120.286 78.9733 119.099 80.1867 117.553 81.04C116.006 81.8933 114.219 82.32 112.193 82.32ZM112.153 78.4C113.859 78.4 115.153 77.8533 116.033 76.76C116.939 75.64 117.393 73.9867 117.393 71.8C117.393 69.64 116.939 68 116.033 66.88C115.126 65.7333 113.846 65.16 112.193 65.16C110.513 65.16 109.219 65.7333 108.313 66.88C107.406 68 106.953 69.64 106.953 71.8C106.953 73.9867 107.393 75.64 108.273 76.76C109.179 77.8533 110.473 78.4 112.153 78.4ZM126.704 61.8H131.664V82H126.704V61.8ZM131.944 52.64V57.56H126.384V52.64H131.944ZM143.494 65.56V74.6C143.494 76.9733 144.601 78.16 146.814 78.16C147.427 78.16 148.094 78.0533 148.814 77.84V81.8C147.934 82.12 146.867 82.28 145.614 82.28C143.321 82.28 141.561 81.64 140.334 80.36C139.107 79.08 138.494 77.24 138.494 74.84V65.56H134.614V61.8H138.494V56.88L143.494 55.2V61.8H148.854V65.56H143.494ZM169.97 72.16H156.05C156.157 74.32 156.69 75.92 157.65 76.96C158.637 77.9733 160.09 78.48 162.01 78.48C164.224 78.48 166.277 77.76 168.17 76.32L169.61 79.76C168.65 80.5333 167.464 81.16 166.05 81.64C164.664 82.0933 163.25 82.32 161.81 82.32C158.504 82.32 155.904 81.3867 154.01 79.52C152.117 77.6533 151.17 75.0933 151.17 71.84C151.17 69.7867 151.584 67.96 152.41 66.36C153.237 64.76 154.397 63.52 155.89 62.64C157.384 61.7333 159.077 61.28 160.97 61.28C163.744 61.28 165.93 62.1867 167.53 64C169.157 65.7867 169.97 68.2533 169.97 71.4V72.16ZM161.09 64.88C159.757 64.88 158.664 65.28 157.81 66.08C156.984 66.8533 156.45 67.9867 156.21 69.48H165.61C165.45 67.96 164.984 66.8133 164.21 66.04C163.464 65.2667 162.424 64.88 161.09 64.88ZM185.181 61.8H190.141V82H185.181V61.8ZM190.421 52.64V57.56H184.861V52.64H190.421ZM207.171 61.28C211.997 61.28 214.411 64.0533 214.411 69.6V82H209.411V69.84C209.411 68.24 209.104 67.08 208.491 66.36C207.877 65.6133 206.931 65.24 205.651 65.24C204.131 65.24 202.904 65.7333 201.971 66.72C201.037 67.68 200.571 68.96 200.571 70.56V82H195.611V67.52C195.611 65.3867 195.504 63.48 195.291 61.8H199.971L200.331 65.12C201.024 63.8933 201.957 62.9467 203.131 62.28C204.331 61.6133 205.677 61.28 207.171 61.28ZM226.072 65.56V74.6C226.072 76.9733 227.179 78.16 229.392 78.16C230.006 78.16 230.672 78.0533 231.392 77.84V81.8C230.512 82.12 229.446 82.28 228.192 82.28C225.899 82.28 224.139 81.64 222.912 80.36C221.686 79.08 221.072 77.24 221.072 74.84V65.56H217.192V61.8H221.072V56.88L226.072 55.2V61.8H231.432V65.56H226.072ZM252.548 72.16H238.628C238.735 74.32 239.268 75.92 240.228 76.96C241.215 77.9733 242.668 78.48 244.588 78.48C246.802 78.48 248.855 77.76 250.748 76.32L252.188 79.76C251.228 80.5333 250.042 81.16 248.628 81.64C247.242 82.0933 245.828 82.32 244.388 82.32C241.082 82.32 238.482 81.3867 236.588 79.52C234.695 77.6533 233.748 75.0933 233.748 71.84C233.748 69.7867 234.162 67.96 234.988 66.36C235.815 64.76 236.975 63.52 238.468 62.64C239.962 61.7333 241.655 61.28 243.548 61.28C246.322 61.28 248.508 62.1867 250.108 64C251.735 65.7867 252.548 68.2533 252.548 71.4V72.16ZM243.668 64.88C242.335 64.88 241.242 65.28 240.388 66.08C239.562 66.8533 239.028 67.9867 238.788 69.48H248.188C248.028 67.96 247.562 66.8133 246.788 66.04C246.042 65.2667 245.002 64.88 243.668 64.88ZM256.783 61.8H261.743V82H256.783V61.8ZM262.023 52.64V57.56H256.463V52.64H262.023ZM278.092 61.32C278.866 61.32 279.532 61.4267 280.092 61.64L280.052 66.2C279.199 65.8533 278.319 65.68 277.412 65.68C275.706 65.68 274.399 66.1733 273.492 67.16C272.612 68.1467 272.172 69.4533 272.172 71.08V82H267.212V67.52C267.212 65.3867 267.106 63.48 266.892 61.8H271.572L271.972 65.36C272.479 64.0533 273.279 63.0533 274.372 62.36C275.466 61.6667 276.706 61.32 278.092 61.32ZM301.806 61.8V82H296.886V78.76C296.272 79.88 295.392 80.76 294.246 81.4C293.099 82.0133 291.792 82.32 290.326 82.32C288.566 82.32 287.006 81.8933 285.646 81.04C284.286 80.1867 283.232 78.9733 282.486 77.4C281.739 75.8267 281.366 74 281.366 71.92C281.366 69.84 281.739 68 282.486 66.4C283.259 64.7733 284.326 63.52 285.686 62.64C287.046 61.7333 288.592 61.28 290.326 61.28C291.792 61.28 293.099 61.6 294.246 62.24C295.392 62.8533 296.272 63.72 296.886 64.84V61.8H301.806ZM291.686 78.4C293.339 78.4 294.619 77.8267 295.526 76.68C296.432 75.5333 296.886 73.92 296.886 71.84C296.886 69.7067 296.432 68.0667 295.526 66.92C294.619 65.7733 293.326 65.2 291.646 65.2C289.992 65.2 288.699 65.8 287.766 67C286.859 68.1733 286.406 69.8133 286.406 71.92C286.406 74 286.859 75.6 287.766 76.72C288.699 77.84 290.006 78.4 291.686 78.4Z" fill="white"/>
</svg>
