<svg width="335" height="31" viewBox="0 0 335 31" fill="none" xmlns="http://www.w3.org/2000/svg">
  <path d="M24.984 29.328C24.632 29.616 24.184 29.856 23.64 30.048C23.096 30.24 22.456 30.336 21.72 30.336C20.824 30.336 20.04 30.176 19.368 29.856C18.728 29.504 18.136 28.864 17.592 27.936L9.672 14.16C9.32 13.552 8.952 12.912 8.568 12.24C8.216 11.568 7.864 10.896 7.512 10.224C7.192 9.552 6.872 8.912 6.552 8.304C6.264 7.664 6.008 7.104 5.784 6.624L5.544 6.672C5.704 8.336 5.816 10.128 5.88 12.048C5.944 13.936 5.976 15.728 5.976 17.424V29.952C5.752 30.016 5.416 30.08 4.968 30.144C4.552 30.24 4.12 30.288 3.672 30.288C2.712 30.288 2.008 30.112 1.56 29.76C1.144 29.408 0.936 28.816 0.936 27.984V1.68C1.256 1.328 1.704 1.056 2.28 0.863997C2.888 0.639998 3.528 0.527999 4.2 0.527999C5.096 0.527999 5.88 0.687999 6.552 1.008C7.224 1.328 7.832 1.952 8.376 2.88L16.344 16.704C16.696 17.312 17.048 17.952 17.4 18.624C17.752 19.296 18.088 19.968 18.408 20.64C18.76 21.312 19.08 21.968 19.368 22.608C19.688 23.216 19.96 23.76 20.184 24.24L20.376 24.192C20.12 21.76 19.976 19.36 19.944 16.992C19.912 14.592 19.896 12.256 19.896 9.984V0.863997C20.152 0.799998 20.488 0.735999 20.904 0.672C21.32 0.575999 21.768 0.527999 22.248 0.527999C23.208 0.527999 23.896 0.703999 24.312 1.056C24.76 1.408 24.984 2 24.984 2.832V29.328ZM38.0419 29.904C37.8179 30 37.4819 30.08 37.0339 30.144C36.6179 30.24 36.1699 30.288 35.6899 30.288C34.6979 30.288 33.9779 30.112 33.5299 29.76C33.1139 29.376 32.9059 28.752 32.9059 27.888V0.863997C33.1619 0.799998 33.4979 0.735999 33.9139 0.672C34.3619 0.575999 34.8259 0.527999 35.3059 0.527999C36.2339 0.527999 36.9219 0.703999 37.3699 1.056C37.8179 1.408 38.0419 2.032 38.0419 2.928V29.904ZM70.0778 29.328C69.7258 29.616 69.2778 29.856 68.7338 30.048C68.1898 30.24 67.5498 30.336 66.8138 30.336C65.9178 30.336 65.1338 30.176 64.4618 29.856C63.8218 29.504 63.2298 28.864 62.6858 27.936L54.7657 14.16C54.4138 13.552 54.0458 12.912 53.6618 12.24C53.3098 11.568 52.9578 10.896 52.6058 10.224C52.2858 9.552 51.9658 8.912 51.6458 8.304C51.3578 7.664 51.1018 7.104 50.8778 6.624L50.6378 6.672C50.7978 8.336 50.9098 10.128 50.9738 12.048C51.0378 13.936 51.0698 15.728 51.0698 17.424V29.952C50.8458 30.016 50.5098 30.08 50.0618 30.144C49.6458 30.24 49.2138 30.288 48.7658 30.288C47.8058 30.288 47.1018 30.112 46.6538 29.76C46.2378 29.408 46.0298 28.816 46.0298 27.984V1.68C46.3498 1.328 46.7978 1.056 47.3738 0.863997C47.9818 0.639998 48.6218 0.527999 49.2938 0.527999C50.1898 0.527999 50.9738 0.687999 51.6458 1.008C52.3178 1.328 52.9258 1.952 53.4698 2.88L61.4378 16.704C61.7898 17.312 62.1418 17.952 62.4938 18.624C62.8458 19.296 63.1818 19.968 63.5018 20.64C63.8538 21.312 64.1738 21.968 64.4618 22.608C64.7818 23.216 65.0538 23.76 65.2778 24.24L65.4698 24.192C65.2138 21.76 65.0698 19.36 65.0378 16.992C65.0058 14.592 64.9898 12.256 64.9898 9.984V0.863997C65.2458 0.799998 65.5818 0.735999 65.9978 0.672C66.4138 0.575999 66.8618 0.527999 67.3418 0.527999C68.3018 0.527999 68.9898 0.703999 69.4058 1.056C69.8538 1.408 70.0778 2 70.0778 2.832V29.328ZM96.5276 0.863997C96.7516 0.799998 97.0876 0.735999 97.5356 0.672C97.9836 0.575999 98.4476 0.527999 98.9276 0.527999C99.8556 0.527999 100.544 0.703999 100.992 1.056C101.472 1.408 101.712 2.032 101.712 2.928V29.904C101.456 30 101.104 30.08 100.656 30.144C100.24 30.24 99.7916 30.288 99.3116 30.288C98.3196 30.288 97.5996 30.112 97.1516 29.76C96.7356 29.376 96.5276 28.752 96.5276 27.888V17.376H83.1356V29.904C82.8796 30 82.5436 30.08 82.1276 30.144C81.7116 30.24 81.2476 30.288 80.7356 30.288C79.7436 30.288 79.0236 30.112 78.5756 29.76C78.1596 29.376 77.9516 28.752 77.9516 27.888V0.863997C78.2076 0.799998 78.5436 0.735999 78.9596 0.672C79.4076 0.575999 79.8716 0.527999 80.3516 0.527999C81.2796 0.527999 81.9676 0.703999 82.4156 1.056C82.8956 1.408 83.1356 2.032 83.1356 2.928V13.2H96.5276V0.863997ZM136.52 15.408C136.52 17.904 136.152 20.112 135.416 22.032C134.712 23.92 133.72 25.504 132.44 26.784C131.16 28.064 129.656 29.04 127.928 29.712C126.2 30.352 124.312 30.672 122.264 30.672C120.216 30.672 118.312 30.352 116.552 29.712C114.824 29.04 113.32 28.064 112.04 26.784C110.792 25.504 109.8 23.92 109.064 22.032C108.36 20.112 108.008 17.904 108.008 15.408C108.008 12.912 108.376 10.72 109.112 8.832C109.848 6.944 110.856 5.36 112.136 4.08C113.416 2.768 114.92 1.792 116.648 1.152C118.408 0.479999 120.28 0.143998 122.264 0.143998C124.28 0.143998 126.152 0.479999 127.88 1.152C129.608 1.792 131.112 2.768 132.392 4.08C133.672 5.36 134.68 6.944 135.416 8.832C136.152 10.72 136.52 12.912 136.52 15.408ZM131.288 15.408C131.288 11.824 130.472 9.104 128.84 7.248C127.208 5.36 125.016 4.416 122.264 4.416C119.576 4.416 117.4 5.36 115.736 7.248C114.104 9.136 113.288 11.856 113.288 15.408C113.288 18.992 114.104 21.728 115.736 23.616C117.368 25.504 119.544 26.448 122.264 26.448C125.016 26.448 127.208 25.504 128.84 23.616C130.472 21.728 131.288 18.992 131.288 15.408ZM180.812 0.863997C180.972 1.056 181.1 1.328 181.196 1.68C181.324 2.032 181.388 2.416 181.388 2.832C181.388 4.336 180.748 5.088 179.468 5.088H167.228V13.824H179.132C179.292 14.048 179.42 14.336 179.516 14.688C179.644 15.008 179.708 15.392 179.708 15.84C179.708 17.312 179.084 18.048 177.836 18.048H167.276V29.952C167.052 30.016 166.716 30.08 166.268 30.144C165.852 30.24 165.404 30.288 164.924 30.288C163.036 30.288 162.092 29.504 162.092 27.936V3.6C162.092 2.768 162.348 2.112 162.86 1.632C163.372 1.12 164.044 0.863997 164.876 0.863997H180.812ZM193.588 26.784C194.708 26.784 195.684 26.672 196.516 26.448C197.348 26.224 197.94 25.984 198.292 25.728V19.632L193.06 20.16C191.588 20.32 190.484 20.656 189.748 21.168C189.012 21.648 188.644 22.4 188.644 23.424C188.644 24.48 189.044 25.312 189.844 25.92C190.644 26.496 191.892 26.784 193.588 26.784ZM193.492 6.864C196.468 6.864 198.836 7.52 200.596 8.832C202.356 10.112 203.236 12.144 203.236 14.928V26.112C203.236 26.848 203.06 27.424 202.708 27.84C202.388 28.224 201.94 28.592 201.364 28.944C200.532 29.424 199.46 29.84 198.148 30.192C196.836 30.544 195.316 30.72 193.588 30.72C190.484 30.72 188.052 30.112 186.292 28.896C184.564 27.68 183.7 25.888 183.7 23.52C183.7 21.408 184.372 19.792 185.716 18.672C187.092 17.552 189.06 16.864 191.62 16.608L198.292 15.936V14.88C198.292 13.472 197.828 12.448 196.9 11.808C196.004 11.168 194.74 10.848 193.108 10.848C191.828 10.848 190.596 11.024 189.412 11.376C188.228 11.728 187.172 12.128 186.244 12.576C185.924 12.32 185.652 12.016 185.428 11.664C185.204 11.28 185.092 10.864 185.092 10.416C185.092 9.872 185.22 9.424 185.476 9.072C185.764 8.72 186.196 8.416 186.772 8.16C187.668 7.712 188.692 7.392 189.844 7.2C190.996 6.976 192.212 6.864 193.492 6.864ZM226.408 23.808C226.408 25.952 225.608 27.632 224.008 28.848C222.408 30.064 220.088 30.672 217.048 30.672C215.8 30.672 214.648 30.576 213.592 30.384C212.536 30.192 211.624 29.92 210.856 29.568C210.12 29.216 209.544 28.8 209.128 28.32C208.712 27.84 208.504 27.312 208.504 26.736C208.504 26.256 208.616 25.808 208.84 25.392C209.096 24.976 209.432 24.64 209.848 24.384C210.744 24.96 211.768 25.488 212.92 25.968C214.072 26.448 215.416 26.688 216.952 26.688C218.392 26.688 219.496 26.448 220.264 25.968C221.032 25.456 221.416 24.736 221.416 23.808C221.416 23.008 221.144 22.368 220.6 21.888C220.088 21.408 219.32 21.04 218.296 20.784L215.032 19.92C212.856 19.344 211.256 18.56 210.232 17.568C209.208 16.576 208.696 15.216 208.696 13.488C208.696 12.56 208.888 11.696 209.272 10.896C209.656 10.064 210.216 9.36 210.952 8.784C211.72 8.176 212.664 7.712 213.784 7.392C214.904 7.04 216.184 6.864 217.624 6.864C218.776 6.864 219.816 6.96 220.744 7.152C221.704 7.312 222.52 7.552 223.192 7.872C223.896 8.16 224.44 8.528 224.824 8.976C225.208 9.424 225.4 9.904 225.4 10.416C225.4 10.928 225.288 11.376 225.064 11.76C224.84 12.112 224.552 12.4 224.2 12.624C223.624 12.272 222.76 11.888 221.608 11.472C220.488 11.056 219.272 10.848 217.96 10.848C216.616 10.848 215.56 11.088 214.792 11.568C214.024 12.016 213.64 12.656 213.64 13.488C213.64 14.128 213.848 14.656 214.264 15.072C214.712 15.488 215.464 15.824 216.52 16.08L219.304 16.8C221.736 17.44 223.528 18.304 224.68 19.392C225.832 20.48 226.408 21.952 226.408 23.808ZM235.809 21.312C236.257 23.136 237.121 24.496 238.401 25.392C239.713 26.256 241.377 26.688 243.393 26.688C244.737 26.688 245.969 26.48 247.089 26.064C248.209 25.648 249.105 25.2 249.777 24.72C250.673 25.232 251.121 25.952 251.121 26.88C251.121 27.424 250.913 27.936 250.497 28.416C250.081 28.864 249.505 29.264 248.769 29.616C248.065 29.936 247.217 30.192 246.225 30.384C245.265 30.576 244.225 30.672 243.105 30.672C241.249 30.672 239.553 30.416 238.017 29.904C236.513 29.392 235.217 28.624 234.129 27.6C233.041 26.576 232.193 25.312 231.585 23.808C231.009 22.304 230.721 20.56 230.721 18.576C230.721 16.656 231.009 14.976 231.585 13.536C232.161 12.064 232.945 10.848 233.937 9.888C234.929 8.896 236.097 8.144 237.441 7.632C238.785 7.12 240.225 6.864 241.761 6.864C243.297 6.864 244.689 7.12 245.937 7.632C247.217 8.112 248.305 8.8 249.201 9.696C250.129 10.56 250.833 11.6 251.313 12.816C251.825 14.032 252.081 15.36 252.081 16.8C252.081 17.6 251.889 18.192 251.505 18.576C251.121 18.928 250.561 19.168 249.825 19.296L235.809 21.312ZM241.761 10.752C240.001 10.752 238.529 11.344 237.345 12.528C236.193 13.712 235.585 15.408 235.521 17.616L247.329 15.936C247.201 14.496 246.673 13.28 245.745 12.288C244.817 11.264 243.489 10.752 241.761 10.752ZM274.173 23.808C274.173 25.952 273.373 27.632 271.773 28.848C270.173 30.064 267.853 30.672 264.813 30.672C263.565 30.672 262.413 30.576 261.357 30.384C260.301 30.192 259.389 29.92 258.621 29.568C257.885 29.216 257.309 28.8 256.893 28.32C256.477 27.84 256.269 27.312 256.269 26.736C256.269 26.256 256.381 25.808 256.605 25.392C256.861 24.976 257.197 24.64 257.613 24.384C258.509 24.96 259.533 25.488 260.685 25.968C261.837 26.448 263.181 26.688 264.717 26.688C266.157 26.688 267.261 26.448 268.029 25.968C268.797 25.456 269.181 24.736 269.181 23.808C269.181 23.008 268.909 22.368 268.365 21.888C267.853 21.408 267.085 21.04 266.061 20.784L262.797 19.92C260.621 19.344 259.021 18.56 257.997 17.568C256.973 16.576 256.461 15.216 256.461 13.488C256.461 12.56 256.653 11.696 257.037 10.896C257.421 10.064 257.981 9.36 258.717 8.784C259.485 8.176 260.429 7.712 261.549 7.392C262.669 7.04 263.949 6.864 265.389 6.864C266.541 6.864 267.581 6.96 268.509 7.152C269.469 7.312 270.285 7.552 270.957 7.872C271.661 8.16 272.205 8.528 272.589 8.976C272.973 9.424 273.165 9.904 273.165 10.416C273.165 10.928 273.053 11.376 272.829 11.76C272.605 12.112 272.317 12.4 271.965 12.624C271.389 12.272 270.525 11.888 269.373 11.472C268.253 11.056 267.037 10.848 265.725 10.848C264.381 10.848 263.325 11.088 262.557 11.568C261.789 12.016 261.405 12.656 261.405 13.488C261.405 14.128 261.613 14.656 262.029 15.072C262.477 15.488 263.229 15.824 264.285 16.08L267.069 16.8C269.501 17.44 271.293 18.304 272.445 19.392C273.597 20.48 274.173 21.952 274.173 23.808ZM296.358 0.143998C299.59 0.143998 302.15 0.847999 304.038 2.256C305.926 3.632 306.87 5.632 306.87 8.256C306.87 9.184 306.726 10.016 306.438 10.752C306.15 11.456 305.782 12.08 305.334 12.624C304.886 13.136 304.39 13.568 303.846 13.92C303.334 14.272 302.838 14.512 302.358 14.64C302.998 14.864 303.638 15.168 304.278 15.552C304.918 15.936 305.478 16.432 305.958 17.04C306.47 17.648 306.886 18.352 307.206 19.152C307.526 19.952 307.686 20.864 307.686 21.888C307.686 23.296 307.414 24.544 306.87 25.632C306.326 26.72 305.558 27.632 304.566 28.368C303.574 29.104 302.39 29.648 301.014 30C299.638 30.384 298.134 30.576 296.502 30.576C295.094 30.576 293.814 30.464 292.662 30.24C291.51 30.016 290.518 29.728 289.686 29.376C288.886 28.992 288.262 28.56 287.814 28.08C287.398 27.568 287.19 27.04 287.19 26.496C287.19 25.92 287.334 25.44 287.622 25.056C287.91 24.64 288.278 24.304 288.726 24.048C289.494 24.624 290.454 25.168 291.606 25.68C292.79 26.192 294.326 26.448 296.214 26.448C298.198 26.448 299.766 26.048 300.918 25.248C302.07 24.416 302.646 23.2 302.646 21.6C302.646 20.16 302.118 19.024 301.062 18.192C300.038 17.328 298.47 16.896 296.358 16.896H292.23C292.07 16.672 291.926 16.384 291.798 16.032C291.702 15.648 291.654 15.248 291.654 14.832C291.654 14.384 291.702 13.984 291.798 13.632C291.926 13.28 292.07 12.992 292.23 12.768H296.118C298.166 12.768 299.622 12.4 300.486 11.664C301.382 10.896 301.83 9.856 301.83 8.544C301.83 7.2 301.318 6.16 300.294 5.424C299.27 4.688 297.83 4.32 295.974 4.32C294.47 4.32 293.158 4.528 292.038 4.944C290.95 5.36 290.038 5.824 289.302 6.336C288.918 6.112 288.582 5.808 288.294 5.424C288.006 5.04 287.862 4.576 287.862 4.032C287.862 3.488 288.07 2.992 288.486 2.544C288.934 2.064 289.526 1.648 290.262 1.296C291.03 0.943998 291.926 0.671999 292.95 0.48C294.006 0.255999 295.142 0.143998 296.358 0.143998ZM325.676 13.728H333.788C333.916 13.984 334.028 14.288 334.124 14.64C334.22 14.96 334.268 15.312 334.268 15.696C334.268 16.432 334.092 16.976 333.74 17.328C333.388 17.648 332.892 17.808 332.252 17.808H325.676V26.832C325.42 26.896 325.1 26.976 324.716 27.072C324.364 27.136 323.98 27.168 323.564 27.168C322.732 27.168 322.108 27.008 321.692 26.688C321.276 26.368 321.068 25.744 321.068 24.816V17.808H312.812C312.684 17.552 312.572 17.264 312.476 16.944C312.38 16.624 312.332 16.256 312.332 15.84C312.332 15.136 312.508 14.608 312.86 14.256C313.244 13.904 313.74 13.728 314.348 13.728H321.068V4.944C321.356 4.848 321.692 4.768 322.076 4.704C322.46 4.608 322.876 4.56 323.324 4.56C324.092 4.56 324.668 4.736 325.052 5.088C325.468 5.408 325.676 6.016 325.676 6.912V13.728Z" fill="#1A5632"/>
</svg>
