<svg width="280" height="22" viewBox="0 0 280 22" fill="none" xmlns="http://www.w3.org/2000/svg">
  <path d="M3.968 12.152V16.976C3.824 17.008 3.616 17.048 3.344 17.096C3.088 17.144 2.808 17.168 2.504 17.168C1.896 17.168 1.464 17.056 1.208 16.832C0.968 16.608 0.848 16.232 0.848 15.704V3.656C0.848 3.352 0.928 3.12 1.088 2.96C1.248 2.8 1.472 2.672 1.76 2.576C2.016 2.496 2.296 2.424 2.6 2.36C2.92 2.296 3.248 2.248 3.584 2.216C3.92 2.168 4.256 2.136 4.592 2.12C4.928 2.104 5.248 2.096 5.552 2.096C7.664 2.096 9.248 2.552 10.304 3.464C11.376 4.36 11.912 5.576 11.912 7.112C11.912 8.648 11.392 9.872 10.352 10.784C9.312 11.696 7.808 12.152 5.84 12.152H3.968ZM5.648 9.656C6.608 9.656 7.36 9.448 7.904 9.032C8.464 8.616 8.744 7.976 8.744 7.112C8.744 6.28 8.48 5.656 7.952 5.24C7.44 4.824 6.688 4.616 5.696 4.616C5.008 4.616 4.424 4.664 3.944 4.76V9.656H5.648ZM18.5469 15.056C19.0109 15.056 19.4349 15.016 19.8189 14.936C20.2029 14.84 20.4829 14.728 20.6589 14.6V11.936L18.3309 12.152C17.6909 12.216 17.2029 12.36 16.8669 12.584C16.5309 12.792 16.3629 13.128 16.3629 13.592C16.3629 14.056 16.5309 14.416 16.8669 14.672C17.2189 14.928 17.7789 15.056 18.5469 15.056ZM18.4509 5.288C20.0189 5.288 21.2669 5.624 22.1949 6.296C23.1389 6.968 23.6109 8.008 23.6109 9.416V14.96C23.6109 15.344 23.5149 15.648 23.3229 15.872C23.1309 16.096 22.8909 16.296 22.6029 16.472C22.1549 16.744 21.5869 16.96 20.8989 17.12C20.2109 17.28 19.4269 17.36 18.5469 17.36C16.9469 17.36 15.6829 17.056 14.7549 16.448C13.8429 15.824 13.3869 14.896 13.3869 13.664C13.3869 12.592 13.7229 11.776 14.3949 11.216C15.0829 10.64 16.0749 10.288 17.3709 10.16L20.6589 9.824V9.392C20.6589 8.784 20.4349 8.336 19.9869 8.048C19.5549 7.76 18.9389 7.616 18.1389 7.616C17.5149 7.616 16.9069 7.696 16.3149 7.856C15.7229 8 15.1949 8.184 14.7309 8.408C14.5549 8.28 14.4029 8.112 14.2749 7.904C14.1629 7.68 14.1069 7.44 14.1069 7.184C14.1069 6.864 14.1789 6.608 14.3229 6.416C14.4829 6.208 14.7309 6.024 15.0669 5.864C15.5309 5.672 16.0589 5.528 16.6509 5.432C17.2429 5.336 17.8429 5.288 18.4509 5.288ZM29.6459 16.976C29.5019 17.008 29.3099 17.048 29.0699 17.096C28.8299 17.144 28.5579 17.168 28.2539 17.168C27.6939 17.168 27.2779 17.064 27.0059 16.856C26.7339 16.648 26.5979 16.28 26.5979 15.752V8.144C26.5979 7.728 26.6939 7.376 26.8859 7.088C27.0779 6.8 27.3579 6.544 27.7259 6.32C28.2219 6.016 28.8299 5.768 29.5499 5.576C30.2859 5.384 31.0779 5.288 31.9259 5.288C33.4459 5.288 34.2059 5.76 34.2059 6.704C34.2059 6.928 34.1659 7.144 34.0859 7.352C34.0219 7.544 33.9499 7.704 33.8699 7.832C33.5019 7.752 33.0459 7.712 32.5019 7.712C31.9419 7.712 31.4139 7.776 30.9179 7.904C30.4219 8.032 29.9979 8.192 29.6459 8.384V16.976ZM40.3906 15.056C40.8546 15.056 41.2786 15.016 41.6626 14.936C42.0466 14.84 42.3266 14.728 42.5026 14.6V11.936L40.1746 12.152C39.5346 12.216 39.0466 12.36 38.7106 12.584C38.3746 12.792 38.2066 13.128 38.2066 13.592C38.2066 14.056 38.3746 14.416 38.7106 14.672C39.0626 14.928 39.6226 15.056 40.3906 15.056ZM40.2946 5.288C41.8626 5.288 43.1106 5.624 44.0386 6.296C44.9826 6.968 45.4546 8.008 45.4546 9.416V14.96C45.4546 15.344 45.3586 15.648 45.1666 15.872C44.9746 16.096 44.7346 16.296 44.4466 16.472C43.9986 16.744 43.4306 16.96 42.7426 17.12C42.0546 17.28 41.2706 17.36 40.3906 17.36C38.7906 17.36 37.5266 17.056 36.5986 16.448C35.6866 15.824 35.2306 14.896 35.2306 13.664C35.2306 12.592 35.5666 11.776 36.2386 11.216C36.9266 10.64 37.9186 10.288 39.2146 10.16L42.5026 9.824V9.392C42.5026 8.784 42.2786 8.336 41.8306 8.048C41.3986 7.76 40.7826 7.616 39.9826 7.616C39.3586 7.616 38.7506 7.696 38.1586 7.856C37.5666 8 37.0386 8.184 36.5746 8.408C36.3986 8.28 36.2466 8.112 36.1186 7.904C36.0066 7.68 35.9506 7.44 35.9506 7.184C35.9506 6.864 36.0226 6.608 36.1666 6.416C36.3266 6.208 36.5746 6.024 36.9106 5.864C37.3746 5.672 37.9026 5.528 38.4946 5.432C39.0866 5.336 39.6866 5.288 40.2946 5.288ZM59.1264 7.712C58.6464 7.712 58.1984 7.792 57.7824 7.952C57.3824 8.112 57.0304 8.344 56.7264 8.648C56.4384 8.952 56.2064 9.328 56.0304 9.776C55.8544 10.224 55.7664 10.744 55.7664 11.336C55.7664 12.52 56.0784 13.416 56.7024 14.024C57.3264 14.616 58.1344 14.912 59.1264 14.912C59.6864 14.912 60.1664 14.84 60.5664 14.696C60.9824 14.536 61.3504 14.368 61.6704 14.192C61.8944 14.352 62.0704 14.536 62.1984 14.744C62.3424 14.952 62.4144 15.192 62.4144 15.464C62.4144 16.008 62.0944 16.456 61.4544 16.808C60.8144 17.16 59.9504 17.336 58.8624 17.336C57.9504 17.336 57.1104 17.216 56.3424 16.976C55.5904 16.72 54.9424 16.344 54.3984 15.848C53.8544 15.336 53.4304 14.704 53.1264 13.952C52.8384 13.2 52.6944 12.328 52.6944 11.336C52.6944 10.328 52.8544 9.448 53.1744 8.696C53.4944 7.928 53.9264 7.296 54.4704 6.8C55.0304 6.288 55.6784 5.912 56.4144 5.672C57.1504 5.416 57.9344 5.288 58.7664 5.288C59.8384 5.288 60.6944 5.48 61.3344 5.864C61.9744 6.232 62.2944 6.688 62.2944 7.232C62.2944 7.488 62.2224 7.72 62.0784 7.928C61.9504 8.136 61.7984 8.304 61.6224 8.432C61.3024 8.256 60.9424 8.096 60.5424 7.952C60.1584 7.792 59.6864 7.712 59.1264 7.712ZM67.9194 16.976C67.7754 17.008 67.5834 17.048 67.3434 17.096C67.1034 17.144 66.8314 17.168 66.5274 17.168C65.9674 17.168 65.5514 17.064 65.2794 16.856C65.0074 16.648 64.8714 16.28 64.8714 15.752V8.144C64.8714 7.728 64.9674 7.376 65.1594 7.088C65.3514 6.8 65.6314 6.544 65.9994 6.32C66.4954 6.016 67.1034 5.768 67.8234 5.576C68.5594 5.384 69.3514 5.288 70.1994 5.288C71.7194 5.288 72.4794 5.76 72.4794 6.704C72.4794 6.928 72.4394 7.144 72.3594 7.352C72.2954 7.544 72.2234 7.704 72.1434 7.832C71.7754 7.752 71.3194 7.712 70.7754 7.712C70.2154 7.712 69.6874 7.776 69.1914 7.904C68.6954 8.032 68.2714 8.192 67.9194 8.384V16.976ZM74.5304 5.72C74.6584 5.688 74.8424 5.648 75.0824 5.6C75.3384 5.552 75.6104 5.528 75.8984 5.528C76.4744 5.528 76.8904 5.632 77.1464 5.84C77.4184 6.048 77.5544 6.416 77.5544 6.944V16.976C77.4264 17.008 77.2344 17.048 76.9784 17.096C76.7384 17.144 76.4744 17.168 76.1864 17.168C75.6104 17.168 75.1864 17.064 74.9144 16.856C74.6584 16.648 74.5304 16.28 74.5304 15.752V5.72ZM74.2904 2.24C74.2904 1.776 74.4504 1.384 74.7704 1.064C75.1064 0.727999 75.5304 0.559999 76.0424 0.559999C76.5544 0.559999 76.9704 0.727999 77.2904 1.064C77.6104 1.384 77.7704 1.776 77.7704 2.24C77.7704 2.72 77.6104 3.128 77.2904 3.464C76.9704 3.784 76.5544 3.944 76.0424 3.944C75.5304 3.944 75.1064 3.784 74.7704 3.464C74.4504 3.128 74.2904 2.72 74.2904 2.24ZM85.1797 15.056C85.6437 15.056 86.0677 15.016 86.4517 14.936C86.8357 14.84 87.1157 14.728 87.2917 14.6V11.936L84.9637 12.152C84.3237 12.216 83.8357 12.36 83.4997 12.584C83.1637 12.792 82.9957 13.128 82.9957 13.592C82.9957 14.056 83.1637 14.416 83.4997 14.672C83.8517 14.928 84.4117 15.056 85.1797 15.056ZM85.0837 5.288C86.6517 5.288 87.8997 5.624 88.8277 6.296C89.7717 6.968 90.2437 8.008 90.2437 9.416V14.96C90.2437 15.344 90.1477 15.648 89.9557 15.872C89.7637 16.096 89.5237 16.296 89.2357 16.472C88.7877 16.744 88.2197 16.96 87.5317 17.12C86.8437 17.28 86.0597 17.36 85.1797 17.36C83.5797 17.36 82.3157 17.056 81.3877 16.448C80.4757 15.824 80.0197 14.896 80.0197 13.664C80.0197 12.592 80.3557 11.776 81.0277 11.216C81.7157 10.64 82.7077 10.288 84.0037 10.16L87.2917 9.824V9.392C87.2917 8.784 87.0677 8.336 86.6197 8.048C86.1877 7.76 85.5717 7.616 84.7717 7.616C84.1477 7.616 83.5397 7.696 82.9477 7.856C82.3557 8 81.8277 8.184 81.3637 8.408C81.1877 8.28 81.0357 8.112 80.9077 7.904C80.7957 7.68 80.7397 7.44 80.7397 7.184C80.7397 6.864 80.8117 6.608 80.9557 6.416C81.1157 6.208 81.3637 6.024 81.6997 5.864C82.1637 5.672 82.6917 5.528 83.2837 5.432C83.8757 5.336 84.4757 5.288 85.0837 5.288ZM100.767 9.68C100.767 8.992 100.567 8.488 100.167 8.168C99.7828 7.848 99.2548 7.688 98.5828 7.688C98.1188 7.688 97.6868 7.744 97.2868 7.856C96.9028 7.968 96.5668 8.112 96.2788 8.288V16.976C96.1348 17.008 95.9428 17.048 95.7028 17.096C95.4628 17.144 95.1908 17.168 94.8867 17.168C94.3268 17.168 93.9108 17.064 93.6388 16.856C93.3668 16.648 93.2308 16.28 93.2308 15.752V8.048C93.2308 7.664 93.3108 7.352 93.4708 7.112C93.6308 6.872 93.8788 6.64 94.2148 6.416C94.6788 6.096 95.2948 5.832 96.0628 5.624C96.8308 5.4 97.6788 5.288 98.6068 5.288C100.255 5.288 101.527 5.656 102.423 6.392C103.335 7.112 103.791 8.176 103.791 9.584V16.976C103.663 17.008 103.471 17.048 103.215 17.096C102.975 17.144 102.711 17.168 102.423 17.168C101.847 17.168 101.423 17.064 101.151 16.856C100.895 16.648 100.767 16.28 100.767 15.752V9.68ZM112.728 7.712C112.248 7.712 111.8 7.792 111.384 7.952C110.984 8.112 110.632 8.344 110.328 8.648C110.04 8.952 109.808 9.328 109.632 9.776C109.456 10.224 109.368 10.744 109.368 11.336C109.368 12.52 109.68 13.416 110.304 14.024C110.928 14.616 111.736 14.912 112.728 14.912C113.288 14.912 113.768 14.84 114.168 14.696C114.584 14.536 114.952 14.368 115.272 14.192C115.496 14.352 115.672 14.536 115.8 14.744C115.944 14.952 116.016 15.192 116.016 15.464C116.016 15.896 115.8 16.272 115.368 16.592C114.952 16.896 114.376 17.112 113.64 17.24C113.816 17.496 113.944 17.776 114.024 18.08C114.104 18.384 114.144 18.696 114.144 19.016C114.144 19.832 113.896 20.48 113.4 20.96C112.904 21.456 112.232 21.704 111.384 21.704C110.84 21.704 110.408 21.584 110.088 21.344C109.784 21.104 109.632 20.76 109.632 20.312C109.632 20.104 109.672 19.88 109.752 19.64H110.064C110.592 19.64 110.976 19.52 111.216 19.28C111.456 19.04 111.576 18.728 111.576 18.344C111.576 18.184 111.552 18.008 111.504 17.816C111.456 17.624 111.376 17.432 111.264 17.24C109.76 17.048 108.552 16.464 107.64 15.488C106.744 14.496 106.296 13.112 106.296 11.336C106.296 10.328 106.456 9.448 106.776 8.696C107.096 7.928 107.528 7.296 108.072 6.8C108.632 6.288 109.28 5.912 110.016 5.672C110.752 5.416 111.536 5.288 112.368 5.288C113.44 5.288 114.296 5.48 114.936 5.864C115.576 6.232 115.896 6.688 115.896 7.232C115.896 7.488 115.824 7.72 115.68 7.928C115.552 8.136 115.4 8.304 115.224 8.432C114.904 8.256 114.544 8.096 114.144 7.952C113.76 7.792 113.288 7.712 112.728 7.712ZM123.008 15.056C123.472 15.056 123.896 15.016 124.28 14.936C124.664 14.84 124.944 14.728 125.12 14.6V11.936L122.792 12.152C122.152 12.216 121.664 12.36 121.328 12.584C120.992 12.792 120.824 13.128 120.824 13.592C120.824 14.056 120.992 14.416 121.328 14.672C121.68 14.928 122.24 15.056 123.008 15.056ZM122.912 5.288C124.48 5.288 125.728 5.624 126.656 6.296C127.6 6.968 128.072 8.008 128.072 9.416V14.96C128.072 15.344 127.976 15.648 127.784 15.872C127.592 16.096 127.352 16.296 127.064 16.472C126.616 16.744 126.048 16.96 125.36 17.12C124.672 17.28 123.888 17.36 123.008 17.36C121.408 17.36 120.144 17.056 119.216 16.448C118.304 15.824 117.848 14.896 117.848 13.664C117.848 12.592 118.184 11.776 118.856 11.216C119.544 10.64 120.536 10.288 121.832 10.16L125.12 9.824V9.392C125.12 8.784 124.896 8.336 124.448 8.048C124.016 7.76 123.4 7.616 122.6 7.616C121.976 7.616 121.368 7.696 120.776 7.856C120.184 8 119.656 8.184 119.192 8.408C119.016 8.28 118.864 8.112 118.736 7.904C118.624 7.68 118.568 7.44 118.568 7.184C118.568 6.864 118.64 6.608 118.784 6.416C118.944 6.208 119.192 6.024 119.528 5.864C119.992 5.672 120.52 5.528 121.112 5.432C121.704 5.336 122.304 5.288 122.912 5.288ZM139.915 13.784C139.915 14.904 139.499 15.784 138.667 16.424C137.835 17.048 136.619 17.36 135.019 17.36C134.363 17.36 133.763 17.312 133.219 17.216C132.691 17.12 132.227 16.984 131.827 16.808C131.443 16.616 131.139 16.392 130.915 16.136C130.707 15.864 130.603 15.568 130.603 15.248C130.603 14.944 130.667 14.68 130.795 14.456C130.939 14.232 131.123 14.048 131.347 13.904C131.795 14.192 132.307 14.448 132.883 14.672C133.475 14.896 134.155 15.008 134.923 15.008C135.579 15.008 136.075 14.904 136.411 14.696C136.747 14.472 136.915 14.168 136.915 13.784C136.915 13.128 136.435 12.696 135.475 12.488L134.131 12.176C132.947 11.904 132.067 11.496 131.491 10.952C130.931 10.408 130.651 9.68 130.651 8.768C130.651 7.728 131.067 6.888 131.899 6.248C132.731 5.592 133.899 5.264 135.403 5.264C135.979 5.264 136.507 5.312 136.987 5.408C137.483 5.488 137.907 5.616 138.259 5.792C138.627 5.952 138.907 6.152 139.099 6.392C139.307 6.616 139.411 6.88 139.411 7.184C139.411 7.472 139.347 7.728 139.219 7.952C139.091 8.16 138.939 8.328 138.763 8.456C138.619 8.36 138.427 8.264 138.187 8.168C137.963 8.072 137.707 7.984 137.419 7.904C137.147 7.824 136.851 7.76 136.531 7.712C136.227 7.648 135.923 7.616 135.619 7.616C134.995 7.616 134.507 7.72 134.155 7.928C133.803 8.12 133.627 8.4 133.627 8.768C133.627 9.04 133.723 9.264 133.915 9.44C134.123 9.616 134.475 9.76 134.971 9.872L136.147 10.16C137.475 10.464 138.435 10.912 139.027 11.504C139.619 12.08 139.915 12.84 139.915 13.784ZM157.673 14.792C157.673 15.16 157.593 15.456 157.433 15.68C157.273 15.904 157.033 16.12 156.713 16.328C156.313 16.584 155.785 16.816 155.129 17.024C154.473 17.248 153.713 17.36 152.849 17.36C150.929 17.36 149.401 16.872 148.265 15.896C147.145 14.904 146.585 13.392 146.585 11.36C146.585 10.304 146.737 9.4 147.041 8.648C147.345 7.88 147.753 7.248 148.265 6.752C148.793 6.256 149.409 5.888 150.113 5.648C150.817 5.408 151.577 5.288 152.393 5.288C152.825 5.288 153.233 5.336 153.617 5.432C154.001 5.512 154.345 5.616 154.649 5.744V1.4C154.777 1.352 154.961 1.312 155.201 1.28C155.457 1.232 155.729 1.208 156.017 1.208C156.593 1.208 157.009 1.312 157.265 1.52C157.537 1.728 157.673 2.096 157.673 2.624V14.792ZM154.649 8.192C154.409 8.048 154.129 7.928 153.809 7.832C153.489 7.736 153.145 7.688 152.777 7.688C151.881 7.688 151.137 7.976 150.545 8.552C149.953 9.128 149.657 10.072 149.657 11.384C149.657 12.616 149.937 13.52 150.497 14.096C151.073 14.656 151.849 14.936 152.825 14.936C153.241 14.936 153.593 14.888 153.881 14.792C154.185 14.696 154.441 14.584 154.649 14.456V8.192ZM163.226 12.68C163.45 13.496 163.866 14.088 164.474 14.456C165.082 14.824 165.834 15.008 166.73 15.008C167.402 15.008 168.018 14.912 168.578 14.72C169.154 14.512 169.618 14.296 169.97 14.072C170.194 14.2 170.378 14.376 170.522 14.6C170.666 14.824 170.738 15.064 170.738 15.32C170.738 15.64 170.626 15.928 170.402 16.184C170.194 16.424 169.898 16.632 169.514 16.808C169.146 16.984 168.706 17.12 168.194 17.216C167.682 17.312 167.13 17.36 166.538 17.36C165.594 17.36 164.73 17.232 163.946 16.976C163.178 16.72 162.514 16.336 161.954 15.824C161.41 15.296 160.978 14.648 160.658 13.88C160.354 13.112 160.202 12.216 160.202 11.192C160.202 10.2 160.354 9.336 160.658 8.6C160.962 7.864 161.37 7.248 161.882 6.752C162.41 6.256 163.018 5.888 163.706 5.648C164.394 5.408 165.122 5.288 165.89 5.288C166.674 5.288 167.394 5.416 168.05 5.672C168.706 5.912 169.266 6.256 169.73 6.704C170.194 7.136 170.554 7.664 170.81 8.288C171.082 8.896 171.218 9.56 171.218 10.28C171.218 10.728 171.098 11.064 170.858 11.288C170.634 11.512 170.314 11.656 169.898 11.72L163.226 12.68ZM165.89 7.568C165.106 7.568 164.45 7.832 163.922 8.36C163.394 8.872 163.098 9.608 163.034 10.568L168.362 9.776C168.298 9.184 168.066 8.672 167.666 8.24C167.266 7.792 166.674 7.568 165.89 7.568ZM178.067 6.392C177.843 6.28 177.635 6.112 177.443 5.888C177.251 5.664 177.155 5.36 177.155 4.976C177.155 4.272 177.595 3.752 178.475 3.416L181.499 2.24H182.171C182.683 2.24 183.091 2.392 183.395 2.696C183.699 2.984 183.851 3.384 183.851 3.896V17C183.707 17.032 183.507 17.072 183.251 17.12C183.011 17.168 182.747 17.192 182.459 17.192C181.883 17.192 181.459 17.088 181.187 16.88C180.931 16.672 180.803 16.304 180.803 15.776V5.312L178.067 6.392ZM196.695 15.056C197.159 15.056 197.583 15.016 197.967 14.936C198.351 14.84 198.631 14.728 198.807 14.6V11.936L196.479 12.152C195.839 12.216 195.351 12.36 195.015 12.584C194.679 12.792 194.511 13.128 194.511 13.592C194.511 14.056 194.679 14.416 195.015 14.672C195.367 14.928 195.927 15.056 196.695 15.056ZM196.599 5.288C198.167 5.288 199.415 5.624 200.343 6.296C201.287 6.968 201.759 8.008 201.759 9.416V14.96C201.759 15.344 201.663 15.648 201.471 15.872C201.279 16.096 201.039 16.296 200.751 16.472C200.303 16.744 199.735 16.96 199.047 17.12C198.359 17.28 197.575 17.36 196.695 17.36C195.095 17.36 193.831 17.056 192.903 16.448C191.991 15.824 191.535 14.896 191.535 13.664C191.535 12.592 191.871 11.776 192.543 11.216C193.231 10.64 194.223 10.288 195.519 10.16L198.807 9.824V9.392C198.807 8.784 198.583 8.336 198.135 8.048C197.703 7.76 197.087 7.616 196.287 7.616C195.663 7.616 195.055 7.696 194.463 7.856C193.871 8 193.343 8.184 192.879 8.408C192.703 8.28 192.551 8.112 192.423 7.904C192.311 7.68 192.255 7.44 192.255 7.184C192.255 6.864 192.327 6.608 192.471 6.416C192.631 6.208 192.879 6.024 193.215 5.864C193.679 5.672 194.207 5.528 194.799 5.432C195.391 5.336 195.991 5.288 196.599 5.288ZM213.439 2.072C215.135 2.072 216.455 2.432 217.399 3.152C218.343 3.872 218.815 4.88 218.815 6.176C218.815 6.608 218.743 7 218.599 7.352C218.471 7.704 218.303 8.016 218.095 8.288C217.887 8.544 217.655 8.768 217.399 8.96C217.143 9.136 216.887 9.272 216.631 9.368C216.951 9.48 217.263 9.632 217.567 9.824C217.887 10.016 218.167 10.264 218.407 10.568C218.647 10.856 218.839 11.2 218.983 11.6C219.143 11.984 219.223 12.432 219.223 12.944C219.223 13.648 219.079 14.272 218.791 14.816C218.519 15.36 218.127 15.824 217.615 16.208C217.119 16.576 216.519 16.856 215.815 17.048C215.111 17.24 214.343 17.336 213.511 17.336C212.759 17.336 212.087 17.28 211.495 17.168C210.903 17.056 210.399 16.904 209.983 16.712C209.567 16.504 209.247 16.264 209.023 15.992C208.815 15.72 208.711 15.432 208.711 15.128C208.711 14.792 208.791 14.504 208.951 14.264C209.127 14.024 209.343 13.84 209.599 13.712C209.967 13.984 210.431 14.248 210.991 14.504C211.551 14.744 212.287 14.864 213.199 14.864C214.143 14.864 214.871 14.68 215.383 14.312C215.911 13.944 216.175 13.416 216.175 12.728C216.175 12.088 215.943 11.592 215.479 11.24C215.031 10.872 214.327 10.688 213.367 10.688H211.231C211.151 10.56 211.079 10.392 211.015 10.184C210.951 9.976 210.919 9.744 210.919 9.488C210.919 9.216 210.951 8.976 211.015 8.768C211.079 8.56 211.151 8.392 211.231 8.264H213.295C214.159 8.264 214.783 8.096 215.167 7.76C215.567 7.424 215.767 6.976 215.767 6.416C215.767 5.824 215.535 5.36 215.071 5.024C214.607 4.688 213.943 4.52 213.079 4.52C212.359 4.52 211.735 4.624 211.207 4.832C210.679 5.024 210.231 5.24 209.863 5.48C209.655 5.336 209.471 5.152 209.311 4.928C209.151 4.704 209.071 4.44 209.071 4.136C209.071 3.832 209.175 3.552 209.383 3.296C209.607 3.04 209.911 2.824 210.295 2.648C210.679 2.456 211.135 2.312 211.663 2.216C212.207 2.12 212.799 2.072 213.439 2.072ZM231.125 15.056C231.589 15.056 232.013 15.016 232.397 14.936C232.781 14.84 233.061 14.728 233.237 14.6V11.936L230.909 12.152C230.269 12.216 229.781 12.36 229.445 12.584C229.109 12.792 228.941 13.128 228.941 13.592C228.941 14.056 229.109 14.416 229.445 14.672C229.797 14.928 230.357 15.056 231.125 15.056ZM231.029 5.288C232.597 5.288 233.845 5.624 234.773 6.296C235.717 6.968 236.189 8.008 236.189 9.416V14.96C236.189 15.344 236.093 15.648 235.901 15.872C235.709 16.096 235.469 16.296 235.181 16.472C234.733 16.744 234.165 16.96 233.477 17.12C232.789 17.28 232.005 17.36 231.125 17.36C229.525 17.36 228.261 17.056 227.333 16.448C226.421 15.824 225.965 14.896 225.965 13.664C225.965 12.592 226.301 11.776 226.973 11.216C227.661 10.64 228.653 10.288 229.949 10.16L233.237 9.824V9.392C233.237 8.784 233.013 8.336 232.565 8.048C232.133 7.76 231.517 7.616 230.717 7.616C230.093 7.616 229.485 7.696 228.893 7.856C228.301 8 227.773 8.184 227.309 8.408C227.133 8.28 226.981 8.112 226.853 7.904C226.741 7.68 226.685 7.44 226.685 7.184C226.685 6.864 226.757 6.608 226.901 6.416C227.061 6.208 227.309 6.024 227.645 5.864C228.109 5.672 228.637 5.528 229.229 5.432C229.821 5.336 230.421 5.288 231.029 5.288ZM246.712 9.68C246.712 8.992 246.512 8.488 246.112 8.168C245.728 7.848 245.2 7.688 244.528 7.688C244.064 7.688 243.632 7.744 243.232 7.856C242.848 7.968 242.512 8.112 242.224 8.288V16.976C242.08 17.008 241.888 17.048 241.648 17.096C241.408 17.144 241.136 17.168 240.832 17.168C240.272 17.168 239.856 17.064 239.584 16.856C239.312 16.648 239.176 16.28 239.176 15.752V8.048C239.176 7.664 239.256 7.352 239.416 7.112C239.576 6.872 239.824 6.64 240.16 6.416C240.624 6.096 241.24 5.832 242.008 5.624C242.776 5.4 243.624 5.288 244.552 5.288C246.2 5.288 247.472 5.656 248.368 6.392C249.28 7.112 249.736 8.176 249.736 9.584V16.976C249.608 17.008 249.416 17.048 249.16 17.096C248.92 17.144 248.656 17.168 248.368 17.168C247.792 17.168 247.368 17.064 247.096 16.856C246.84 16.648 246.712 16.28 246.712 15.752V9.68ZM264.001 11.312C264.001 12.24 263.857 13.08 263.569 13.832C263.297 14.568 262.905 15.2 262.393 15.728C261.881 16.256 261.265 16.664 260.545 16.952C259.825 17.224 259.017 17.36 258.121 17.36C257.225 17.36 256.417 17.224 255.697 16.952C254.977 16.664 254.361 16.264 253.849 15.752C253.337 15.224 252.937 14.592 252.649 13.856C252.377 13.104 252.241 12.256 252.241 11.312C252.241 10.384 252.377 9.552 252.649 8.816C252.937 8.064 253.337 7.432 253.849 6.92C254.377 6.392 255.001 5.992 255.721 5.72C256.441 5.432 257.241 5.288 258.121 5.288C259.001 5.288 259.801 5.432 260.521 5.72C261.241 5.992 261.857 6.392 262.369 6.92C262.897 7.448 263.297 8.088 263.569 8.84C263.857 9.576 264.001 10.4 264.001 11.312ZM258.121 7.688C257.257 7.688 256.577 8.008 256.081 8.648C255.585 9.272 255.337 10.16 255.337 11.312C255.337 12.48 255.577 13.376 256.057 14C256.553 14.624 257.241 14.936 258.121 14.936C259.001 14.936 259.681 14.624 260.161 14C260.657 13.36 260.905 12.464 260.905 11.312C260.905 10.16 260.657 9.272 260.161 8.648C259.665 8.008 258.985 7.688 258.121 7.688ZM275.337 13.784C275.337 14.904 274.921 15.784 274.089 16.424C273.257 17.048 272.041 17.36 270.441 17.36C269.785 17.36 269.185 17.312 268.641 17.216C268.113 17.12 267.649 16.984 267.249 16.808C266.865 16.616 266.561 16.392 266.337 16.136C266.129 15.864 266.025 15.568 266.025 15.248C266.025 14.944 266.089 14.68 266.217 14.456C266.361 14.232 266.545 14.048 266.769 13.904C267.217 14.192 267.729 14.448 268.305 14.672C268.897 14.896 269.577 15.008 270.345 15.008C271.001 15.008 271.497 14.904 271.833 14.696C272.169 14.472 272.337 14.168 272.337 13.784C272.337 13.128 271.857 12.696 270.897 12.488L269.553 12.176C268.369 11.904 267.489 11.496 266.913 10.952C266.353 10.408 266.073 9.68 266.073 8.768C266.073 7.728 266.489 6.888 267.321 6.248C268.153 5.592 269.321 5.264 270.825 5.264C271.401 5.264 271.929 5.312 272.409 5.408C272.905 5.488 273.329 5.616 273.681 5.792C274.049 5.952 274.329 6.152 274.521 6.392C274.729 6.616 274.833 6.88 274.833 7.184C274.833 7.472 274.769 7.728 274.641 7.952C274.513 8.16 274.361 8.328 274.185 8.456C274.041 8.36 273.849 8.264 273.609 8.168C273.385 8.072 273.129 7.984 272.841 7.904C272.569 7.824 272.273 7.76 271.953 7.712C271.649 7.648 271.345 7.616 271.041 7.616C270.417 7.616 269.929 7.72 269.577 7.928C269.225 8.12 269.049 8.4 269.049 8.768C269.049 9.04 269.145 9.264 269.337 9.44C269.545 9.616 269.897 9.76 270.393 9.872L271.569 10.16C272.897 10.464 273.857 10.912 274.449 11.504C275.041 12.08 275.337 12.84 275.337 13.784Z" fill="#777777"/>
</svg>
