<svg width="280" height="22" viewBox="0 0 280 22" fill="none" xmlns="http://www.w3.org/2000/svg">
  <path d="M3.968 12.152V16.976C3.824 17.008 3.616 17.048 3.344 17.096C3.088 17.144 2.808 17.168 2.504 17.168C1.896 17.168 1.464 17.056 1.208 16.832C0.968 16.608 0.848 16.232 0.848 15.704V3.656C0.848 3.352 0.928 3.12 1.088 2.96C1.248 2.8 1.472 2.672 1.76 2.576C2.016 2.496 2.296 2.424 2.6 2.36C2.92 2.296 3.248 2.248 3.584 2.216C3.92 2.168 4.256 2.136 4.592 2.12C4.928 2.104 5.248 2.096 5.552 2.096C7.664 2.096 9.248 2.552 10.304 3.464C11.376 4.36 11.912 5.576 11.912 7.112C11.912 8.648 11.392 9.872 10.352 10.784C9.312 11.696 7.808 12.152 5.84 12.152H3.968ZM5.648 9.656C6.608 9.656 7.36 9.448 7.904 9.032C8.464 8.616 8.744 7.976 8.744 7.112C8.744 6.28 8.48 5.656 7.952 5.24C7.44 4.824 6.688 4.616 5.696 4.616C5.008 4.616 4.424 4.664 3.944 4.76V9.656H5.648ZM18.5469 15.056C19.0109 15.056 19.4349 15.016 19.8189 14.936C20.2029 14.84 20.4829 14.728 20.6589 14.6V11.936L18.3309 12.152C17.6909 12.216 17.2029 12.36 16.8669 12.584C16.5309 12.792 16.3629 13.128 16.3629 13.592C16.3629 14.056 16.5309 14.416 16.8669 14.672C17.2189 14.928 17.7789 15.056 18.5469 15.056ZM18.4509 5.288C20.0189 5.288 21.2669 5.624 22.1949 6.296C23.1389 6.968 23.6109 8.008 23.6109 9.416V14.96C23.6109 15.344 23.5149 15.648 23.3229 15.872C23.1309 16.096 22.8909 16.296 22.6029 16.472C22.1549 16.744 21.5869 16.96 20.8989 17.12C20.2109 17.28 19.4269 17.36 18.5469 17.36C16.9469 17.36 15.6829 17.056 14.7549 16.448C13.8429 15.824 13.3869 14.896 13.3869 13.664C13.3869 12.592 13.7229 11.776 14.3949 11.216C15.0829 10.64 16.0749 10.288 17.3709 10.16L20.6589 9.824V9.392C20.6589 8.784 20.4349 8.336 19.9869 8.048C19.5549 7.76 18.9389 7.616 18.1389 7.616C17.5149 7.616 16.9069 7.696 16.3149 7.856C15.7229 8 15.1949 8.184 14.7309 8.408C14.5549 8.28 14.4029 8.112 14.2749 7.904C14.1629 7.68 14.1069 7.44 14.1069 7.184C14.1069 6.864 14.1789 6.608 14.3229 6.416C14.4829 6.208 14.7309 6.024 15.0669 5.864C15.5309 5.672 16.0589 5.528 16.6509 5.432C17.2429 5.336 17.8429 5.288 18.4509 5.288ZM29.6459 16.976C29.5019 17.008 29.3099 17.048 29.0699 17.096C28.8299 17.144 28.5579 17.168 28.2539 17.168C27.6939 17.168 27.2779 17.064 27.0059 16.856C26.7339 16.648 26.5979 16.28 26.5979 15.752V8.144C26.5979 7.728 26.6939 7.376 26.8859 7.088C27.0779 6.8 27.3579 6.544 27.7259 6.32C28.2219 6.016 28.8299 5.768 29.5499 5.576C30.2859 5.384 31.0779 5.288 31.9259 5.288C33.4459 5.288 34.2059 5.76 34.2059 6.704C34.2059 6.928 34.1659 7.144 34.0859 7.352C34.0219 7.544 33.9499 7.704 33.8699 7.832C33.5019 7.752 33.0459 7.712 32.5019 7.712C31.9419 7.712 31.4139 7.776 30.9179 7.904C30.4219 8.032 29.9979 8.192 29.6459 8.384V16.976ZM40.3906 15.056C40.8546 15.056 41.2786 15.016 41.6626 14.936C42.0466 14.84 42.3266 14.728 42.5026 14.6V11.936L40.1746 12.152C39.5346 12.216 39.0466 12.36 38.7106 12.584C38.3746 12.792 38.2066 13.128 38.2066 13.592C38.2066 14.056 38.3746 14.416 38.7106 14.672C39.0626 14.928 39.6226 15.056 40.3906 15.056ZM40.2946 5.288C41.8626 5.288 43.1106 5.624 44.0386 6.296C44.9826 6.968 45.4546 8.008 45.4546 9.416V14.96C45.4546 15.344 45.3586 15.648 45.1666 15.872C44.9746 16.096 44.7346 16.296 44.4466 16.472C43.9986 16.744 43.4306 16.96 42.7426 17.12C42.0546 17.28 41.2706 17.36 40.3906 17.36C38.7906 17.36 37.5266 17.056 36.5986 16.448C35.6866 15.824 35.2306 14.896 35.2306 13.664C35.2306 12.592 35.5666 11.776 36.2386 11.216C36.9266 10.64 37.9186 10.288 39.2146 10.16L42.5026 9.824V9.392C42.5026 8.784 42.2786 8.336 41.8306 8.048C41.3986 7.76 40.7826 7.616 39.9826 7.616C39.3586 7.616 38.7506 7.696 38.1586 7.856C37.5666 8 37.0386 8.184 36.5746 8.408C36.3986 8.28 36.2466 8.112 36.1186 7.904C36.0066 7.68 35.9506 7.44 35.9506 7.184C35.9506 6.864 36.0226 6.608 36.1666 6.416C36.3266 6.208 36.5746 6.024 36.9106 5.864C37.3746 5.672 37.9026 5.528 38.4946 5.432C39.0866 5.336 39.6866 5.288 40.2946 5.288ZM59.1264 7.712C58.6464 7.712 58.1984 7.792 57.7824 7.952C57.3824 8.112 57.0304 8.344 56.7264 8.648C56.4384 8.952 56.2064 9.328 56.0304 9.776C55.8544 10.224 55.7664 10.744 55.7664 11.336C55.7664 12.52 56.0784 13.416 56.7024 14.024C57.3264 14.616 58.1344 14.912 59.1264 14.912C59.6864 14.912 60.1664 14.84 60.5664 14.696C60.9824 14.536 61.3504 14.368 61.6704 14.192C61.8944 14.352 62.0704 14.536 62.1984 14.744C62.3424 14.952 62.4144 15.192 62.4144 15.464C62.4144 16.008 62.0944 16.456 61.4544 16.808C60.8144 17.16 59.9504 17.336 58.8624 17.336C57.9504 17.336 57.1104 17.216 56.3424 16.976C55.5904 16.72 54.9424 16.344 54.3984 15.848C53.8544 15.336 53.4304 14.704 53.1264 13.952C52.8384 13.2 52.6944 12.328 52.6944 11.336C52.6944 10.328 52.8544 9.448 53.1744 8.696C53.4944 7.928 53.9264 7.296 54.4704 6.8C55.0304 6.288 55.6784 5.912 56.4144 5.672C57.1504 5.416 57.9344 5.288 58.7664 5.288C59.8384 5.288 60.6944 5.48 61.3344 5.864C61.9744 6.232 62.2944 6.688 62.2944 7.232C62.2944 7.488 62.2224 7.72 62.0784 7.928C61.9504 8.136 61.7984 8.304 61.6224 8.432C61.3024 8.256 60.9424 8.096 60.5424 7.952C60.1584 7.792 59.6864 7.712 59.1264 7.712ZM67.9194 16.976C67.7754 17.008 67.5834 17.048 67.3434 17.096C67.1034 17.144 66.8314 17.168 66.5274 17.168C65.9674 17.168 65.5514 17.064 65.2794 16.856C65.0074 16.648 64.8714 16.28 64.8714 15.752V8.144C64.8714 7.728 64.9674 7.376 65.1594 7.088C65.3514 6.8 65.6314 6.544 65.9994 6.32C66.4954 6.016 67.1034 5.768 67.8234 5.576C68.5594 5.384 69.3514 5.288 70.1994 5.288C71.7194 5.288 72.4794 5.76 72.4794 6.704C72.4794 6.928 72.4394 7.144 72.3594 7.352C72.2954 7.544 72.2234 7.704 72.1434 7.832C71.7754 7.752 71.3194 7.712 70.7754 7.712C70.2154 7.712 69.6874 7.776 69.1914 7.904C68.6954 8.032 68.2714 8.192 67.9194 8.384V16.976ZM74.5304 5.72C74.6584 5.688 74.8424 5.648 75.0824 5.6C75.3384 5.552 75.6104 5.528 75.8984 5.528C76.4744 5.528 76.8904 5.632 77.1464 5.84C77.4184 6.048 77.5544 6.416 77.5544 6.944V16.976C77.4264 17.008 77.2344 17.048 76.9784 17.096C76.7384 17.144 76.4744 17.168 76.1864 17.168C75.6104 17.168 75.1864 17.064 74.9144 16.856C74.6584 16.648 74.5304 16.28 74.5304 15.752V5.72ZM74.2904 2.24C74.2904 1.776 74.4504 1.384 74.7704 1.064C75.1064 0.727999 75.5304 0.559999 76.0424 0.559999C76.5544 0.559999 76.9704 0.727999 77.2904 1.064C77.6104 1.384 77.7704 1.776 77.7704 2.24C77.7704 2.72 77.6104 3.128 77.2904 3.464C76.9704 3.784 76.5544 3.944 76.0424 3.944C75.5304 3.944 75.1064 3.784 74.7704 3.464C74.4504 3.128 74.2904 2.72 74.2904 2.24ZM85.1797 15.056C85.6437 15.056 86.0677 15.016 86.4517 14.936C86.8357 14.84 87.1157 14.728 87.2917 14.6V11.936L84.9637 12.152C84.3237 12.216 83.8357 12.36 83.4997 12.584C83.1637 12.792 82.9957 13.128 82.9957 13.592C82.9957 14.056 83.1637 14.416 83.4997 14.672C83.8517 14.928 84.4117 15.056 85.1797 15.056ZM85.0837 5.288C86.6517 5.288 87.8997 5.624 88.8277 6.296C89.7717 6.968 90.2437 8.008 90.2437 9.416V14.96C90.2437 15.344 90.1477 15.648 89.9557 15.872C89.7637 16.096 89.5237 16.296 89.2357 16.472C88.7877 16.744 88.2197 16.96 87.5317 17.12C86.8437 17.28 86.0597 17.36 85.1797 17.36C83.5797 17.36 82.3157 17.056 81.3877 16.448C80.4757 15.824 80.0197 14.896 80.0197 13.664C80.0197 12.592 80.3557 11.776 81.0277 11.216C81.7157 10.64 82.7077 10.288 84.0037 10.16L87.2917 9.824V9.392C87.2917 8.784 87.0677 8.336 86.6197 8.048C86.1877 7.76 85.5717 7.616 84.7717 7.616C84.1477 7.616 83.5397 7.696 82.9477 7.856C82.3557 8 81.8277 8.184 81.3637 8.408C81.1877 8.28 81.0357 8.112 80.9077 7.904C80.7957 7.68 80.7397 7.44 80.7397 7.184C80.7397 6.864 80.8117 6.608 80.9557 6.416C81.1157 6.208 81.3637 6.024 81.6997 5.864C82.1637 5.672 82.6917 5.528 83.2837 5.432C83.8757 5.336 84.4757 5.288 85.0837 5.288ZM100.767 9.68C100.767 8.992 100.567 8.488 100.167 8.168C99.7828 7.848 99.2548 7.688 98.5828 7.688C98.1188 7.688 97.6868 7.744 97.2868 7.856C96.9028 7.968 96.5668 8.112 96.2788 8.288V16.976C96.1348 17.008 95.9428 17.048 95.7028 17.096C95.4628 17.144 95.1908 17.168 94.8867 17.168C94.3268 17.168 93.9108 17.064 93.6388 16.856C93.3668 16.648 93.2308 16.28 93.2308 15.752V8.048C93.2308 7.664 93.3108 7.352 93.4708 7.112C93.6308 6.872 93.8788 6.64 94.2148 6.416C94.6788 6.096 95.2948 5.832 96.0628 5.624C96.8308 5.4 97.6788 5.288 98.6068 5.288C100.255 5.288 101.527 5.656 102.423 6.392C103.335 7.112 103.791 8.176 103.791 9.584V16.976C103.663 17.008 103.471 17.048 103.215 17.096C102.975 17.144 102.711 17.168 102.423 17.168C101.847 17.168 101.423 17.064 101.151 16.856C100.895 16.648 100.767 16.28 100.767 15.752V9.68ZM112.728 7.712C112.248 7.712 111.8 7.792 111.384 7.952C110.984 8.112 110.632 8.344 110.328 8.648C110.04 8.952 109.808 9.328 109.632 9.776C109.456 10.224 109.368 10.744 109.368 11.336C109.368 12.52 109.68 13.416 110.304 14.024C110.928 14.616 111.736 14.912 112.728 14.912C113.288 14.912 113.768 14.84 114.168 14.696C114.584 14.536 114.952 14.368 115.272 14.192C115.496 14.352 115.672 14.536 115.8 14.744C115.944 14.952 116.016 15.192 116.016 15.464C116.016 15.896 115.8 16.272 115.368 16.592C114.952 16.896 114.376 17.112 113.64 17.24C113.816 17.496 113.944 17.776 114.024 18.08C114.104 18.384 114.144 18.696 114.144 19.016C114.144 19.832 113.896 20.48 113.4 20.96C112.904 21.456 112.232 21.704 111.384 21.704C110.84 21.704 110.408 21.584 110.088 21.344C109.784 21.104 109.632 20.76 109.632 20.312C109.632 20.104 109.672 19.88 109.752 19.64H110.064C110.592 19.64 110.976 19.52 111.216 19.28C111.456 19.04 111.576 18.728 111.576 18.344C111.576 18.184 111.552 18.008 111.504 17.816C111.456 17.624 111.376 17.432 111.264 17.24C109.76 17.048 108.552 16.464 107.64 15.488C106.744 14.496 106.296 13.112 106.296 11.336C106.296 10.328 106.456 9.448 106.776 8.696C107.096 7.928 107.528 7.296 108.072 6.8C108.632 6.288 109.28 5.912 110.016 5.672C110.752 5.416 111.536 5.288 112.368 5.288C113.44 5.288 114.296 5.48 114.936 5.864C115.576 6.232 115.896 6.688 115.896 7.232C115.896 7.488 115.824 7.72 115.68 7.928C115.552 8.136 115.4 8.304 115.224 8.432C114.904 8.256 114.544 8.096 114.144 7.952C113.76 7.792 113.288 7.712 112.728 7.712ZM123.008 15.056C123.472 15.056 123.896 15.016 124.28 14.936C124.664 14.84 124.944 14.728 125.12 14.6V11.936L122.792 12.152C122.152 12.216 121.664 12.36 121.328 12.584C120.992 12.792 120.824 13.128 120.824 13.592C120.824 14.056 120.992 14.416 121.328 14.672C121.68 14.928 122.24 15.056 123.008 15.056ZM122.912 5.288C124.48 5.288 125.728 5.624 126.656 6.296C127.6 6.968 128.072 8.008 128.072 9.416V14.96C128.072 15.344 127.976 15.648 127.784 15.872C127.592 16.096 127.352 16.296 127.064 16.472C126.616 16.744 126.048 16.96 125.36 17.12C124.672 17.28 123.888 17.36 123.008 17.36C121.408 17.36 120.144 17.056 119.216 16.448C118.304 15.824 117.848 14.896 117.848 13.664C117.848 12.592 118.184 11.776 118.856 11.216C119.544 10.64 120.536 10.288 121.832 10.16L125.12 9.824V9.392C125.12 8.784 124.896 8.336 124.448 8.048C124.016 7.76 123.4 7.616 122.6 7.616C121.976 7.616 121.368 7.696 120.776 7.856C120.184 8 119.656 8.184 119.192 8.408C119.016 8.28 118.864 8.112 118.736 7.904C118.624 7.68 118.568 7.44 118.568 7.184C118.568 6.864 118.64 6.608 118.784 6.416C118.944 6.208 119.192 6.024 119.528 5.864C119.992 5.672 120.52 5.528 121.112 5.432C121.704 5.336 122.304 5.288 122.912 5.288ZM139.915 13.784C139.915 14.904 139.499 15.784 138.667 16.424C137.835 17.048 136.619 17.36 135.019 17.36C134.363 17.36 133.763 17.312 133.219 17.216C132.691 17.12 132.227 16.984 131.827 16.808C131.443 16.616 131.139 16.392 130.915 16.136C130.707 15.864 130.603 15.568 130.603 15.248C130.603 14.944 130.667 14.68 130.795 14.456C130.939 14.232 131.123 14.048 131.347 13.904C131.795 14.192 132.307 14.448 132.883 14.672C133.475 14.896 134.155 15.008 134.923 15.008C135.579 15.008 136.075 14.904 136.411 14.696C136.747 14.472 136.915 14.168 136.915 13.784C136.915 13.128 136.435 12.696 135.475 12.488L134.131 12.176C132.947 11.904 132.067 11.496 131.491 10.952C130.931 10.408 130.651 9.68 130.651 8.768C130.651 7.728 131.067 6.888 131.899 6.248C132.731 5.592 133.899 5.264 135.403 5.264C135.979 5.264 136.507 5.312 136.987 5.408C137.483 5.488 137.907 5.616 138.259 5.792C138.627 5.952 138.907 6.152 139.099 6.392C139.307 6.616 139.411 6.88 139.411 7.184C139.411 7.472 139.347 7.728 139.219 7.952C139.091 8.16 138.939 8.328 138.763 8.456C138.619 8.36 138.427 8.264 138.187 8.168C137.963 8.072 137.707 7.984 137.419 7.904C137.147 7.824 136.851 7.76 136.531 7.712C136.227 7.648 135.923 7.616 135.619 7.616C134.995 7.616 134.507 7.72 134.155 7.928C133.803 8.12 133.627 8.4 133.627 8.768C133.627 9.04 133.723 9.264 133.915 9.44C134.123 9.616 134.475 9.76 134.971 9.872L136.147 10.16C137.475 10.464 138.435 10.912 139.027 11.504C139.619 12.08 139.915 12.84 139.915 13.784ZM157.673 14.792C157.673 15.16 157.593 15.456 157.433 15.68C157.273 15.904 157.033 16.12 156.713 16.328C156.313 16.584 155.785 16.816 155.129 17.024C154.473 17.248 153.713 17.36 152.849 17.36C150.929 17.36 149.401 16.872 148.265 15.896C147.145 14.904 146.585 13.392 146.585 11.36C146.585 10.304 146.737 9.4 147.041 8.648C147.345 7.88 147.753 7.248 148.265 6.752C148.793 6.256 149.409 5.888 150.113 5.648C150.817 5.408 151.577 5.288 152.393 5.288C152.825 5.288 153.233 5.336 153.617 5.432C154.001 5.512 154.345 5.616 154.649 5.744V1.4C154.777 1.352 154.961 1.312 155.201 1.28C155.457 1.232 155.729 1.208 156.017 1.208C156.593 1.208 157.009 1.312 157.265 1.52C157.537 1.728 157.673 2.096 157.673 2.624V14.792ZM154.649 8.192C154.409 8.048 154.129 7.928 153.809 7.832C153.489 7.736 153.145 7.688 152.777 7.688C151.881 7.688 151.137 7.976 150.545 8.552C149.953 9.128 149.657 10.072 149.657 11.384C149.657 12.616 149.937 13.52 150.497 14.096C151.073 14.656 151.849 14.936 152.825 14.936C153.241 14.936 153.593 14.888 153.881 14.792C154.185 14.696 154.441 14.584 154.649 14.456V8.192ZM163.226 12.68C163.45 13.496 163.866 14.088 164.474 14.456C165.082 14.824 165.834 15.008 166.73 15.008C167.402 15.008 168.018 14.912 168.578 14.72C169.154 14.512 169.618 14.296 169.97 14.072C170.194 14.2 170.378 14.376 170.522 14.6C170.666 14.824 170.738 15.064 170.738 15.32C170.738 15.64 170.626 15.928 170.402 16.184C170.194 16.424 169.898 16.632 169.514 16.808C169.146 16.984 168.706 17.12 168.194 17.216C167.682 17.312 167.13 17.36 166.538 17.36C165.594 17.36 164.73 17.232 163.946 16.976C163.178 16.72 162.514 16.336 161.954 15.824C161.41 15.296 160.978 14.648 160.658 13.88C160.354 13.112 160.202 12.216 160.202 11.192C160.202 10.2 160.354 9.336 160.658 8.6C160.962 7.864 161.37 7.248 161.882 6.752C162.41 6.256 163.018 5.888 163.706 5.648C164.394 5.408 165.122 5.288 165.89 5.288C166.674 5.288 167.394 5.416 168.05 5.672C168.706 5.912 169.266 6.256 169.73 6.704C170.194 7.136 170.554 7.664 170.81 8.288C171.082 8.896 171.218 9.56 171.218 10.28C171.218 10.728 171.098 11.064 170.858 11.288C170.634 11.512 170.314 11.656 169.898 11.72L163.226 12.68ZM165.89 7.568C165.106 7.568 164.45 7.832 163.922 8.36C163.394 8.872 163.098 9.608 163.034 10.568L168.362 9.776C168.298 9.184 168.066 8.672 167.666 8.24C167.266 7.792 166.674 7.568 165.89 7.568ZM182.267 2.072C183.963 2.072 185.283 2.432 186.227 3.152C187.171 3.872 187.643 4.88 187.643 6.176C187.643 6.608 187.571 7 187.427 7.352C187.299 7.704 187.131 8.016 186.923 8.288C186.715 8.544 186.483 8.768 186.227 8.96C185.971 9.136 185.715 9.272 185.459 9.368C185.779 9.48 186.091 9.632 186.395 9.824C186.715 10.016 186.995 10.264 187.235 10.568C187.475 10.856 187.667 11.2 187.811 11.6C187.971 11.984 188.051 12.432 188.051 12.944C188.051 13.648 187.907 14.272 187.619 14.816C187.347 15.36 186.955 15.824 186.443 16.208C185.947 16.576 185.347 16.856 184.643 17.048C183.939 17.24 183.171 17.336 182.339 17.336C181.587 17.336 180.915 17.28 180.323 17.168C179.731 17.056 179.227 16.904 178.811 16.712C178.395 16.504 178.075 16.264 177.851 15.992C177.643 15.72 177.539 15.432 177.539 15.128C177.539 14.792 177.619 14.504 177.779 14.264C177.955 14.024 178.171 13.84 178.427 13.712C178.795 13.984 179.259 14.248 179.819 14.504C180.379 14.744 181.115 14.864 182.027 14.864C182.971 14.864 183.699 14.68 184.211 14.312C184.739 13.944 185.003 13.416 185.003 12.728C185.003 12.088 184.771 11.592 184.307 11.24C183.859 10.872 183.155 10.688 182.195 10.688H180.059C179.979 10.56 179.907 10.392 179.843 10.184C179.779 9.976 179.747 9.744 179.747 9.488C179.747 9.216 179.779 8.976 179.843 8.768C179.907 8.56 179.979 8.392 180.059 8.264H182.123C182.987 8.264 183.611 8.096 183.995 7.76C184.395 7.424 184.595 6.976 184.595 6.416C184.595 5.824 184.363 5.36 183.899 5.024C183.435 4.688 182.771 4.52 181.907 4.52C181.187 4.52 180.563 4.624 180.035 4.832C179.507 5.024 179.059 5.24 178.691 5.48C178.483 5.336 178.299 5.152 178.139 4.928C177.979 4.704 177.899 4.44 177.899 4.136C177.899 3.832 178.003 3.552 178.211 3.296C178.435 3.04 178.739 2.824 179.123 2.648C179.507 2.456 179.963 2.312 180.491 2.216C181.035 2.12 181.627 2.072 182.267 2.072ZM199.953 15.056C200.417 15.056 200.841 15.016 201.225 14.936C201.609 14.84 201.889 14.728 202.065 14.6V11.936L199.737 12.152C199.097 12.216 198.609 12.36 198.273 12.584C197.937 12.792 197.769 13.128 197.769 13.592C197.769 14.056 197.937 14.416 198.273 14.672C198.625 14.928 199.185 15.056 199.953 15.056ZM199.857 5.288C201.425 5.288 202.673 5.624 203.601 6.296C204.545 6.968 205.017 8.008 205.017 9.416V14.96C205.017 15.344 204.921 15.648 204.729 15.872C204.537 16.096 204.297 16.296 204.009 16.472C203.561 16.744 202.993 16.96 202.305 17.12C201.617 17.28 200.833 17.36 199.953 17.36C198.353 17.36 197.089 17.056 196.161 16.448C195.249 15.824 194.793 14.896 194.793 13.664C194.793 12.592 195.129 11.776 195.801 11.216C196.489 10.64 197.481 10.288 198.777 10.16L202.065 9.824V9.392C202.065 8.784 201.841 8.336 201.393 8.048C200.961 7.76 200.345 7.616 199.545 7.616C198.921 7.616 198.313 7.696 197.721 7.856C197.129 8 196.601 8.184 196.137 8.408C195.961 8.28 195.809 8.112 195.681 7.904C195.569 7.68 195.513 7.44 195.513 7.184C195.513 6.864 195.585 6.608 195.729 6.416C195.889 6.208 196.137 6.024 196.473 5.864C196.937 5.672 197.465 5.528 198.057 5.432C198.649 5.336 199.249 5.288 199.857 5.288ZM213.337 4.088C213.369 3.576 213.529 3.168 213.817 2.864C214.105 2.56 214.505 2.408 215.017 2.408H222.145C222.225 2.536 222.297 2.704 222.361 2.912C222.441 3.12 222.481 3.352 222.481 3.608C222.481 4.024 222.377 4.344 222.169 4.568C221.977 4.792 221.713 4.904 221.377 4.904H216.025L215.737 8.144C216.025 8.032 216.369 7.928 216.769 7.832C217.169 7.736 217.625 7.688 218.137 7.688C218.905 7.688 219.593 7.8 220.201 8.024C220.825 8.248 221.353 8.568 221.785 8.984C222.217 9.4 222.545 9.904 222.769 10.496C223.009 11.072 223.129 11.712 223.129 12.416C223.129 13.088 223.009 13.728 222.769 14.336C222.529 14.928 222.169 15.448 221.689 15.896C221.225 16.344 220.633 16.704 219.913 16.976C219.193 17.232 218.353 17.36 217.393 17.36C216.673 17.36 216.017 17.296 215.425 17.168C214.849 17.056 214.353 16.896 213.937 16.688C213.521 16.48 213.201 16.24 212.977 15.968C212.753 15.68 212.641 15.368 212.641 15.032C212.641 14.68 212.745 14.384 212.953 14.144C213.161 13.888 213.393 13.696 213.649 13.568C214.049 13.888 214.529 14.192 215.089 14.48C215.665 14.768 216.385 14.912 217.249 14.912C218.161 14.912 218.849 14.68 219.313 14.216C219.793 13.736 220.033 13.136 220.033 12.416C220.033 11.696 219.801 11.128 219.337 10.712C218.889 10.296 218.241 10.088 217.393 10.088C216.897 10.088 216.457 10.16 216.073 10.304C215.705 10.432 215.337 10.6 214.969 10.808C214.361 10.776 213.873 10.608 213.505 10.304C213.137 9.984 212.953 9.52 212.953 8.912C212.953 8.832 212.953 8.744 212.953 8.648C212.969 8.536 212.985 8.384 213.001 8.192L213.337 4.088ZM234.828 15.056C235.292 15.056 235.716 15.016 236.1 14.936C236.484 14.84 236.764 14.728 236.94 14.6V11.936L234.612 12.152C233.972 12.216 233.484 12.36 233.148 12.584C232.812 12.792 232.644 13.128 232.644 13.592C232.644 14.056 232.812 14.416 233.148 14.672C233.5 14.928 234.06 15.056 234.828 15.056ZM234.732 5.288C236.3 5.288 237.548 5.624 238.476 6.296C239.42 6.968 239.892 8.008 239.892 9.416V14.96C239.892 15.344 239.796 15.648 239.604 15.872C239.412 16.096 239.172 16.296 238.884 16.472C238.436 16.744 237.868 16.96 237.18 17.12C236.492 17.28 235.708 17.36 234.828 17.36C233.228 17.36 231.964 17.056 231.036 16.448C230.124 15.824 229.668 14.896 229.668 13.664C229.668 12.592 230.004 11.776 230.676 11.216C231.364 10.64 232.356 10.288 233.652 10.16L236.94 9.824V9.392C236.94 8.784 236.716 8.336 236.268 8.048C235.836 7.76 235.22 7.616 234.42 7.616C233.796 7.616 233.188 7.696 232.596 7.856C232.004 8 231.476 8.184 231.012 8.408C230.836 8.28 230.684 8.112 230.556 7.904C230.444 7.68 230.388 7.44 230.388 7.184C230.388 6.864 230.46 6.608 230.604 6.416C230.764 6.208 231.012 6.024 231.348 5.864C231.812 5.672 232.34 5.528 232.932 5.432C233.524 5.336 234.124 5.288 234.732 5.288ZM250.415 9.68C250.415 8.992 250.215 8.488 249.815 8.168C249.431 7.848 248.903 7.688 248.231 7.688C247.767 7.688 247.335 7.744 246.935 7.856C246.551 7.968 246.215 8.112 245.927 8.288V16.976C245.783 17.008 245.591 17.048 245.351 17.096C245.111 17.144 244.839 17.168 244.535 17.168C243.975 17.168 243.559 17.064 243.287 16.856C243.015 16.648 242.879 16.28 242.879 15.752V8.048C242.879 7.664 242.959 7.352 243.119 7.112C243.279 6.872 243.527 6.64 243.863 6.416C244.327 6.096 244.943 5.832 245.711 5.624C246.479 5.4 247.327 5.288 248.255 5.288C249.903 5.288 251.175 5.656 252.071 6.392C252.983 7.112 253.439 8.176 253.439 9.584V16.976C253.311 17.008 253.119 17.048 252.863 17.096C252.623 17.144 252.359 17.168 252.071 17.168C251.495 17.168 251.071 17.064 250.799 16.856C250.543 16.648 250.415 16.28 250.415 15.752V9.68ZM267.704 11.312C267.704 12.24 267.56 13.08 267.272 13.832C267 14.568 266.608 15.2 266.096 15.728C265.584 16.256 264.968 16.664 264.248 16.952C263.528 17.224 262.72 17.36 261.824 17.36C260.928 17.36 260.12 17.224 259.4 16.952C258.68 16.664 258.064 16.264 257.552 15.752C257.04 15.224 256.64 14.592 256.352 13.856C256.08 13.104 255.944 12.256 255.944 11.312C255.944 10.384 256.08 9.552 256.352 8.816C256.64 8.064 257.04 7.432 257.552 6.92C258.08 6.392 258.704 5.992 259.424 5.72C260.144 5.432 260.944 5.288 261.824 5.288C262.704 5.288 263.504 5.432 264.224 5.72C264.944 5.992 265.56 6.392 266.072 6.92C266.6 7.448 267 8.088 267.272 8.84C267.56 9.576 267.704 10.4 267.704 11.312ZM261.824 7.688C260.96 7.688 260.28 8.008 259.784 8.648C259.288 9.272 259.04 10.16 259.04 11.312C259.04 12.48 259.28 13.376 259.76 14C260.256 14.624 260.944 14.936 261.824 14.936C262.704 14.936 263.384 14.624 263.864 14C264.36 13.36 264.608 12.464 264.608 11.312C264.608 10.16 264.36 9.272 263.864 8.648C263.368 8.008 262.688 7.688 261.824 7.688ZM279.04 13.784C279.04 14.904 278.624 15.784 277.792 16.424C276.96 17.048 275.744 17.36 274.144 17.36C273.488 17.36 272.888 17.312 272.344 17.216C271.816 17.12 271.352 16.984 270.952 16.808C270.568 16.616 270.264 16.392 270.04 16.136C269.832 15.864 269.728 15.568 269.728 15.248C269.728 14.944 269.792 14.68 269.92 14.456C270.064 14.232 270.248 14.048 270.472 13.904C270.92 14.192 271.432 14.448 272.008 14.672C272.6 14.896 273.28 15.008 274.048 15.008C274.704 15.008 275.2 14.904 275.536 14.696C275.872 14.472 276.04 14.168 276.04 13.784C276.04 13.128 275.56 12.696 274.6 12.488L273.256 12.176C272.072 11.904 271.192 11.496 270.616 10.952C270.056 10.408 269.776 9.68 269.776 8.768C269.776 7.728 270.192 6.888 271.024 6.248C271.856 5.592 273.024 5.264 274.528 5.264C275.104 5.264 275.632 5.312 276.112 5.408C276.608 5.488 277.032 5.616 277.384 5.792C277.752 5.952 278.032 6.152 278.224 6.392C278.432 6.616 278.536 6.88 278.536 7.184C278.536 7.472 278.472 7.728 278.344 7.952C278.216 8.16 278.064 8.328 277.888 8.456C277.744 8.36 277.552 8.264 277.312 8.168C277.088 8.072 276.832 7.984 276.544 7.904C276.272 7.824 275.976 7.76 275.656 7.712C275.352 7.648 275.048 7.616 274.744 7.616C274.12 7.616 273.632 7.72 273.28 7.928C272.928 8.12 272.752 8.4 272.752 8.768C272.752 9.04 272.848 9.264 273.04 9.44C273.248 9.616 273.6 9.76 274.096 9.872L275.272 10.16C276.6 10.464 277.56 10.912 278.152 11.504C278.744 12.08 279.04 12.84 279.04 13.784Z" fill="#777777"/>
</svg>
